<?xml version="1.0" encoding="utf-8"?>
<!-- Generator: Adobe Illustrator 19.2.0, SVG Export Plug-In . SVG Version: 6.00 Build 0)  -->
<!DOCTYPE svg PUBLIC "-//W3C//DTD SVG 1.1//EN" "http://www.w3.org/Graphics/SVG/1.1/DTD/svg11.dtd">
<svg version="1.1" id="Layer_1" xmlns="http://www.w3.org/2000/svg" xmlns:xlink="http://www.w3.org/1999/xlink" x="0px" y="0px"
	 viewBox="0 0 50 50" style="enable-background:new 0 0 50 50;" xml:space="preserve">
<g>
	<g>
		<text transform="matrix(1 0 0 1 13.7821 23.5732)"><tspan x="0" y="0" style="fill:#00A79D; font-family:'OpenSans-Light'; font-size:12px;">C</tspan><tspan x="7.5" y="0" style="fill:#00534E; font-family:'OpenSans-Light'; font-size:12px;">SC</tspan></text>
	</g>
	<polyline style="fill:none;stroke:#443642;stroke-width:0.5;stroke-miterlimit:10;" points="10.2,34.5 10.2,40.8 28.7,40.8 	"/>
	<circle style="fill:none;stroke:#443642;stroke-width:0.5;stroke-miterlimit:10;" cx="30.6" cy="40.9" r="1.9"/>
	<polyline style="fill:none;stroke:#443642;stroke-width:0.5;stroke-miterlimit:10;" points="39.6,6.5 39.5,27.6 43.9,27.6 	"/>
	<circle style="fill:none;stroke:#443642;stroke-width:0.5;stroke-miterlimit:10;" cx="45.8" cy="27.6" r="1.9"/>
	<polyline style="fill:none;stroke:#443642;stroke-width:0.5;stroke-miterlimit:10;" points="39.6,11 10.2,11 10.2,16.1 6.1,16.1 	
		"/>
	<circle style="fill:none;stroke:#443642;stroke-width:0.5;stroke-miterlimit:10;" cx="4.2" cy="16.1" r="1.9"/>
	<line style="fill:none;stroke:#443642;stroke-width:0.5;stroke-miterlimit:10;" x1="19.5" y1="40.9" x2="19.5" y2="43.5"/>
	<circle style="fill:none;stroke:#443642;stroke-width:0.5;stroke-miterlimit:10;" cx="19.5" cy="45.4" r="1.9"/>
	<text transform="matrix(1 0 0 1 13.7544 32.4883)" style="fill:#443642; font-family:'OpenSans-Bold'; font-size:9px;">TECH</text>
	<circle style="fill:none;stroke:#443642;stroke-width:0.5;stroke-miterlimit:10;" cx="39.6" cy="4.6" r="1.9"/>
	<g>
		<g>
			<line style="fill:none;stroke:#000000;stroke-width:0.5;stroke-miterlimit:10;" x1="10.3" y1="30.5" x2="10.3" y2="26.5"/>
			<line style="fill:none;stroke:#000000;stroke-width:0.5;stroke-miterlimit:10;" x1="10.3" y1="22.5" x2="10.3" y2="18.5"/>
		</g>
	</g>
	<g>
		<g>
			<line style="fill:none;stroke:#000000;stroke-width:0.5;stroke-miterlimit:10;" x1="10.3" y1="30.4" x2="10.3" y2="26.4"/>
			<line style="fill:none;stroke:#000000;stroke-width:0.5;stroke-miterlimit:10;" x1="10.3" y1="22.5" x2="10.3" y2="18.5"/>
		</g>
	</g>
	<g>
		<g>
			<line style="fill:none;stroke:#000000;stroke-width:0.5;stroke-miterlimit:10;" x1="10.3" y1="30.4" x2="10.3" y2="26.4"/>
			<line style="fill:none;stroke:#000000;stroke-width:0.5;stroke-miterlimit:10;" x1="10.3" y1="22.5" x2="10.3" y2="18.5"/>
		</g>
	</g>
	<g>
		<g>
			<line style="fill:none;stroke:#443642;stroke-width:0.5;stroke-miterlimit:10;" x1="10.3" y1="31.4" x2="10.3" y2="27.4"/>
			<line style="fill:none;stroke:#443642;stroke-width:0.5;stroke-miterlimit:10;" x1="10.3" y1="23.5" x2="10.3" y2="19.5"/>
		</g>
	</g>
	<g>
		<g id="_x38_P7adl.tif_1_">
			<g>
				<path style="fill:#E11B64;" d="M16.7,35.7C16.7,35.8,16.7,35.8,16.7,35.7c0,0.1-0.1,0.2-0.2,0.2c-0.1,0-0.2,0.1-0.3,0.1
					c0,0,0,0,0,0c0,0,0,0,0,0c0,0,0,0,0,0c0-0.1-0.1-0.2-0.1-0.3c0,0,0-0.1,0-0.1c0,0,0,0,0,0c0.1,0,0.1,0,0.2-0.1c0,0,0.1,0,0.1,0
					C16.5,35.4,16.6,35.5,16.7,35.7C16.7,35.7,16.7,35.7,16.7,35.7C16.7,35.7,16.7,35.7,16.7,35.7z"/>
				<path style="fill:#E8A823;" d="M15.3,34.7c0-0.1-0.1-0.2-0.1-0.3c0-0.1,0-0.1,0-0.2c0-0.1,0.1-0.1,0.2-0.1c0,0,0,0,0,0
					c0,0,0,0,0.1,0c0,0,0,0,0.1,0c0.1,0,0.1,0.1,0.1,0.1c0,0.1,0.1,0.2,0.1,0.3c0,0,0,0,0,0c0,0,0,0,0,0c0,0,0,0,0,0
					c-0.1,0-0.2,0.1-0.2,0.1C15.4,34.7,15.3,34.7,15.3,34.7z"/>
				<path style="fill:#3BBA92;" d="M15.1,37C15,37,15,37,15.1,37c-0.1,0-0.2-0.1-0.2-0.1c0-0.1-0.1-0.2-0.1-0.3c0,0,0,0,0,0
					c0,0,0,0,0,0c0.1,0,0.3-0.1,0.4-0.1c0,0,0,0,0,0c0,0.1,0,0.1,0.1,0.2c0,0,0,0.1,0,0.1C15.3,36.8,15.3,37,15.1,37
					C15.1,37,15.1,37,15.1,37C15.1,37,15.1,37,15.1,37z"/>
				<path style="fill:#6BCBDC;" d="M14.4,35.5c-0.1,0-0.2,0.1-0.3,0.1c-0.1,0-0.2,0-0.3,0c0,0-0.1-0.1-0.1-0.1c0,0,0,0,0,0
					c0,0,0,0,0-0.1c0,0,0,0,0-0.1c0-0.1,0.1-0.1,0.2-0.1c0.1,0,0.2-0.1,0.3-0.1c0,0,0,0,0,0C14.3,35.2,14.4,35.4,14.4,35.5
					C14.4,35.5,14.4,35.5,14.4,35.5z"/>
				<path style="fill:#E8A823;" d="M16.1,35.6C16.1,35.6,16.1,35.6,16.1,35.6C16,35.6,16,35.6,16.1,35.6c-0.1,0-0.2,0.1-0.3,0.1
					c-0.1,0-0.1,0-0.2,0.1c0-0.1-0.1-0.2-0.1-0.2c0-0.1-0.1-0.2-0.1-0.3c0,0,0,0,0,0c0.1,0,0.3-0.1,0.4-0.1c0,0,0,0,0,0
					c0,0.1,0.1,0.2,0.1,0.3C16,35.4,16,35.5,16.1,35.6z"/>
				<path style="fill:#6BCBDC;" d="M15.9,35C15.9,35,15.9,35,15.9,35C15.9,35,15.9,35,15.9,35c0-0.1-0.1-0.2-0.1-0.2
					c0-0.1,0-0.1-0.1-0.2c0,0,0,0,0,0c0.1,0,0.1,0,0.2-0.1c0.1,0,0.1,0,0.2-0.1c0.1,0,0.3,0.1,0.3,0.2c0,0.1,0,0.2-0.2,0.3
					C16.1,35,16,35,15.9,35C15.9,35,15.9,35,15.9,35z"/>
				<path style="fill:#E11A64;" d="M15.2,36.4C15.2,36.4,15.2,36.4,15.2,36.4C15.2,36.4,15.2,36.4,15.2,36.4c0-0.1-0.1-0.2-0.1-0.3
					c0-0.1,0-0.1-0.1-0.2c0,0,0,0,0,0c0,0,0,0,0,0c0.1,0,0.1,0,0.2-0.1c0.1,0,0.2-0.1,0.3-0.1c0,0.1,0,0.1,0.1,0.2
					c0,0.1,0.1,0.2,0.1,0.3C15.6,36.3,15.4,36.3,15.2,36.4C15.2,36.4,15.2,36.4,15.2,36.4z"/>
				<path style="fill:#E8A823;" d="M16.2,36C16.2,36,16.2,36,16.2,36c0,0.1,0,0.1,0.1,0.2c0,0,0,0.1,0,0.1c0,0.1,0,0.2-0.2,0.3
					c-0.1,0-0.2,0-0.3-0.1c0-0.1-0.1-0.2-0.1-0.3c0,0,0,0,0,0c0.1,0,0.2-0.1,0.3-0.1C16.1,36.1,16.2,36.1,16.2,36z"/>
				<path style="fill:#CC2227;" d="M16.2,36c-0.1,0-0.1,0-0.2,0.1c-0.1,0-0.2,0.1-0.3,0.1c0,0,0,0,0,0c0,0,0,0,0,0
					c0-0.1-0.1-0.2-0.1-0.3c0-0.1,0-0.1-0.1-0.2c0,0,0,0,0,0c0.1,0,0.1,0,0.2-0.1c0.1,0,0.2-0.1,0.2-0.1c0,0,0,0,0,0
					c0,0,0,0.1,0,0.1C16.1,35.8,16.2,35.9,16.2,36C16.2,36,16.2,36,16.2,36z"/>
				<path style="fill:#6BCBDC;" d="M14.7,34.9c0,0,0.1,0,0.1,0c0.1,0,0.3-0.1,0.4-0.1c0,0,0,0,0,0c0,0.1,0,0.1,0.1,0.2
					c0,0.1,0.1,0.2,0.1,0.2c-0.2,0.1-0.3,0.1-0.5,0.2c0,0,0,0,0,0c0,0,0,0,0,0c0,0,0,0,0,0c0-0.1-0.1-0.2-0.1-0.3
					C14.8,35,14.7,35,14.7,34.9C14.7,34.9,14.7,34.9,14.7,34.9z"/>
				<path style="fill:#3BBA92;" d="M14.7,34.9C14.7,34.9,14.7,34.9,14.7,34.9C14.7,34.9,14.7,34.9,14.7,34.9
					c-0.1,0.1-0.3,0.1-0.4,0.1c0,0,0,0-0.1,0c0-0.1-0.1-0.1-0.1-0.2c0,0,0-0.1,0-0.1c0-0.1,0.1-0.2,0.2-0.3c0.1,0,0.2,0,0.3,0.2
					C14.7,34.7,14.7,34.8,14.7,34.9z"/>
				<path style="fill:#63863B;" d="M15.4,35.2c0-0.1-0.1-0.2-0.1-0.2c0-0.1,0-0.1-0.1-0.2c0,0,0,0,0,0c0.1,0,0.1,0,0.2-0.1
					c0.1,0,0.2-0.1,0.2-0.1c0,0,0,0,0,0c0,0.1,0,0.1,0.1,0.2c0,0.1,0.1,0.2,0.1,0.2c0,0,0,0,0,0C15.7,35.1,15.6,35.1,15.4,35.2
					C15.4,35.2,15.4,35.2,15.4,35.2C15.4,35.2,15.4,35.2,15.4,35.2z"/>
				<path style="fill:#16947E;" d="M14.3,35.1C14.3,35.1,14.3,35.1,14.3,35.1c0.2-0.1,0.3-0.1,0.4-0.1c0,0,0,0,0,0
					c0,0.1,0,0.1,0.1,0.2c0,0.1,0.1,0.2,0.1,0.3c0,0,0,0,0,0c0,0,0,0,0,0c-0.1,0-0.2,0.1-0.4,0.1c0,0,0,0,0,0
					C14.4,35.4,14.3,35.2,14.3,35.1C14.3,35.1,14.3,35.1,14.3,35.1C14.3,35.1,14.3,35.1,14.3,35.1z"/>
				<path style="fill:#3BBA92;" d="M14.4,35.5C14.4,35.5,14.5,35.5,14.4,35.5c0.2-0.1,0.3-0.1,0.4-0.1c0,0,0,0,0,0c0,0,0,0,0,0
					c0,0.1,0.1,0.2,0.1,0.2c0,0.1,0.1,0.2,0.1,0.3c0,0,0,0,0,0c0,0,0,0,0,0C15,36,14.9,36,14.8,36c-0.1,0-0.1,0-0.2,0.1l0,0
					c0-0.1-0.1-0.2-0.1-0.2C14.5,35.7,14.5,35.7,14.4,35.5C14.4,35.5,14.4,35.5,14.4,35.5C14.4,35.5,14.4,35.5,14.4,35.5z"/>
				<path style="fill:#E11B64;" d="M14.6,36.1L14.6,36.1c0,0.1,0.1,0.2,0.1,0.3c0,0.1,0,0.1,0.1,0.2c-0.1,0-0.2,0.1-0.3,0.1
					c-0.1,0-0.3,0-0.3-0.1c0-0.1,0-0.3,0.1-0.3C14.4,36.1,14.5,36.1,14.6,36.1z"/>
				<path style="fill:#371339;" d="M14.8,36.5c0-0.1,0-0.1-0.1-0.2c0-0.1-0.1-0.2-0.1-0.3c0.1,0,0.1,0,0.2-0.1
					c0.1,0,0.2-0.1,0.3-0.1c0,0,0,0,0,0c0,0.1,0,0.1,0.1,0.2c0,0.1,0.1,0.2,0.1,0.2c0,0,0,0,0,0C15.1,36.4,14.9,36.5,14.8,36.5
					C14.8,36.5,14.8,36.5,14.8,36.5C14.8,36.5,14.8,36.5,14.8,36.5z"/>
			</g>
		</g>
		<text transform="matrix(1 0 0 1 16.8519 36.6727)" style="fill:#443642; font-family:'OpenSans-Bold'; font-size:3.3px;">community</text>
	</g>
</g>
</svg>
