<?xml version="1.0" encoding="utf-8"?>
<!-- Generator: Adobe Illustrator 19.2.0, SVG Export Plug-In . SVG Version: 6.00 Build 0)  -->
<!DOCTYPE svg PUBLIC "-//W3C//DTD SVG 1.1//EN" "http://www.w3.org/Graphics/SVG/1.1/DTD/svg11.dtd">
<svg version="1.1" id="Layer_1" xmlns="http://www.w3.org/2000/svg" xmlns:xlink="http://www.w3.org/1999/xlink" x="0px" y="0px"
	 viewBox="0 0 100 50" style="enable-background:new 0 0 100 50;" xml:space="preserve">
<g>
	<text transform="matrix(1 0 0 1 13.0846 22.6969)" style="font-family:'OpenSans-Light'; font-size:12px;">COLUMBIASC</text>
	<text transform="matrix(1 0 0 1 14.0845 37.1469)" style="font-family:'OpenSans-Bold'; font-size:12px;">TECH</text>
	<polyline style="fill:none;stroke:#000000;stroke-width:0.5;stroke-miterlimit:10;" points="25.4,11.6 25.4,6.4 12.9,6.4 	"/>
	<circle style="fill:none;stroke:#000000;stroke-width:0.5;stroke-miterlimit:10;" cx="11" cy="6.3" r="1.9"/>
	<polyline style="fill:none;stroke:#000000;stroke-width:0.5;stroke-miterlimit:10;" points="47.6,28.5 47.6,37.7 75.1,37.7 	"/>
	<circle style="fill:none;stroke:#000000;stroke-width:0.5;stroke-miterlimit:10;" cx="77" cy="37.8" r="1.9"/>
	<polyline style="fill:none;stroke:#000000;stroke-width:0.5;stroke-miterlimit:10;" points="90.4,25.5 95.5,25.5 95.5,13.2 	"/>
	<circle style="fill:none;stroke:#000000;stroke-width:0.5;stroke-miterlimit:10;" cx="95.5" cy="11.3" r="1.9"/>
	<polyline style="fill:none;stroke:#000000;stroke-width:0.5;stroke-miterlimit:10;" points="69.4,25.5 11.6,25.5 11.6,31.7 
		6.4,31.7 	"/>
	<circle style="fill:none;stroke:#000000;stroke-width:0.5;stroke-miterlimit:10;" cx="4.5" cy="31.7" r="1.9"/>
	<g>
		<g>
			<line style="fill:none;stroke:#000000;stroke-width:0.5;stroke-miterlimit:10;" x1="73.1" y1="25.5" x2="78.1" y2="25.5"/>
			<line style="fill:none;stroke:#000000;stroke-width:0.5;stroke-miterlimit:10;" x1="81.6" y1="25.5" x2="86.6" y2="25.5"/>
		</g>
	</g>
	<line style="fill:none;stroke:#000000;stroke-width:0.5;stroke-miterlimit:10;" x1="47.6" y1="33.2" x2="47.6" y2="41.8"/>
	<circle style="fill:none;stroke:#000000;stroke-width:0.5;stroke-miterlimit:10;" cx="47.6" cy="43.7" r="1.9"/>
	<g>
		<text transform="matrix(1 0 0 1 54.8109 32.9367)" style="font-family:'OpenSans-Bold'; font-size:5.3531px;">community</text>
		<path d="M53.1,29.7c0.1,0,0.3-0.1,0.4-0.1c0.2-0.1,0.4,0,0.5,0.2c0.1,0.2,0,0.4-0.2,0.5c-0.1,0-0.3,0.1-0.4,0.1c0,0,0,0,0,0
			c0.1,0.3,0.2,0.6,0.3,0.9c0.1,0,0.2-0.1,0.3-0.1c0.1,0,0.2-0.1,0.2-0.1c0.2,0,0.3,0.1,0.4,0.3c0,0.2,0,0.4-0.2,0.4
			c-0.1,0.1-0.3,0.1-0.4,0.2c0,0,0,0,0,0c0,0.1,0.1,0.3,0.1,0.4c0.1,0.2,0,0.3-0.1,0.4c-0.2,0.2-0.5,0.1-0.6-0.2
			c0-0.1-0.1-0.3-0.1-0.4c0,0,0,0,0,0c-0.3,0.1-0.6,0.2-0.9,0.3c0,0.1,0,0.1,0.1,0.2c0,0.1,0.1,0.2,0.1,0.3c0.1,0.2,0,0.4-0.2,0.5
			c-0.2,0.1-0.4,0-0.5-0.2c-0.1-0.1-0.1-0.3-0.1-0.4c0,0,0,0,0-0.1c-0.1,0-0.3,0.1-0.4,0.1c-0.2,0.1-0.3,0-0.4-0.1
			c-0.2-0.2-0.1-0.5,0.1-0.6c0.1-0.1,0.3-0.1,0.4-0.1c0,0,0,0,0.1,0c-0.1-0.3-0.2-0.6-0.3-0.9c-0.1,0-0.3,0.1-0.4,0.1
			c-0.1,0-0.3,0-0.4-0.1c-0.2-0.2-0.1-0.5,0.1-0.6c0.1-0.1,0.3-0.1,0.4-0.2c0,0,0,0,0.1,0c0-0.1-0.1-0.3-0.1-0.4
			c-0.1-0.2,0-0.4,0.2-0.5c0.2-0.1,0.4,0,0.5,0.2c0,0.1,0.1,0.3,0.1,0.4c0.3-0.1,0.6-0.2,0.9-0.3c-0.1-0.1-0.1-0.3-0.1-0.4
			c0-0.1,0-0.3,0.1-0.4c0.2-0.2,0.5-0.1,0.6,0.1C53,29.4,53,29.5,53.1,29.7C53.1,29.7,53.1,29.7,53.1,29.7z M52.1,31.8
			c0.3-0.1,0.6-0.2,0.9-0.3c-0.1-0.3-0.2-0.6-0.3-0.9c-0.3,0.1-0.6,0.2-0.9,0.3C51.9,31.2,52,31.5,52.1,31.8z"/>
	</g>
</g>
</svg>
