<?xml version="1.0" encoding="utf-8"?>
<!-- Generator: Adobe Illustrator 19.2.0, SVG Export Plug-In . SVG Version: 6.00 Build 0)  -->
<!DOCTYPE svg PUBLIC "-//W3C//DTD SVG 1.1//EN" "http://www.w3.org/Graphics/SVG/1.1/DTD/svg11.dtd">
<svg version="1.1" id="Layer_1" xmlns="http://www.w3.org/2000/svg" xmlns:xlink="http://www.w3.org/1999/xlink" x="0px" y="0px"
	 viewBox="0 0 50 50" style="enable-background:new 0 0 50 50;" xml:space="preserve">
<g>
	<g>
		<text transform="matrix(1 0 0 1 13.7821 23.4767)" style="font-family:'OpenSans-Light'; font-size:12px;">CSC</text>
	</g>
	<polyline style="fill:none;stroke:#000000;stroke-width:0.5;stroke-miterlimit:10;" points="10.2,34.4 10.2,40.7 28.7,40.7 	"/>
	<circle style="fill:none;stroke:#000000;stroke-width:0.5;stroke-miterlimit:10;" cx="30.6" cy="40.8" r="1.9"/>
	<polyline style="fill:none;stroke:#000000;stroke-width:0.5;stroke-miterlimit:10;" points="39.5,6.4 39.5,27.5 43.9,27.5 	"/>
	<circle style="fill:none;stroke:#000000;stroke-width:0.5;stroke-miterlimit:10;" cx="45.8" cy="27.5" r="1.9"/>
	<polyline style="fill:none;stroke:#000000;stroke-width:0.5;stroke-miterlimit:10;" points="39.6,10.9 10.2,10.9 10.2,16 6.1,16 	
		"/>
	<circle style="fill:none;stroke:#000000;stroke-width:0.5;stroke-miterlimit:10;" cx="4.2" cy="16" r="1.9"/>
	<line style="fill:none;stroke:#000000;stroke-width:0.5;stroke-miterlimit:10;" x1="19.5" y1="40.8" x2="19.5" y2="43.4"/>
	<circle style="fill:none;stroke:#000000;stroke-width:0.5;stroke-miterlimit:10;" cx="19.5" cy="45.3" r="1.9"/>
	<text transform="matrix(1 0 0 1 13.7545 32.8239)" style="font-family:'OpenSans-Bold'; font-size:9px;">TECH</text>
	<circle style="fill:none;stroke:#000000;stroke-width:0.5;stroke-miterlimit:10;" cx="39.5" cy="4.5" r="1.9"/>
	<g>
		<g>
			<line style="fill:none;stroke:#000000;stroke-width:0.5;stroke-miterlimit:10;" x1="10.3" y1="30.4" x2="10.3" y2="26.4"/>
			<line style="fill:none;stroke:#000000;stroke-width:0.5;stroke-miterlimit:10;" x1="10.3" y1="22.4" x2="10.3" y2="18.4"/>
		</g>
	</g>
	<g>
		<g>
			<line style="fill:none;stroke:#000000;stroke-width:0.5;stroke-miterlimit:10;" x1="10.3" y1="30.3" x2="10.3" y2="26.3"/>
			<line style="fill:none;stroke:#000000;stroke-width:0.5;stroke-miterlimit:10;" x1="10.3" y1="22.4" x2="10.3" y2="18.4"/>
		</g>
	</g>
	<g>
		<g>
			<line style="fill:none;stroke:#000000;stroke-width:0.5;stroke-miterlimit:10;" x1="10.3" y1="30.3" x2="10.3" y2="26.3"/>
			<line style="fill:none;stroke:#000000;stroke-width:0.5;stroke-miterlimit:10;" x1="10.3" y1="22.4" x2="10.3" y2="18.4"/>
		</g>
	</g>
	<g>
		<g>
			<line style="fill:none;stroke:#000000;stroke-width:0.5;stroke-miterlimit:10;" x1="10.3" y1="31.3" x2="10.3" y2="27.3"/>
			<line style="fill:none;stroke:#000000;stroke-width:0.5;stroke-miterlimit:10;" x1="10.3" y1="23.4" x2="10.3" y2="19.4"/>
		</g>
	</g>
	<g>
		<text transform="matrix(1 0 0 1 16.8519 36.5762)" style="font-family:'OpenSans-Bold'; font-size:3.3px;">community</text>
		<path d="M15.7,34.5c0.1,0,0.2-0.1,0.3-0.1c0.1,0,0.3,0,0.3,0.2c0,0.1,0,0.3-0.2,0.3c-0.1,0-0.2,0.1-0.3,0.1c0,0,0,0,0,0
			c0.1,0.2,0.1,0.4,0.2,0.6c0.1,0,0.1,0,0.2-0.1c0.1,0,0.1,0,0.2,0c0.1,0,0.2,0.1,0.2,0.2c0,0.1,0,0.2-0.1,0.3
			c-0.1,0-0.2,0.1-0.3,0.1c0,0,0,0,0,0c0,0.1,0.1,0.2,0.1,0.3c0,0.1,0,0.2-0.1,0.3c-0.1,0.1-0.3,0-0.4-0.1c0-0.1-0.1-0.2-0.1-0.2
			c0,0,0,0,0,0c-0.2,0.1-0.4,0.1-0.6,0.2c0,0,0,0.1,0,0.1c0,0.1,0,0.1,0.1,0.2c0,0.1,0,0.3-0.2,0.3c-0.1,0-0.3,0-0.3-0.1
			c0-0.1-0.1-0.2-0.1-0.3c0,0,0,0,0,0c-0.1,0-0.2,0.1-0.3,0.1c-0.1,0-0.2,0-0.3-0.1c-0.1-0.1-0.1-0.3,0.1-0.4c0.1,0,0.2-0.1,0.3-0.1
			c0,0,0,0,0,0c-0.1-0.2-0.1-0.4-0.2-0.6c-0.1,0-0.2,0.1-0.3,0.1c-0.1,0-0.2,0-0.3-0.1c-0.1-0.1-0.1-0.3,0.1-0.4
			c0.1,0,0.2-0.1,0.3-0.1c0,0,0,0,0,0c0-0.1-0.1-0.2-0.1-0.3c0-0.1,0-0.2,0.1-0.3c0.1-0.1,0.3,0,0.3,0.1c0,0.1,0.1,0.2,0.1,0.3
			c0.2-0.1,0.4-0.1,0.6-0.2c0-0.1-0.1-0.2-0.1-0.3c0-0.1,0-0.2,0.1-0.3c0.1-0.1,0.3-0.1,0.4,0.1C15.7,34.2,15.7,34.3,15.7,34.5
			C15.7,34.4,15.7,34.5,15.7,34.5z M15.1,35.8c0.2-0.1,0.4-0.1,0.6-0.2c-0.1-0.2-0.1-0.4-0.2-0.6c-0.2,0.1-0.4,0.1-0.6,0.2
			C14.9,35.5,15,35.7,15.1,35.8z"/>
	</g>
</g>
</svg>
