<?xml version="1.0" encoding="utf-8"?>
<!-- Generator: Adobe Illustrator 19.2.0, SVG Export Plug-In . SVG Version: 6.00 Build 0)  -->
<!DOCTYPE svg PUBLIC "-//W3C//DTD SVG 1.1//EN" "http://www.w3.org/Graphics/SVG/1.1/DTD/svg11.dtd">
<svg version="1.1" id="Layer_1" xmlns="http://www.w3.org/2000/svg" xmlns:xlink="http://www.w3.org/1999/xlink" x="0px" y="0px"
	 viewBox="0 0 50 50" style="enable-background:new 0 0 50 50;" xml:space="preserve">
<g>
	<g id="_x38_P7adl.tif_2_" style="opacity:0.76;">
		<g>
			<path style="fill:#E11B64;" d="M37.1,27.4c-0.1,0,0,0.1-0.1,0.1c-0.2,0.7-0.6,1.2-1.3,1.5c-0.8,0.3-1.6,0.5-2.4,0.8
				c0,0-0.1,0-0.1,0c0,0,0,0,0,0c0,0,0-0.1,0-0.1c-0.3-0.8-0.6-1.7-0.9-2.5c-0.1-0.4-0.2-0.8-0.4-1.1c0,0,0,0,0,0
				c0.5-0.2,1-0.3,1.5-0.5c0.3-0.1,0.6-0.2,1-0.3c1.2-0.4,2.4,0.3,2.7,1.6c0,0,0,0,0,0.1C37.1,27,37.1,27.2,37.1,27.4z"/>
			<path style="fill:#E8A823;" d="M25.3,19c-0.3-0.9-0.6-1.8-0.9-2.6c-0.2-0.5-0.1-1,0.2-1.4c0.3-0.5,0.7-0.9,1.3-1
				c0,0,0.1,0,0.1-0.1c0.2,0,0.4,0,0.6,0c0.2,0,0.3,0.1,0.5,0.1c0.6,0.2,1,0.7,1.2,1.3c0.3,0.8,0.5,1.6,0.8,2.4c0,0,0,0.1,0,0.1
				c0,0,0,0,0,0c-0.1,0-0.1,0-0.2,0c-0.7,0.2-1.4,0.5-2.1,0.7C26.3,18.6,25.8,18.8,25.3,19z"/>
			<path style="fill:#3BBA92;" d="M23.5,37.9c-0.1-0.1-0.1,0-0.2-0.1c-0.7-0.2-1.1-0.6-1.4-1.2c-0.3-0.8-0.6-1.7-0.9-2.5
				c0,0,0,0,0,0c0,0,0.1,0,0.1-0.1c1.2-0.4,2.4-0.8,3.6-1.2c0,0,0,0,0,0c0.2,0.6,0.4,1.1,0.6,1.7c0.1,0.3,0.3,0.7,0.3,1
				c0.2,1.1-0.5,2.1-1.6,2.3c0,0,0,0-0.1,0C23.9,37.9,23.7,37.9,23.5,37.9z"/>
			<path style="fill:#6BCBDC;" d="M18.2,25.7c-0.8,0.3-1.5,0.5-2.3,0.8c-0.8,0.3-1.5,0.2-2.1-0.4c-0.3-0.3-0.5-0.7-0.6-1.1
				c0,0,0-0.1,0-0.1c0-0.2,0-0.3,0-0.5c0-0.1,0.1-0.3,0.1-0.4c0.2-0.6,0.7-1,1.3-1.3c0.8-0.3,1.6-0.5,2.3-0.8c0,0,0,0.1,0,0.1
				C17.3,23.2,17.8,24.4,18.2,25.7C18.2,25.6,18.2,25.6,18.2,25.7z"/>
			<path style="fill:#E8A823;" d="M31.9,26.1C31.9,26.1,31.9,26.1,31.9,26.1c-0.1,0-0.1,0-0.2,0.1c-0.7,0.2-1.3,0.5-2,0.7
				c-0.5,0.2-1.1,0.4-1.6,0.5c-0.2-0.7-0.5-1.3-0.7-2c-0.3-0.9-0.6-1.7-0.9-2.6c0,0,0.1,0,0.1-0.1c1.2-0.4,2.4-0.8,3.6-1.2
				c0,0,0,0,0,0c0.3,0.8,0.5,1.6,0.8,2.4C31.4,24.6,31.7,25.3,31.9,26.1z"/>
			<path style="fill:#6BCBDC;" d="M30.4,21.5C30.3,21.5,30.3,21.5,30.4,21.5C30.3,21.5,30.3,21.4,30.4,21.5
				c-0.3-0.8-0.5-1.4-0.7-2.1c-0.2-0.6-0.4-1.1-0.6-1.7c0,0,0,0,0,0c0.4-0.1,0.8-0.3,1.3-0.4c0.5-0.2,1-0.4,1.5-0.5
				c1.1-0.3,2.2,0.5,2.4,1.6c0.1,1-0.4,1.9-1.3,2.2c-0.8,0.3-1.6,0.5-2.4,0.8C30.4,21.4,30.4,21.5,30.4,21.5z"/>
			<path style="fill:#E11A64;" d="M24.8,32.7C24.8,32.7,24.8,32.7,24.8,32.7c0-0.1,0-0.1-0.1-0.1c-0.2-0.7-0.5-1.4-0.7-2.1
				c-0.2-0.5-0.4-1-0.5-1.5c0,0,0,0,0,0c0,0,0.1,0,0.1,0c0.5-0.2,1.1-0.4,1.6-0.5c1-0.3,1.9-0.7,2.9-1c0.2,0.5,0.3,1,0.5,1.5
				c0.3,0.8,0.5,1.5,0.8,2.3c-1.5,0.5-3,1-4.4,1.5C24.9,32.7,24.9,32.7,24.8,32.7z"/>
			<path style="fill:#E8A823;" d="M33.2,29.9C33.2,29.9,33.2,29.9,33.2,29.9c0.2,0.5,0.4,1,0.5,1.6c0.1,0.4,0.3,0.7,0.4,1.1
				c0.2,1-0.3,2-1.3,2.3c-1,0.3-2.1-0.2-2.4-1.1c-0.3-0.9-0.6-1.7-0.9-2.6c0,0,0.1,0,0.1,0c0.8-0.3,1.6-0.5,2.3-0.8
				C32.3,30.2,32.8,30,33.2,29.9z"/>
			<path style="fill:#CC2227;" d="M33.2,29.9c-0.4,0.2-0.9,0.3-1.3,0.5c-0.8,0.3-1.6,0.5-2.3,0.8c0,0-0.1,0-0.1,0c0,0,0,0,0,0
				c-0.3-0.8-0.5-1.5-0.8-2.3c-0.2-0.5-0.3-1-0.5-1.5c0,0,0,0,0,0c0.5-0.2,1.1-0.4,1.6-0.5c0.7-0.2,1.3-0.5,2-0.7c0.1,0,0.1,0,0.2,0
				c0.2,0.4,0.3,0.8,0.4,1.1C32.6,28.1,32.9,28.9,33.2,29.9C33.2,29.8,33.2,29.8,33.2,29.9z"/>
			<path style="fill:#6BCBDC;" d="M20.7,20.6c0.4-0.1,0.8-0.3,1.2-0.4c1.1-0.4,2.2-0.8,3.3-1.1c0,0,0,0,0.1,0
				c0.2,0.6,0.4,1.2,0.6,1.8c0.2,0.7,0.5,1.3,0.7,2c-1.5,0.5-2.9,1-4.4,1.5c-0.1,0-0.2,0-0.2,0.1c0,0,0,0,0,0c0-0.1,0-0.1,0-0.2
				c-0.3-0.8-0.5-1.5-0.8-2.3C21,21.5,20.8,21,20.7,20.6C20.7,20.6,20.7,20.6,20.7,20.6z"/>
			<path style="fill:#3BBA92;" d="M20.7,20.6C20.7,20.6,20.7,20.6,20.7,20.6c-0.1,0-0.2,0.1-0.3,0.1c-1,0.3-1.9,0.7-2.9,1
				c-0.2,0.1-0.4,0.2-0.6,0.2c-0.2-0.6-0.4-1.3-0.7-1.9c-0.1-0.3-0.2-0.7-0.3-1c-0.2-1,0.6-2.1,1.6-2.2c1-0.1,1.9,0.4,2.2,1.4
				C20.1,18.9,20.4,19.7,20.7,20.6z"/>
			<path style="fill:#63863B;" d="M26.6,22.8c-0.2-0.7-0.5-1.3-0.7-2c-0.2-0.6-0.4-1.2-0.6-1.8c0,0,0,0,0,0c0.5-0.2,1-0.3,1.5-0.5
				c0.7-0.2,1.4-0.5,2.1-0.7c0.1,0,0.1,0,0.2,0c0.2,0.6,0.4,1.1,0.6,1.7c0.2,0.7,0.5,1.3,0.7,2c0,0,0,0.1,0,0.1
				c-1.2,0.4-2.4,0.8-3.6,1.2C26.7,22.7,26.6,22.8,26.6,22.8C26.6,22.8,26.6,22.8,26.6,22.8z"/>
			<path style="fill:#16947E;" d="M16.9,21.9c0.2,0,0.4-0.1,0.6-0.2c1-0.3,1.9-0.7,2.9-1c0.1,0,0.2-0.1,0.3-0.1
				c0.2,0.4,0.3,0.9,0.5,1.3c0.3,0.8,0.5,1.5,0.8,2.3c0,0.1,0,0.1,0,0.2c-0.1,0-0.2,0.1-0.3,0.1c-1,0.4-2.1,0.7-3.1,1.1
				c-0.1,0-0.3,0.1-0.4,0.1c-0.4-1.2-0.8-2.4-1.3-3.7C16.9,21.9,16.9,21.9,16.9,21.9C16.9,21.9,16.9,21.9,16.9,21.9z"/>
			<path style="fill:#3BBA92;" d="M18.2,25.6c0.1,0,0.3-0.1,0.4-0.1c1-0.4,2.1-0.7,3.1-1.1c0.1,0,0.2-0.1,0.3-0.1c0,0,0,0,0,0
				c0.2,0.6,0.4,1.3,0.7,1.9c0.3,0.9,0.6,1.8,0.9,2.6c0,0,0,0,0,0c0,0-0.1,0-0.1,0c-0.7,0.2-1.4,0.5-2.1,0.7c-0.5,0.2-1,0.3-1.5,0.5
				c0,0,0,0,0,0c-0.2-0.7-0.5-1.3-0.7-2c-0.3-0.8-0.6-1.6-0.8-2.5C18.2,25.7,18.2,25.7,18.2,25.6C18.2,25.6,18.2,25.6,18.2,25.6z"/>
			<path style="fill:#E11B64;" d="M19.7,30.3C19.8,30.3,19.8,30.3,19.7,30.3c0.3,0.7,0.5,1.4,0.7,2.2c0.2,0.5,0.4,1.1,0.5,1.6
				c-0.8,0.3-1.6,0.6-2.5,0.8c-1,0.3-2.1-0.2-2.5-1.3c-0.4-1,0.2-2.1,1.2-2.5C18.1,30.8,18.9,30.5,19.7,30.3z"/>
			<path style="fill:#371339;" d="M21,34c-0.2-0.5-0.4-1.1-0.5-1.6c-0.2-0.7-0.5-1.4-0.7-2.2c0.5-0.2,1-0.4,1.5-0.5
				c0.7-0.2,1.4-0.5,2.1-0.7c0,0,0.1,0,0.1,0c0.2,0.5,0.4,1,0.5,1.5c0.2,0.7,0.5,1.4,0.7,2.1c0,0,0,0.1,0,0.1
				c-1.2,0.4-2.4,0.8-3.6,1.2C21.2,34,21.1,34,21,34C21.1,34,21.1,34,21,34z"/>
		</g>
	</g>
	<g>
		<polyline style="fill:none;stroke:#443642;stroke-width:2;stroke-miterlimit:10;" points="10.2,34.5 10.2,40.8 28.7,40.8 		"/>
		<circle style="fill:none;stroke:#443642;stroke-width:2;stroke-miterlimit:10;" cx="30.6" cy="40.9" r="1.9"/>
		<polyline style="fill:none;stroke:#443642;stroke-width:2;stroke-miterlimit:10;" points="39.6,6.5 39.5,27.6 43.9,27.6 		"/>
		<circle style="fill:none;stroke:#443642;stroke-width:2;stroke-miterlimit:10;" cx="45.8" cy="27.6" r="1.9"/>
		<polyline style="fill:none;stroke:#443642;stroke-width:2;stroke-miterlimit:10;" points="39.6,11 10.2,11 10.2,16.1 6.1,16.1 		
			"/>
		<circle style="fill:none;stroke:#443642;stroke-width:2;stroke-miterlimit:10;" cx="4.2" cy="16.1" r="1.9"/>
		<line style="fill:none;stroke:#443642;stroke-width:2;stroke-miterlimit:10;" x1="19.5" y1="40.9" x2="19.5" y2="43.5"/>
		<circle style="fill:none;stroke:#443642;stroke-width:2;stroke-miterlimit:10;" cx="19.5" cy="45.4" r="1.9"/>
		<circle style="fill:none;stroke:#443642;stroke-width:2;stroke-miterlimit:10;" cx="39.6" cy="4.6" r="1.9"/>
		<g>
			<g>
				<line style="fill:none;stroke:#443642;stroke-width:2;stroke-miterlimit:10;" x1="10.3" y1="31.1" x2="10.3" y2="27.1"/>
				<line style="fill:none;stroke:#443642;stroke-width:2;stroke-miterlimit:10;" x1="10.3" y1="24.1" x2="10.3" y2="20.1"/>
			</g>
		</g>
	</g>
</g>
</svg>
