<?xml version="1.0" encoding="utf-8"?>
<!-- Generator: Adobe Illustrator 19.2.0, SVG Export Plug-In . SVG Version: 6.00 Build 0)  -->
<!DOCTYPE svg PUBLIC "-//W3C//DTD SVG 1.1//EN" "http://www.w3.org/Graphics/SVG/1.1/DTD/svg11.dtd">
<svg version="1.1" id="Layer_1" xmlns="http://www.w3.org/2000/svg" xmlns:xlink="http://www.w3.org/1999/xlink" x="0px" y="0px"
	 viewBox="0 0 100 50" style="enable-background:new 0 0 100 50;" xml:space="preserve">
<g>
	<g>
		<text transform="matrix(1 0 0 1 13.0845 22.6969)"><tspan x="0" y="0" style="fill:#00A79D; font-family:'OpenSans-Light'; font-size:12px;">COLUMBIA</tspan><tspan x="59.5" y="0" style="fill:#00534E; font-family:'OpenSans-Light'; font-size:12px;">SC</tspan></text>
	</g>
	<g>
		<text transform="matrix(1 0 0 1 14.0845 37.1469)" style="fill:#443642; font-family:'OpenSans-Bold'; font-size:12px;">TECH</text>
	</g>
	<g>
		<g>
			<g>
				<line style="fill:none;stroke:#443642;stroke-width:0.5;stroke-miterlimit:10;" x1="73.1" y1="25.5" x2="78.1" y2="25.5"/>
				<line style="fill:none;stroke:#443642;stroke-width:0.5;stroke-miterlimit:10;" x1="81.6" y1="25.5" x2="86.6" y2="25.5"/>
			</g>
		</g>
		<polyline style="fill:none;stroke:#443642;stroke-width:0.5;stroke-miterlimit:10;" points="25.4,11.6 25.4,6.4 12.9,6.4 		"/>
		<circle style="fill:none;stroke:#443642;stroke-width:0.5;stroke-miterlimit:10;" cx="11" cy="6.3" r="1.9"/>
		<polyline style="fill:none;stroke:#443642;stroke-width:0.5;stroke-miterlimit:10;" points="47.6,28.5 47.6,37.7 75.1,37.7 		"/>
		<circle style="fill:none;stroke:#443642;stroke-width:0.5;stroke-miterlimit:10;" cx="77" cy="37.8" r="1.9"/>
		<polyline style="fill:none;stroke:#443642;stroke-width:0.5;stroke-miterlimit:10;" points="90.4,25.5 95.5,25.5 95.5,13.2 		"/>
		<circle style="fill:none;stroke:#443642;stroke-width:0.5;stroke-miterlimit:10;" cx="95.5" cy="11.3" r="1.9"/>
		<polyline style="fill:none;stroke:#443642;stroke-width:0.5;stroke-miterlimit:10;" points="69.4,25.5 11.6,25.5 11.6,31.7 
			6.4,31.7 		"/>
		<circle style="fill:none;stroke:#443642;stroke-width:0.5;stroke-miterlimit:10;" cx="4.5" cy="31.7" r="1.9"/>
		<line style="fill:none;stroke:#443642;stroke-width:0.5;stroke-miterlimit:10;" x1="47.6" y1="37.2" x2="47.6" y2="41.8"/>
		<circle style="fill:none;stroke:#443642;stroke-width:0.5;stroke-miterlimit:10;" cx="47.6" cy="43.7" r="1.9"/>
	</g>
	<g>
		<g id="_x38_P7adl.tif">
			<g>
				<path style="fill:#E11B64;" d="M54.6,31.5C54.6,31.5,54.6,31.6,54.6,31.5c0,0.2-0.1,0.3-0.3,0.3c-0.2,0.1-0.3,0.1-0.5,0.2
					c0,0,0,0,0,0c0,0,0,0,0,0c0,0,0,0,0,0c-0.1-0.2-0.1-0.3-0.2-0.5c0-0.1,0-0.1-0.1-0.2c0,0,0,0,0,0c0.1,0,0.2-0.1,0.3-0.1
					c0.1,0,0.1,0,0.2-0.1c0.2-0.1,0.5,0.1,0.5,0.3c0,0,0,0,0,0C54.6,31.5,54.6,31.5,54.6,31.5z"/>
				<path style="fill:#E8A823;" d="M52.4,29.9c-0.1-0.2-0.1-0.3-0.2-0.5c0-0.1,0-0.2,0-0.3c0.1-0.1,0.1-0.2,0.3-0.2c0,0,0,0,0,0
					c0,0,0.1,0,0.1,0c0,0,0.1,0,0.1,0c0.1,0,0.2,0.1,0.2,0.2c0.1,0.2,0.1,0.3,0.2,0.5c0,0,0,0,0,0c0,0,0,0,0,0c0,0,0,0,0,0
					c-0.1,0-0.3,0.1-0.4,0.1C52.6,29.9,52.5,29.9,52.4,29.9z"/>
				<path style="fill:#3BBA92;" d="M52,33.5C52,33.5,52,33.5,52,33.5c-0.2,0-0.3-0.1-0.3-0.2c-0.1-0.2-0.1-0.3-0.2-0.5c0,0,0,0,0,0
					c0,0,0,0,0,0c0.2-0.1,0.5-0.2,0.7-0.2c0,0,0,0,0,0c0,0.1,0.1,0.2,0.1,0.3c0,0.1,0.1,0.1,0.1,0.2c0,0.2-0.1,0.4-0.3,0.4
					c0,0,0,0,0,0C52.1,33.5,52.1,33.5,52,33.5z"/>
				<path style="fill:#6BCBDC;" d="M51,31.2c-0.1,0.1-0.3,0.1-0.4,0.2c-0.2,0.1-0.3,0-0.4-0.1c-0.1-0.1-0.1-0.1-0.1-0.2c0,0,0,0,0,0
					c0,0,0-0.1,0-0.1c0,0,0-0.1,0-0.1c0-0.1,0.1-0.2,0.3-0.2c0.1-0.1,0.3-0.1,0.4-0.2c0,0,0,0,0,0C50.9,30.7,51,31,51,31.2
					C51,31.2,51,31.2,51,31.2z"/>
				<path style="fill:#E8A823;" d="M53.7,31.3C53.6,31.3,53.6,31.3,53.7,31.3C53.6,31.3,53.6,31.3,53.7,31.3
					c-0.2,0.1-0.3,0.1-0.4,0.1c-0.1,0-0.2,0.1-0.3,0.1c0-0.1-0.1-0.3-0.1-0.4c-0.1-0.2-0.1-0.3-0.2-0.5c0,0,0,0,0,0
					c0.2-0.1,0.5-0.2,0.7-0.2c0,0,0,0,0,0c0.1,0.2,0.1,0.3,0.2,0.5C53.6,31,53.6,31.1,53.7,31.3z"/>
				<path style="fill:#6BCBDC;" d="M53.4,30.4C53.3,30.4,53.3,30.4,53.4,30.4C53.3,30.4,53.3,30.4,53.4,30.4
					c-0.1-0.1-0.1-0.3-0.1-0.4c0-0.1-0.1-0.2-0.1-0.3c0,0,0,0,0,0c0.1,0,0.2-0.1,0.2-0.1c0.1,0,0.2-0.1,0.3-0.1
					c0.2-0.1,0.4,0.1,0.5,0.3c0,0.2-0.1,0.4-0.3,0.4C53.7,30.3,53.5,30.3,53.4,30.4C53.4,30.4,53.4,30.4,53.4,30.4z"/>
				<path style="fill:#E11A64;" d="M52.3,32.6C52.3,32.5,52.3,32.5,52.3,32.6C52.3,32.5,52.3,32.5,52.3,32.6
					c-0.1-0.2-0.1-0.3-0.1-0.4c0-0.1-0.1-0.2-0.1-0.3c0,0,0,0,0,0c0,0,0,0,0,0c0.1,0,0.2-0.1,0.3-0.1c0.2-0.1,0.4-0.1,0.5-0.2
					c0,0.1,0.1,0.2,0.1,0.3c0,0.1,0.1,0.3,0.1,0.4C52.9,32.3,52.6,32.4,52.3,32.6C52.3,32.5,52.3,32.5,52.3,32.6z"/>
				<path style="fill:#E8A823;" d="M53.9,32C53.9,32,53.9,32,53.9,32c0,0.1,0.1,0.2,0.1,0.3c0,0.1,0.1,0.1,0.1,0.2
					c0,0.2-0.1,0.4-0.3,0.4c-0.2,0.1-0.4,0-0.5-0.2c-0.1-0.2-0.1-0.3-0.2-0.5c0,0,0,0,0,0c0.1-0.1,0.3-0.1,0.4-0.2
					C53.7,32.1,53.8,32,53.9,32z"/>
				<path style="fill:#CC2227;" d="M53.9,32c-0.1,0-0.2,0.1-0.2,0.1c-0.1,0.1-0.3,0.1-0.4,0.2c0,0,0,0,0,0c0,0,0,0,0,0
					c0-0.1-0.1-0.3-0.1-0.4c0-0.1-0.1-0.2-0.1-0.3c0,0,0,0,0,0c0.1,0,0.2-0.1,0.3-0.1c0.1,0,0.3-0.1,0.4-0.1c0,0,0,0,0,0
					c0,0.1,0.1,0.1,0.1,0.2C53.8,31.7,53.8,31.8,53.9,32C53.9,32,53.9,32,53.9,32z"/>
				<path style="fill:#6BCBDC;" d="M51.5,30.2c0.1,0,0.2-0.1,0.2-0.1c0.2-0.1,0.4-0.1,0.6-0.2c0,0,0,0,0,0c0,0.1,0.1,0.2,0.1,0.3
					c0,0.1,0.1,0.3,0.1,0.4c-0.3,0.1-0.6,0.2-0.8,0.3c0,0,0,0,0,0c0,0,0,0,0,0c0,0,0,0,0,0c-0.1-0.1-0.1-0.3-0.2-0.4
					C51.6,30.4,51.5,30.3,51.5,30.2C51.5,30.2,51.5,30.2,51.5,30.2z"/>
				<path style="fill:#3BBA92;" d="M51.5,30.2C51.5,30.2,51.5,30.2,51.5,30.2C51.5,30.2,51.5,30.2,51.5,30.2
					c-0.2,0.1-0.4,0.1-0.6,0.2c0,0-0.1,0-0.1,0c0-0.1-0.1-0.2-0.1-0.4c0-0.1,0-0.1-0.1-0.2c0-0.2,0.1-0.4,0.3-0.4
					c0.2,0,0.4,0.1,0.4,0.3C51.4,29.9,51.5,30.1,51.5,30.2z"/>
				<path style="fill:#63863B;" d="M52.6,30.7c0-0.1-0.1-0.3-0.1-0.4c0-0.1-0.1-0.2-0.1-0.3c0,0,0,0,0,0c0.1,0,0.2-0.1,0.3-0.1
					c0.1,0,0.3-0.1,0.4-0.1c0,0,0,0,0,0c0,0.1,0.1,0.2,0.1,0.3c0,0.1,0.1,0.3,0.1,0.4c0,0,0,0,0,0C53.1,30.5,52.9,30.6,52.6,30.7
					C52.6,30.6,52.6,30.6,52.6,30.7C52.6,30.7,52.6,30.7,52.6,30.7z"/>
				<path style="fill:#16947E;" d="M50.8,30.5c0,0,0.1,0,0.1,0c0.2-0.1,0.4-0.1,0.6-0.2c0,0,0,0,0,0c0,0.1,0.1,0.2,0.1,0.2
					c0.1,0.1,0.1,0.3,0.2,0.4c0,0,0,0,0,0c0,0,0,0,0,0c-0.2,0.1-0.4,0.1-0.6,0.2c0,0-0.1,0-0.1,0C51,31,50.9,30.7,50.8,30.5
					C50.8,30.5,50.8,30.5,50.8,30.5C50.8,30.5,50.8,30.5,50.8,30.5z"/>
				<path style="fill:#3BBA92;" d="M51,31.2C51.1,31.2,51.1,31.2,51,31.2c0.3-0.1,0.5-0.2,0.7-0.2c0,0,0,0,0,0c0,0,0,0,0,0
					c0,0.1,0.1,0.2,0.1,0.4c0.1,0.2,0.1,0.3,0.2,0.5c0,0,0,0,0,0c0,0,0,0,0,0c-0.1,0-0.3,0.1-0.4,0.1c-0.1,0-0.2,0.1-0.3,0.1
					c0,0,0,0,0,0c0-0.1-0.1-0.3-0.1-0.4C51.1,31.5,51.1,31.4,51,31.2C51,31.2,51,31.2,51,31.2C51,31.2,51,31.2,51,31.2z"/>
				<path style="fill:#E11B64;" d="M51.3,32.1C51.3,32.1,51.3,32.1,51.3,32.1c0,0.1,0.1,0.3,0.1,0.4c0,0.1,0.1,0.2,0.1,0.3
					c-0.2,0.1-0.3,0.1-0.5,0.2c-0.2,0.1-0.4,0-0.5-0.2c-0.1-0.2,0-0.4,0.2-0.5C51,32.2,51.2,32.1,51.3,32.1z"/>
				<path style="fill:#371339;" d="M51.6,32.8c0-0.1-0.1-0.2-0.1-0.3c0-0.1-0.1-0.3-0.1-0.4c0.1,0,0.2-0.1,0.3-0.1
					c0.1,0,0.3-0.1,0.4-0.1c0,0,0,0,0,0c0,0.1,0.1,0.2,0.1,0.3c0,0.1,0.1,0.3,0.1,0.4c0,0,0,0,0,0C52.1,32.6,51.8,32.7,51.6,32.8
					C51.6,32.8,51.6,32.8,51.6,32.8C51.6,32.8,51.6,32.8,51.6,32.8z"/>
			</g>
		</g>
		<text transform="matrix(1 0 0 1 54.8109 32.9367)" style="fill:#443642; font-family:'OpenSans-Bold'; font-size:5.3531px;">community</text>
	</g>
</g>
</svg>
