<?xml version="1.0" encoding="UTF-8" standalone="no"?>
<!-- Created with Inkscape (http://www.inkscape.org/) -->

<svg
   xmlns:dc="http://purl.org/dc/elements/1.1/"
   xmlns:cc="http://creativecommons.org/ns#"
   xmlns:rdf="http://www.w3.org/1999/02/22-rdf-syntax-ns#"
   xmlns:svg="http://www.w3.org/2000/svg"
   xmlns="http://www.w3.org/2000/svg"
   xmlns:sodipodi="http://sodipodi.sourceforge.net/DTD/sodipodi-0.dtd"
   xmlns:inkscape="http://www.inkscape.org/namespaces/inkscape"
   width="210mm"
   height="297mm"
   viewBox="0 0 744.09448819 1052.3622047"
   id="svg3352"
   version="1.1"
   inkscape:version="0.91 r13725"
   sodipodi:docname="Palmetto Tree South Carolina Palm Beach Moon.svg">
  <defs
     id="defs3354" />
  <sodipodi:namedview
     id="base"
     pagecolor="#ffffff"
     bordercolor="#666666"
     borderopacity="1.0"
     inkscape:pageopacity="0.0"
     inkscape:pageshadow="2"
     inkscape:zoom="0.35"
     inkscape:cx="-129.28571"
     inkscape:cy="520"
     inkscape:document-units="px"
     inkscape:current-layer="layer1"
     showgrid="false"
     inkscape:window-width="1366"
     inkscape:window-height="705"
     inkscape:window-x="-8"
     inkscape:window-y="-8"
     inkscape:window-maximized="1" />
  <metadata
     id="metadata3357">
    <rdf:RDF>
      <cc:Work
         rdf:about="">
        <dc:format>image/svg+xml</dc:format>
        <dc:type
           rdf:resource="http://purl.org/dc/dcmitype/StillImage" />
        <dc:title></dc:title>
      </cc:Work>
    </rdf:RDF>
  </metadata>
  <g
     inkscape:label="1. réteg"
     inkscape:groupmode="layer"
     id="layer1">
    <path
       style="clip-rule:evenodd;fill:#000000;fill-rule:evenodd;image-rendering:optimizeQuality;shape-rendering:geometricPrecision;text-rendering:geometricPrecision"
       inkscape:connector-curvature="0"
       id="path10"
       d="m 211.05156,604.8223 c -1.90228,0.96909 -2.72779,1.57925 -5.67093,-5.02487 -1.50746,-3.33795 -4.95308,-8.29103 -5.38379,-11.48541 -1.25622,-9.65493 7.35785,-12.27504 11.30596,-18.41256 1.25622,-1.93817 0.0359,-3.87633 -1.47157,-5.13255 -9.54725,-8.0039 -10.30098,-1.97406 -16.0078,3.94811 -1.25622,1.29211 -3.30206,1.328 -4.59417,0.10768 -8.32692,-7.82444 -29.3596,-32.76933 -38.18901,-35.35355 -3.984,-1.14855 -8.57817,5.81449 -9.83439,9.15244 -0.4307,1.07676 -0.25124,2.2253 0.4666,3.15849 8.21925,10.69579 20.13537,19.20218 28.78532,29.3237 4.52239,5.31201 9.29601,10.80348 13.8184,16.51029 5.02487,6.31698 8.72174,13.7825 0.96908,17.94597 -1.25622,0.68194 -2.72779,0.50248 -3.76865,-0.4666 -7.1425,-6.53233 -21.89408,-26.95484 -27.1343,-32.08738 -4.0199,-3.91222 -11.91612,4.73773 -7.17839,12.84931 6.38877,10.94704 23.61689,26.91895 28.28284,39.08631 0.35892,0.96908 0.28714,1.93816 -0.25124,2.83546 -1.328,2.26119 -4.63006,8.29104 -7.64498,8.29104 -4.48649,0 -10.73169,-14.42856 -18.08953,-19.38164 -1.18444,-0.78963 -2.62012,-0.75373 -3.76866,0.0718 -6.92714,5.06076 -3.48151,10.94704 0.35892,19.74056 1.50746,3.44563 6.60412,13.81839 9.69082,18.52024 0.75373,1.11265 2.00995,1.65103 3.33795,1.39978 3.84044,-0.71784 3.5892,-2.97903 7.17839,-4.27114 1.47157,-0.53838 3.05081,0.0359 3.87633,1.3639 4.63006,7.57319 0.4307,12.02379 -4.55828,17.26401 -14.75158,15.50532 -14.64391,14.85926 -0.75373,31.72847 2.33298,2.83546 10.58812,8.9012 13.56715,11.8443 2.97903,2.9432 -1.54335,11.5931 -5.52736,10.6958 -7.5373,-1.6869 -17.08456,-12.16733 -23.15029,-17.26399 -4.95309,-4.16346 -10.87526,8.21929 -4.12757,16.11549 8.21925,9.6549 20.35072,16.2231 22.03764,30.6517 0.64606,5.7427 0.17946,13.7825 -0.93319,19.7047 -0.53838,2.9072 -4.52238,3.5892 -6.02984,1.0767 -0.68195,-1.1126 -1.18444,-2.5842 -2.18941,-4.5224 -2.62011,-5.1325 -5.67093,-12.9211 -9.18833,-18.592 -1.65103,-2.656 -5.88628,-1.5792 -6.06574,1.5434 -0.28714,5.0966 0.0718,10.7676 0.17946,15.5412 0.25124,8.8653 2.72779,12.7416 5.81449,18.3049 3.91222,7.0707 11.44953,18.7714 11.41364,28.2469 0,2.979 -3.80455,4.3788 -5.74271,2.1535 -1.57925,-1.8305 -4.12758,-5.5991 -7.1425,-4.8454 -0.93319,0.2154 -1.61513,0.7896 -2.08173,1.6152 -4.84541,8.8294 5.70682,18.3766 11.41363,26.883 3.51741,5.2402 6.13752,9.5114 8.54228,14.6798 2.90725,6.2093 5.49147,10.9112 -1.39978,14.5003 -6.13752,3.1944 -12.09558,-15.4694 -17.15634,-20.9608 -1.7946,-1.9382 -5.13255,-0.9691 -5.63504,1.6151 -1.57924,8.4705 3.62509,19.2381 7.50142,25.8063 9.00887,15.29 2.51243,12.3109 6.10162,19.9918 3.1226,6.6759 10.65991,10.5522 12.4545,16.8692 0.93319,3.2303 -3.23027,5.5991 -5.52735,3.1585 -3.91222,-4.1276 -5.99396,-10.8394 -12.9211,-10.4446 -1.86638,0.1077 -3.26616,1.7946 -3.0867,3.6251 1.50746,13.5313 23.86813,31.1542 20.96088,44.4342 -0.50248,2.333 -3.37384,3.3739 -5.27611,1.8664 -6.56822,-5.312 -12.27504,-25.4474 -18.6638,-23.3656 -1.04087,0.3589 -1.7946,1.1126 -2.11763,2.1894 -6.10163,20.2789 30.36457,43.9317 16.83332,50.8947 -8.54228,4.3788 -15.5771,-15.9719 -21.7864,-16.4026 l -4.27114,-0.2871 c -1.25622,3.3738 0.8614,4.7377 -1.11265,6.7477 -4.05579,4.1275 -9.94207,-6.5683 -23.86814,-2.2612 -0.17946,2.4406 0.8973,4.6659 -1.43567,6.1016 -2.76368,1.7228 -4.77363,-1.5433 -7.860338,-2.5124 -5.52735,-1.7228 -4.05579,3.1226 -4.8813,5.8863 l -0.64605,2.1535 c -0.25125,-0.1077 -10.58812,-8.5782 -12.84932,4.0916 -1.07675,5.9581 -9.90617,-0.9332 -14.78747,4.8813 -2.33298,2.76374 0.64605,4.77364 2.54833,6.46064 -3.26617,2.6201 -8.21926,2.2253 -8.14747,5.9221 0,1.4357 0.8973,2.6201 2.2253,3.0867 27.31376,9.0448 152.612478,5.2044 180.105698,5.2403 6.89125,0 45.72632,1.0767 54.91466,-4.5583 1.50746,-0.9332 2.00994,-2.8714 1.14854,-4.4147 -2.11763,-3.6969 -9.04477,-4.3071 -8.61407,-8.3628 0.17946,-1.7946 0.71784,-3.76874 -0.75373,-5.16854 -2.1894,-2.0458 -5.09665,0.323 -10.55222,0.072 0.35892,-2.0817 1.328,-4.7377 -0.64606,-6.2811 -2.87135,-2.2611 -6.13752,1.7588 -9.51136,2.656 -5.24022,1.3639 -3.62508,-7.9321 -8.93709,-6.2451 -4.55828,1.4356 -11.62899,8.2551 -15.07461,5.635 -7.60909,-5.7786 -1.18443,-2.2971 -11.48542,-6.0299 0.57427,-3.4815 3.23027,-5.2043 1.11265,-7.6449 -1.00497,-1.1486 -2.62011,-1.4716 -3.984,-0.7897 -7.32196,3.7687 -13.71072,10.6958 -15.93602,3.5892 -2.44065,-7.8244 6.06574,-14.7874 5.81449,-22.3606 -3.76865,-0.9332 -1.72281,-0.6461 -3.76865,0.2871 l -4.34292,1.9741 c 0.4307,-6.0658 2.26119,-11.7726 3.80454,-16.8693 1.29211,-4.2352 3.91222,-8.5422 2.11762,-11.8802 -1.22032,-2.2612 -4.59416,-2.2253 -5.7786,0.036 l -1.72281,4.2353 -8.39871,17.2281 c -1.07676,2.2253 -4.73773,3.1944 -6.35287,-1.1485 l -6.89125,-18.3767 c -4.4506,-11.1983 -7.07071,-11.8444 -2.36887,-19.0945 1.29211,-1.9741 4.27114,-1.9741 5.52736,0.036 2.97903,4.7018 4.63006,15.3976 9.26012,15.1105 1.14854,-0.072 2.11762,-0.682 2.69189,-1.6869 4.30703,-7.8963 10.12152,-24.6219 11.95201,-29.6827 3.80455,-10.5522 13.24413,-25.3038 0.35892,-29.8621 -4.4506,-1.5792 -8.50639,7.0349 -9.87028,9.7268 l -8.07568,16.1154 c -1.65103,2.4048 -1.14854,1.9023 -1.72282,2.1177 -3.91222,1.4356 -11.0906,-7.4656 -11.01882,-10.0857 0.17946,-7.9321 6.2452,-9.942 3.73276,-13.5312 -2.36886,-3.4098 -6.02984,-6.6041 -4.98898,-11.3778 1.07676,-5.0607 6.81947,-6.9989 3.80455,-12.9211 -2.79957,-5.4914 -10.04974,-11.5572 -12.77753,-16.7974 -5.49146,-10.6599 5.67093,-11.9161 13.63894,-4.0917 26.12932,25.7345 2.1894,28.6059 10.30098,36.0355 4.09168,3.7328 7.5732,-5.9221 9.47547,-9.296 6.6759,-11.9161 15.5771,-30.3287 15.93602,-45.5827 0.0718,-2.4766 -2.62012,-4.1276 -4.80952,-2.9791 -4.23525,2.2612 -6.81947,7.4656 -9.76261,10.9112 -2.15351,2.5124 -1.79459,2.6919 -3.66097,3.1585 -1.25622,0.323 -2.47655,-0.1077 -3.30206,-1.0768 -6.85536,-8.2551 -8.93709,-6.7477 -8.79353,-15.3976 0.0359,-2.7278 3.37385,-4.1994 5.41969,-2.4048 1.39978,1.2203 4.77362,1.651 6.10162,-0.6101 7.39374,-12.634 12.34683,-26.8113 16.941,-41.0604 1.43567,-4.4506 3.44562,-9.4037 0.17946,-12.2751 -6.89126,-5.9939 -12.95699,20.7097 -24.37063,29.6827 -2.15351,1.6869 -5.41968,0.036 -5.312,-2.7278 0.25124,-5.7427 2.62011,-8.7576 5.70682,-13.4595 2.90724,-4.3788 5.63503,-10.301 8.39871,-15.7565 3.73276,-7.4656 13.24412,-20.9609 8.61406,-29.61088 -1.07676,-2.04584 -3.984,-2.29708 -5.41968,-0.53838 -6.13752,7.53726 -11.23417,23.54506 -16.15137,30.04156 -2.36887,3.1226 -6.89125,0.6101 -5.81449,-4.1994 2.15351,-9.3678 7.5373,-16.5462 10.12152,-25.55502 2.36887,-8.25515 -13.24412,-15.00283 -17.87418,-22.00176 -6.53233,-9.87028 6.17341,-20.74553 8.75763,-13.96196 2.54833,6.71179 6.85536,13.13645 11.1265,17.19224 5.27611,5.06076 11.27007,-11.1265 11.73666,-13.45948 0.86141,-4.16346 -6.60411,-10.94703 -8.47049,-15.28996 -2.90725,-6.74768 3.76865,-11.59309 7.25017,-15.43353 3.984,-4.41471 4.73773,-6.2093 4.98897,-11.16239 0.14357,-3.05081 -3.76865,-4.63006 -5.7427,-2.29708 -2.47655,2.87135 -6.38877,8.82941 -9.61904,8.11157 -1.00498,-0.21535 -1.7946,-0.8614 -2.26119,-1.79459 -3.69687,-7.75266 5.13254,-15.00283 9.72671,-19.95592 5.20433,-5.63503 13.53126,-9.04476 9.11655,-20.06358 -0.71784,-1.75871 -2.83546,-2.54833 -4.52238,-1.68692 z m -2.51244,-188.79155 c 12.05969,-10.73169 25.55506,-16.54618 41.06037,-15.50531 0.86141,0.0718 1.50746,0.8973 1.36389,1.7587 -1.47157,8.39871 -28.21105,9.18834 -47.84394,37.7942 -0.8973,1.29211 0.64606,2.94314 2.00995,2.11763 11.73666,-7.1066 23.93992,-12.0238 37.21993,-12.20326 0.82551,0 1.54335,0.68195 1.50746,1.54335 -0.10767,3.87633 -0.8973,7.42963 -2.04584,10.76758 -0.17946,0.53838 -0.64605,0.93319 -1.22032,1.00498 -46.40827,6.06573 -73.32722,28.17516 -83.66409,63.99531 -0.4666,1.57924 1.72281,2.62011 2.656,1.25622 4.34292,-6.35287 8.82941,-12.16737 13.67482,-16.58207 1.14855,-1.04087 2.97903,0.21535 2.40476,1.65102 -3.51741,8.79353 -6.31698,18.05364 -8.57817,27.74447 1.14854,-1.11265 2.29709,-2.2253 3.44563,-3.33795 0.93319,-0.8973 2.54833,-0.21536 2.51243,1.07675 -0.0359,5.88628 0.71784,11.52131 2.2253,16.941 0.39481,1.36389 2.33298,1.43567 2.83547,0.10767 0.75373,-1.97406 1.61513,-3.87633 2.69189,-5.63503 0.71784,-1.18444 2.62011,-0.75373 2.76368,0.61016 0.53838,5.09665 1.57924,10.12152 3.26616,15.03872 0.4666,1.39978 2.58422,1.25622 2.87136,-0.17946 2.08173,-10.40866 4.98898,-19.63289 9.47547,-26.48824 0.75373,-1.14855 2.62011,-0.71784 2.72778,0.68194 0.82552,8.79352 2.04584,17.40759 4.27114,25.59095 0.39482,1.47157 2.58422,1.39978 2.90725,-0.10768 0.4666,-2.29708 1.07676,-4.52238 1.90227,-6.6759 0.53838,-1.36389 2.58422,-1.18443 2.87136,0.28714 0.50248,2.79957 1.22032,5.56325 2.11762,8.29103 0.4666,1.43568 2.62011,1.29211 2.87136,-0.17945 1.7587,-9.47547 4.16346,-17.94597 7.68087,-24.72954 0.53838,-1.04087 2.00995,-1.07676 2.62011,-0.0718 7.17839,12.05969 9.58314,28.89301 11.80844,45.90578 0.17946,1.43568 2.18941,1.7587 2.83547,0.46659 4.59416,-9.43957 7.50141,-20.67375 8.11157,-34.45625 0.0359,-1.18443 1.47157,-1.83049 2.40476,-1.11265 8.93709,7.07071 10.44455,22.39657 8.97299,41.06037 -0.10768,1.47157 1.79459,2.18941 2.69189,1.00497 20.56608,-27.60089 23.86813,-57.85779 10.58812,-90.6989 -1.39979,-3.44563 3.05081,-4.66595 4.52238,-2.11763 4.95309,8.68585 8.32693,19.63289 11.19828,31.29777 0.28714,1.18443 1.86638,1.54335 2.62012,0.57427 3.19438,-3.98401 6.53233,-7.75266 10.08563,-11.16239 2.00995,-1.93817 4.66595,-0.82552 2.58422,2.26119 -13.10056,19.09451 -18.59202,38.15312 -17.62294,57.24763 0.0718,1.54335 2.2253,1.93816 2.87135,0.53838 4.4506,-10.08564 9.40369,-18.87916 15.03872,-25.91398 0.96908,-1.22032 2.94314,-0.25124 2.62011,1.25622 -2.29708,10.62401 -3.80454,21.24802 -4.73773,31.83614 -0.14357,1.68692 2.33297,2.2253 2.90724,0.64606 3.23028,-9.08066 6.78358,-17.51527 11.09061,-24.33473 0.75373,-1.18444 2.656,-0.71784 2.76368,0.68194 0.53838,7.96801 -0.14357,16.25905 -1.43568,24.76544 -0.25124,1.57924 1.97406,2.36886 2.76368,0.96908 6.35287,-11.16239 10.98293,-28.24695 14.35677,-49.49497 0.25125,-1.68692 2.79957,-1.61514 2.94314,0.0718 1.36389,13.38769 -1.36389,33.88198 -5.3479,56.60157 -0.28713,1.65103 2.04584,2.40476 2.79957,0.93319 3.76866,-7.28606 6.53234,-15.00282 8.72174,-23.00672 0.35892,-1.29211 2.15352,-1.47157 2.76368,-0.28714 6.35287,12.05969 10.04974,26.99073 11.95201,43.82405 0.17946,1.68692 2.72779,1.72281 2.94314,0.0359 2.47655,-17.94596 2.65601,-36.50209 0.0718,-55.74017 -0.17946,-1.47157 1.68692,-2.29708 2.62011,-1.14854 5.67092,6.92714 8.64995,18.26899 9.22422,33.63074 0.0718,1.57924 2.33298,1.97406 2.87136,0.46659 3.19438,-8.54227 4.98898,-18.37666 5.70681,-29.14424 0.0718,-1.25622 1.68693,-1.86638 2.54833,-0.93319 3.91222,4.05579 7.35785,8.64995 10.48045,13.60304 0.82551,1.29211 2.90724,0.57427 2.72778,-0.96908 -1.29211,-11.5572 -4.30703,-23.18619 -10.01385,-34.92285 -0.0359,-0.10768 -0.10767,-0.17946 -0.17946,-0.28714 -2.40476,-3.05081 0.43071,-7.32195 2.90725,-4.55827 9.36779,10.48044 15.68477,22.61191 20.81732,35.38944 0.61016,1.54335 3.01492,1.00498 2.87135,-0.68195 -0.78962,-10.1933 -2.44065,-20.4225 -5.06076,-30.72349 -0.39481,-1.50746 1.65103,-2.51243 2.62011,-1.29211 2.62011,3.33795 5.24022,7.10661 7.78855,11.09061 0.8973,1.39978 3.08671,0.4307 2.6919,-1.18443 -17.51528,-68.87664 -58.89867,-104.91214 -135.95864,-91.81158 -8.18336,1.36389 -3.55331,-8.0039 -2.58422,-13.02877 0.21535,-1.07676 1.50746,-1.57925 2.36886,-0.8973 2.36887,1.83049 4.70185,3.87633 6.96304,6.13752 1.00497,1.00497 2.79957,0.0718 2.51243,-1.328 -1.14854,-5.95806 -3.30205,-11.77255 -6.2093,-17.47937 -0.75373,-1.47157 1.22033,-2.90725 2.36887,-1.72281 3.51741,3.5533 6.42465,7.5373 8.64995,11.91612 0.61016,1.18443 2.36887,1.00497 2.76368,-0.25125 1.61514,-5.59914 1.39979,-11.16239 -0.10768,-16.76153 -0.35891,-1.39978 1.32801,-2.44065 2.40476,-1.50746 5.31201,4.59417 8.21926,10.91115 10.2292,17.94597 0.43071,1.50746 2.65601,1.36389 2.90725,-0.17946 1.97406,-12.41861 -2.18941,-25.55506 -13.96196,-39.5888 -0.0718,-0.0718 -0.10768,-0.10768 -0.17946,-0.17946 -2.87135,-2.44065 0.0359,-4.16347 2.33298,-2.94314 17.15634,9.11655 27.13429,22.57602 33.48717,38.29669 0.46659,1.18443 2.1894,1.22032 2.72778,0.0718 2.54833,-5.41968 4.48649,-11.59309 6.10163,-18.19721 0.35892,-1.54335 2.656,-1.47156 2.90725,0.10768 1.54335,8.97298 1.29211,18.16132 0.17946,27.42143 -0.14357,1.3639 1.50746,2.18941 2.47654,1.25622 8.25514,-7.57319 13.60304,-17.94596 17.29991,-29.86208 0.4666,-1.47157 2.656,-1.328 2.90725,0.21535 2.26119,14.17731 3.05081,28.67765 3.19438,43.32156 0,1.57924 2.29708,2.00995 2.87135,0.53838 3.48152,-8.68585 6.28109,-18.05364 8.64996,-27.88803 0.32303,-1.43568 2.36887,-1.50746 2.87135,-0.14357 3.30206,9.47547 5.85039,20.31483 7.35785,33.05647 0.17946,1.65103 2.58422,1.7587 2.94314,0.14356 0.96908,-4.59416 1.61513,-10.01384 1.83048,-16.4385 0.0718,-1.54335 2.2612,-1.97406 2.87136,-0.53838 4.91719,11.62899 6.35287,27.81625 6.31698,45.86989 0,1.47157 2.00995,2.04584 2.76368,0.78962 6.24519,-10.30098 5.99395,-38.29669 4.37881,-69.98926 -0.0718,-1.50746 2.00995,-2.15352 2.76368,-0.82552 9.08066,15.21818 13.06466,36.17907 13.45948,57.49887 0.0359,1.57925 2.26119,2.00995 2.87135,0.53838 5.7786,-14.06963 5.92217,-32.4463 -0.39481,-52.22275 -0.4666,-1.43568 1.328,-2.58422 2.44065,-1.54336 7.93212,7.46552 14.2491,16.15137 18.52024,26.34468 0.64605,1.54335 3.01492,0.93319 2.87135,-0.71784 -0.82551,-8.21925 -3.05081,-16.61796 -6.71179,-25.23203 -0.61016,-1.39978 1.18443,-2.72778 2.33297,-1.72281 3.19439,2.72779 6.02985,5.7786 8.61407,9.08066 0.8973,1.14854 2.79957,0.39481 2.656,-1.07676 -1.04087,-10.44455 -5.16844,-20.67375 -10.83936,-30.79527 -0.78962,-1.39979 1.04086,-2.90725 2.26119,-1.86638 1.50746,1.25621 2.87135,2.62011 4.12757,4.12757 0.96908,1.14854 2.87136,0.25124 2.62011,-1.22033 -0.4307,-2.47654 -1.22032,-4.91719 -2.29708,-7.39374 -0.57427,-1.328 0.93319,-2.62011 2.15351,-1.86638 6.31698,3.91222 11.48542,8.97299 15.75656,14.96694 0.86141,1.22032 2.83546,0.46659 2.6919,-1.00498 -1.43568,-14.10552 -7.21428,-25.73451 -17.47937,-34.88695 -1.18444,-1.04087 -0.0718,-3.01492 1.43567,-2.54833 3.1226,0.96908 6.17342,2.11763 9.22423,3.44563 1.22033,0.53838 2.47654,-0.71784 1.97406,-1.93817 -8.0039,-19.0945 -31.44133,-27.565 -65.75402,-28.56997 -1.68692,-0.0359 -1.93816,-2.54833 -0.28714,-2.94314 4.4506,-1.04087 9.04477,-1.90227 13.71072,-2.65601 1.61514,-0.25124 1.65103,-2.62011 0.0359,-2.94313 -6.60411,-1.29211 -13.42358,-1.97406 -20.4584,-1.90228 -1.61513,0.0359 -2.08173,-2.26119 -0.57427,-2.87135 6.85536,-2.79957 14.50034,-3.76865 22.28889,-4.41471 1.57925,-0.14357 1.86638,-2.40476 0.35892,-2.90724 -8.14747,-2.72779 -17.01277,-4.27114 -26.88305,-4.19936 -1.29211,0 -1.97406,-1.61514 -1.07676,-2.54833 2.00995,-2.04584 4.19935,-3.84043 6.53233,-5.45557 1.29211,-0.8973 0.4307,-2.94314 -1.07676,-2.69189 -2.62011,0.4307 -5.27611,1.07675 -8.03979,1.97405 -1.22033,0.39481 -2.36887,-0.8973 -1.83049,-2.04584 1.11265,-2.36887 2.54833,-4.70184 4.23525,-6.99892 0.78962,-1.07676 -0.21535,-2.62012 -1.50746,-2.33298 -7.82444,1.68692 -10.73169,6.92714 -12.66985,5.06076 -1.3639,-1.328 1.00497,-2.62011 -0.39482,-3.91222 -0.50248,-0.46659 -1.25621,-0.53838 -1.83048,-0.17946 -7.28607,4.70184 -8.64996,14.60802 -14.03375,18.84327 -2.36887,1.83048 -5.67092,-6.10163 -23.32975,0.50248 -0.50249,0.17946 -1.04087,0.10768 -1.47157,-0.25124 -3.37384,-2.72779 -8.54228,-8.4705 -9.7985,-12.16737 -1.50746,-4.37881 0.82551,-3.84043 5.3479,-4.23524 6.31698,-0.53838 9.61904,-1.43568 11.66488,3.12259 0.61016,1.3639 2.656,1.04087 2.83546,-0.4307 0.57427,-4.98898 -0.17946,-10.08563 -1.83049,-15.25407 -0.4307,-1.29211 1.04087,-2.44065 2.18941,-1.72281 5.7786,3.5533 9.51136,8.97298 10.69579,16.72564 0.21535,1.47157 2.29709,1.72281 2.87136,0.32303 2.76368,-6.99893 1.7587,-12.0238 2.11762,-13.56715 3.76865,-16.15137 54.12503,-8.93709 79.85954,18.84326 2.72779,2.94314 7.71677,-0.10768 4.73774,-4.70184 -15.75656,-24.26295 -46.04935,-39.48113 -85.42279,-48.9566 -1.39979,-0.32302 -1.50746,-2.36886 -0.14357,-2.87135 4.55827,-1.61514 9.94206,-2.36887 16.0078,-2.40476 1.43568,0 2.00995,-1.93816 0.78962,-2.72779 -2.36887,-1.54335 -5.02487,-2.79957 -8.07568,-3.76865 -1.39979,-0.46659 -1.328,-2.51243 0.10767,-2.87135 3.48152,-0.86141 7.25017,-1.32801 11.23418,-1.32801 1.47157,0 2.00995,-2.00994 0.75373,-2.76367 -24.0117,-14.32088 -60.01131,-8.36282 -106.59903,15.50531 -1.3639,0.68195 -2.76368,-0.93319 -1.90228,-2.18941 16.94099,-24.62186 44.79313,-44.0035 95.04183,-52.65346 1.54336,-0.25124 1.65103,-2.54833 0.10768,-2.90725 -25.69862,-6.49643 -53.3713,-0.0718 -83.12571,20.31484 -0.0718,0.0359 -0.14357,0.0718 -0.21535,0.14356 -6.2452,2.87136 -10.37277,-3.87632 -6.78358,-7.50141 6.2452,-6.31698 9.65493,-9.90617 15.11051,-17.3358 0.96908,-1.328 -0.71784,-3.05082 -2.04584,-2.11762 -7.28607,5.13254 -14.39267,10.04974 -21.17624,13.56714 -1.25622,0.64606 -2.65601,-0.71783 -2.00995,-1.97405 1.14854,-2.29709 2.15352,-4.52238 2.97903,-6.6759 0.53838,-1.36389 -1.07676,-2.58422 -2.26119,-1.75871 -11.66488,8.36282 -23.29386,18.73559 -34.95874,31.1542 -0.0718,0.0718 -0.10768,0.10768 -0.17946,0.17946 -5.88628,4.41471 -7.64498,-2.69189 -4.0199,-6.99893 12.38272,-14.6798 24.98079,-28.56997 37.93777,-40.8809 1.14854,-1.07676 -0.0718,-3.01493 -1.54335,-2.47655 -2.2253,0.82552 -4.4506,1.68692 -6.6759,2.656 -1.14854,0.50249 -2.36887,-0.61016 -2.00995,-1.79459 1.83049,-6.31698 2.83546,-12.70574 3.30206,-19.1304 0.10768,-1.50746 -1.97406,-2.18941 -2.76368,-0.8973 -4.19935,6.81947 -8.47049,13.31591 -12.92109,19.20218 -1.00498,1.32801 -3.1226,0.17946 -2.62011,-1.36389 0.75373,-2.2253 1.43567,-4.37881 2.00994,-6.53233 0.4666,-1.65103 -1.93816,-2.62011 -2.76367,-1.11265 -9.61904,17.94596 -19.56111,32.69755 -29.96977,42.56783 -1.22032,1.14854 -3.19438,-0.39481 -2.29708,-1.86638 6.99893,-11.5572 12.8852,-23.29386 16.40261,-35.42534 0.43071,-1.50746 -1.57924,-2.58422 -2.58422,-1.36389 -7.14249,8.75763 -14.53623,16.83332 -22.36067,23.97581 -1.14854,1.04087 -2.94314,-0.17946 -2.40476,-1.61514 2.33298,-6.2093 4.27114,-12.4545 5.06076,-18.77148 0.17946,-1.50746 -1.83048,-2.29708 -2.69189,-1.04086 -3.1226,4.34292 -6.53233,8.36282 -10.15742,12.16736 -0.8614,0.8973 -2.47654,0.35892 -2.54832,-0.8973 -1.61514,-20.17126 -5.09666,-37.29171 -11.41364,-49.71032 -0.71784,-1.43568 -3.01492,-0.75373 -2.79957,0.86141 1.7946,15.25407 2.36887,27.63678 -0.0359,33.09236 -0.53838,1.25621 -2.40476,1.11265 -2.79957,-0.17946 -2.51244,-8.4705 -6.10163,-16.36672 -11.05472,-23.581 -0.93319,-1.3639 -3.12259,-0.32303 -2.656,1.25622 2.6919,9.65492 3.62509,15.00282 5.20433,24.8731 1.18444,7.35785 -4.09168,11.30596 -6.74768,6.20931 -3.01492,-5.8145 -6.78358,-10.65991 -11.41364,-14.39267 -1.18443,-0.96908 -2.94313,0.35892 -2.29708,1.75871 3.37384,7.50141 5.31201,14.2132 5.27611,19.88413 0,1.39978 -1.83048,2.00994 -2.69189,0.8973 -11.9879,-16.07959 -25.69862,-27.38555 -40.9168,-34.59983 -1.50746,-0.71783 -2.87135,1.32801 -1.65103,2.44066 14.89515,13.67482 27.38554,30.07743 35.42534,51.64848 7.21427,19.99181 3.5533,45.18794 -8.54228,55.20179 -3.01493,2.47654 -7.86034,2.62011 -5.24022,-2.58422 5.45557,-10.80347 6.60411,-24.47829 3.69686,-40.77323 -1.04086,-5.81449 -5.312,-4.19936 -5.99395,0.10768 -0.96908,5.85038 -2.72779,10.37276 -5.13254,13.81839 -0.8973,1.22032 -2.90725,0.4307 -2.6919,-1.07676 1.43568,-11.05471 1.11265,-20.85321 -1.65103,-28.92889 -0.50249,-1.43568 -2.656,-1.25622 -2.87135,0.25124 -1.07676,7.50141 -2.44065,14.6798 -4.23525,21.42748 -0.35892,1.39979 -2.44065,1.47157 -2.87135,0.0718 -2.76368,-8.75763 -4.80952,-17.94596 -6.2452,-27.52911 -0.25124,-1.57924 -2.58422,-1.68692 -2.94314,-0.10767 -3.80454,16.94099 1.7946,37.18404 0.86141,58.97044 0,0.0359 0,0.0359 0,0.0718 0.0718,5.3479 -1.68692,7.35785 -5.24022,5.95806 l -8.972988,-7.71676 c -0.46659,-0.39481 -0.61016,-1.00497 -0.4307,-1.57925 8.003898,-25.66273 7.716768,-49.92567 -1.47157,-72.57348 -0.57427,-1.47157 -2.83546,-1.07676 -2.87135,0.50249 -0.32303,10.15741 -1.328,18.08953 -3.40974,22.75548 -0.64605,1.43568 -2.83546,0.96908 -2.87135,-0.57427 -0.21535,-14.93104 -7.25017,-26.81127 -18.98683,-36.57388 -1.14854,-0.96908 -2.87136,0.25125 -2.36887,1.65103 2.83546,7.64498 4.55828,15.32586 3.69687,23.11441 -0.17946,1.50746 -2.29708,1.79459 -2.87136,0.39481 -1.18443,-2.87136 -2.72778,-5.38379 -4.80951,-7.46552 -1.00498,-1.00498 -2.76368,-0.14357 -2.54833,1.25621 0.28713,1.83049 0.39481,3.62509 0.25124,5.3479 -0.10767,1.50746 -2.2253,1.86638 -2.83546,0.50249 -4.77363,-10.6599 -10.55223,-20.13537 -18.59202,-27.02662 -1.11265,-0.96909 -2.83546,0.17945 -2.40476,1.57924 1.65103,5.31201 2.54833,10.37277 2.79957,15.25407 0.0718,1.39979 -1.72281,2.11762 -2.62011,1.04087 -5.24022,-6.13752 -10.73169,-17.55116 -18.84326,-25.77041 -1.18444,-1.22033 -3.19438,0.32303 -2.33298,1.7946 8.61407,14.6439 13.53126,28.64176 13.53126,41.7782 0,1.25622 -1.54335,1.97406 -2.47654,1.11265 -3.1226,-2.83546 -6.35287,-5.45557 -9.76261,-7.86033 -1.29211,-0.8973 -2.9431404,0.68195 -2.11762,2.00995 2.58422,4.16346 4.70184,8.47049 6.02984,12.99288 0.86141,2.87135 -0.93319,5.63503 -3.5533,3.15849 -1.04086,-1.00498 -2.47654,-3.08671 -3.8763304,-2.15352 -1.65103,1.07676 0.35892,2.94314 1.1126504,8.14747 0.14357,1.07676 -0.8973004,1.93816 -1.9381604,1.61514 -16.54618,-5.16844 -28.2110596,-11.80845 -37.9018796,-19.05862 -1.22033,-0.93319 -2.90725,0.4666 -2.2253,1.86638 4.84541,9.76261 13.81839,18.95094 27.0266196,27.52911 1.00498,0.64606 0.86141,2.18941 -0.25124,2.62011 -14.0337396,5.70682 -27.4932196,12.09558 -39.4452296,20.20716 -1.39979,0.93319 -0.32303,3.15849 1.29211,2.656 26.48824,-8.32693 48.5258896,-12.99288 62.48785,-11.73666 4.55827,0.4307 7.68087,6.10163 1.97405,8.07569 -15.5770904,5.41968 -32.48219,3.87632 -47.48502,12.74163 -1.43568,0.86141 -0.53838,3.1226 1.11265,2.72779 9.7985,-2.29709 18.9509396,-3.91222 26.1652196,-3.26617 1.43568,0.14357 1.83049,2.11763 0.57427,2.79957 -15.9719096,8.43461 -29.5749496,18.37667 -37.4352796,29.61084 -0.93319,1.3639 0.78962,3.05082 2.11762,2.04584 7.42963,-5.52735 14.57212,-10.33687 21.28391,-12.70574 1.32801,-0.46659 2.5124396,1.04087 1.75871,2.2253 -5.81449,9.04477 -9.51136,18.01775 -11.77255,26.88306 -0.35892,1.43567 1.43567,2.47654 2.47654,1.43567 23.8681296,-23.36564 46.58772,-39.73236 61.23163,-8.36282 0.61016,1.25622 2.51244,1.04087 2.79957,-0.32302 1.18444,-5.52736 1.22033,-11.5572 -0.4307,-18.41256 -0.25124,-0.96909 0.57427,-1.93817 1.57924,-1.83049 4.98898,0.46659 10.08564,1.47157 15.21818,2.87135 1.39979,0.35892 2.44065,-1.328 1.50746,-2.40476 -4.73773,-5.56325 -9.90617,-10.37276 -15.39763,-14.6439 -1.18444,-0.93319 -0.32303,-2.87136 1.14854,-2.65601 7.42963,1.14854 16.47439,5.70682 26.30878,11.91612 1.14854,0.71784 2.58422,-0.35892 2.2253,-1.65102 -1.36389,-4.9172 -3.1226,-9.33191 -5.312,-13.10056 -0.64606,-1.11265 0.39481,-2.47654 1.61513,-2.18941 11.30596,2.65601 22.00176,9.18834 26.45236,16.25905 4.737728,7.50141 -6.89126,16.25904 -8.68585,16.79742 -19.41754,5.81449 -33.48717,15.72067 -43.21389,28.96479 -0.93319,1.25622 0.57428,2.94314 1.93817,2.18941 17.98186,-10.33688 33.27182,-17.87419 44.0035,-20.63786 1.54336,-0.39482 2.54833,1.65102 1.29211,2.62011 -16.79742,13.06466 -29.7903,25.30381 -35.24587,35.74836 -0.68195,1.36389 0.93319,2.76368 2.15351,1.90227 7.42963,-5.09665 15.43353,-8.9012 24.26295,-10.76758 1.57924,-0.32302 2.47654,1.83049 1.11265,2.72779 -10.01385,6.38876 -17.69472,13.63893 -22.28889,22.07354 -0.78962,1.43567 1.11265,2.94313 2.33298,1.79459 2.58422,-2.40476 5.20433,-4.66595 7.968,-6.56822 1.22033,-0.86141 2.83547,0.50249 2.18941,1.86638 -1.68692,3.62508 -2.83546,7.14249 -3.5533,10.6599 -0.32303,1.57925 1.83049,2.47655 2.72779,1.11265 5.02487,-7.82444 10.80347,-14.24909 17.44348,-18.95094 1.18443,-0.8614 2.79957,0.43071 2.2253,1.7946 -1.22033,2.97903 -2.15352,5.92217 -2.90725,8.82942 -0.35892,1.47156 1.50746,2.47654 2.54833,1.39978 6.963028,-7.46552 13.280008,-17.3358 21.786398,-18.6997 2.94314,-0.46659 4.70184,1.3639 2.15351,3.33795 -16.76153,13.02877 -27.744458,27.20609 -30.902948,43.32156 -1.14854,5.7786 -5.70681,8.50639 -12.20325,4.52239 -24.22706,-14.82337 -39.01453,-36.9328 -40.27075,-71.71208 -0.0359,-1.25622 -1.61514,-1.90227 -2.51243,-1.00497 -7.42963,7.17838 -14.89516,13.7825 -22.36068,21.10445 -4.0557904,3.98401 -7.1066004,0.8973 -4.7377304,-4.52238 3.8763304,-8.79352 8.6140604,-17.55116 16.6538504,-26.09343 0.0718,-0.0718 0.10768,-0.10768 0.17946,-0.17946 6.56823,-4.95309 3.01493,-9.47547 -5.99395,-6.64001 -9.6549304,3.0867 -22.4683504,12.0238 -29.57495,19.30986 -3.1226,3.19438 -7.28606,4.59416 -11.62898,0.32302 -21.71462,-21.21213 -51.684383,-31.94381 -77.347112,-14.67979 -1.22033,0.82551 -0.61017,2.76367 0.8614,2.72778 19.273969,-0.35892 19.991809,3.76865 16.797429,7.50142 -0.0718,0.0718 -0.14357,0.14356 -0.25125,0.21535 -16.869199,12.74163 -28.534079,27.06251 -38.512039,40.4502 -0.96908,1.328 0.68195,3.05082 2.04584,2.11763 4.16347,-2.87136 8.72174,-6.06574 12.9211,-8.97299 1.36389,-0.93319 3.05081,0.82552 2.04584,2.15352 -7.71677,10.04974 -14.2491,20.27894 -18.41256,29.68263 -0.68195,1.50746 1.36389,2.83546 2.47654,1.61513 9.40369,-10.37277 19.1304,-20.31483 31.405439,-26.91895 4.41471,-2.36886 7.68087,1.75871 4.55827,4.12758 -11.37774,8.64995 -19.238069,19.1304 -24.801319,30.90295 -0.64606,1.36389 0.96908,2.72778 2.18941,1.86638 l 12.956979,-9.00888 c 4.84541,-1.79459 5.70682,0.39482 4.16347,4.98898 -3.33795,9.58315 -4.73774,18.16132 -5.16844,26.20111 -0.0718,1.57925 2.15352,2.15352 2.83546,0.71784 5.85039,-12.16736 13.24412,-23.76046 25.555063,-33.41539 3.62508,-2.87135 7.96801,0.25125 5.02487,3.05082 -0.0718,0.0718 -0.10768,0.10767 -0.17946,0.21535 -5.06076,6.99892 -9.619043,14.53623 -13.100563,23.1144 -1.83049,4.59417 2.04584,5.88628 4.4506,3.05082 l 12.849313,-11.01883 c 1.07676,-0.93319 2.76368,0.10768 2.40476,1.47157 -2.11762,8.82942 -3.44562,17.65883 -2.44065,26.38057 0.17946,1.61514 2.51244,1.75871 2.90725,0.21535 4.55827,-17.26402 9.61903,-33.88198 16.36672,-48.4541 0.71784,-1.54336 3.1226,-0.78963 2.83546,0.8973 -2.90725,15.21817 -4.84541,30.00565 -4.30703,43.75226 0.0718,1.65103 2.51243,1.93816 2.94314,0.32303 1.97405,-7.50142 4.4506,-14.46445 7.71676,-20.4943 0.68195,-1.25621 2.58422,-0.8973 2.79957,0.50249 1.22033,8.54228 1.65103,18.16132 1.50746,28.60587 -0.0359,1.61514 2.29709,2.08173 2.87136,0.57427 3.5533,-9.15244 6.10163,-19.52521 8.18336,-30.43636 0.28713,-1.50746 2.44065,-1.61513 2.90724,-0.14357 2.2611996,7.5732 2.7636796,17.29992 2.7995696,27.6009 0,1.43568 1.93817,2.00995 2.72779,0.82551 7.78855,-11.70077 7.89623,-35.1382 -1.36389,-72.86061 -0.39481,-1.57925 1.7587,-2.54833 2.656,-1.22033 1.72281,2.44065 3.40973,5.16844 5.13254997,8.14747 0.50248,0.8973 1.75870003,1.00497 2.44065003,0.21535 2.94314,-3.48152 6.42465,-6.56822 10.5522304,-9.26012 1.22032,-0.78962 2.76367,0.53838 2.15351,1.86638 -5.02487,11.16239 -7.8603304,22.32478 -8.9370904,33.52306 -0.14357,1.54336 1.93816,2.2253 2.76368,0.93319 2.0817304,-3.30205 4.2711404,-6.46054 6.7476804,-9.40368 1.04087,-1.25622 3.08671,-0.0718 2.54833,1.43568 -5.85039,16.54618 -9.4754704,32.58987 -10.3368804,48.0234 -0.10767,1.68692 2.3329804,2.15351 2.9072504,0.57427 3.05081,-8.82942 6.42465,-17.29991 10.76758,-24.76543 0.82551,-1.39979 3.05081,-0.57427 2.76368,1.00497 -1.90228,10.73169 -2.62011,21.21213 -1.86638,31.26187 0.10767,1.65103 2.54832,1.86638 2.94313,0.25125 1.75871,-7.35785 3.94812,-14.39267 7.21428,-20.60197 0.64606,-1.22033 2.51244,-0.93319 2.79957,0.39481 1.83049,9.29601 1.86638,19.5611 1.14855,30.18511 -0.10768,1.39979 1.68692,2.11763 2.62011,1.07676 5.38379,-6.06574 7.82444,-19.70467 8.75763,-37.25582 0.14356,-3.33795 2.90724,-4.52239 4.52238,-0.57427 1.61514,3.91222 0.53838,11.44952 -1.25622,20.02769 -0.32302,1.54336 1.72282,2.44065 2.65601,1.22033 0.68194,-0.8973 1.47156,-2.54833 2.87135,-1.83049 0.68195,0.35892 0.96908,1.11265 0.71784,1.83049 -0.82552,2.33297 -1.68692,4.59417 -2.58422,6.78357 -0.61016,1.50746 1.39978,2.76368 2.47654,1.57925 1.3639,-1.50746 2.54833,-3.48152 3.98401,-2.72779 0.61016,0.32303 0.93319,0.96908 0.75373,1.65103 -1.47157,6.60412 -2.47655,13.24412 -2.90725,19.92002 -0.10767,1.54336 2.04584,2.18941 2.79957,0.82552 2.29709,-4.19936 4.63006,-8.72174 7.28606,-13.38769 0.68195,-1.14855 2.47655,-0.8973 2.76368,0.4307 3.48152,15.97191 0,27.42143 -12.74163,32.84112 -0.57427,0.25124 -1.18444,0.10767 -1.61514,-0.32303 -9.47547,-9.29601 -15.32585,-16.97688 -27.1343,-22.89905 -27.5291104,-13.7825 -79.57241,-20.78143 -116.182183,-22.39657 -1.65103,-0.0718 -2.15351,2.29709 -0.61016,2.87136 7.64498,2.97903 14.10553,6.53233 19.561103,10.55222 1.14854,0.82552 0.53838,2.6919 -0.8614,2.6919 -3.26617,0.0359 -6.245203,0.39481 -8.937093,1.04087 -1.32801,0.32302 -1.50747,2.22529 -0.28714,2.79957 5.958063,2.79957 11.377743,5.99395 15.971913,9.72671 1.00497,0.82551 0.50249,2.47654 -0.75373,2.62011 -18.771483,2.26119 -33.020583,8.25514 -42.639612,18.16132 -1.04087,1.07675 0.0359,2.87135 1.43567,2.47654 3.589199,-0.93319 6.963039,-1.54335 10.085639,-1.65103 1.57924,-0.0359 2.11762,2.11762 0.71783,2.83546 -11.270059,5.63504 -20.458399,14.85926 -25.770399,30.6876 -0.4666,1.39979 1.22032,2.54833 2.36887,1.61514 6.06573,-5.06076 12.34682,-9.04477 18.915039,-11.37774 1.3639,-0.50249 2.54833,1.14854 1.68692,2.29708 -1.61513,2.11763 -3.01492,4.30703 -4.19935,6.56823 -0.68195,1.2921 0.78962,2.72778 2.04584,2.00994 1.29211,-0.75373 2.58422,-1.43567 3.84043,-2.08173 1.39979,-0.71784 2.83547,1.07676 1.83049,2.29708 -7.17838,8.57818 -13.280009,17.69473 -17.479369,27.67268 -0.57427,1.39979 1.11265,2.6919 2.29709,1.75871 4.16346,-3.30206 8.291029,-6.10163 12.346819,-7.71677 1.39979,-0.53838 2.656,1.18444 1.68692,2.33298 -8.793519,10.73168 -13.064659,19.30986 -15.218179,26.91895 -0.4307,1.57924 1.72282,2.62011 2.65601,1.25621 8.219249,-11.66487 18.017739,-21.89407 31.764349,-28.53408 1.18444,-0.57427 2.512443,0.61016 2.045843,1.83049 -1.328003,3.69687 -2.297083,7.35784 -2.799573,10.94704 -0.21535,1.54335 1.86638,2.33297 2.727793,1.04086 18.59202,-27.92392 41.20394,-42.92675 65.3233096,-53.19184 1.43568,-0.61016 2.72779,1.22033 1.68692,2.36887 -4.8813,5.38379 -16.9050996,9.22422 -27.4214296,20.38661 -14.53623,15.39764 -25.98576,39.01453 -29.93387,58.68331 -0.32303,1.57925 1.86638,2.44065 2.72779,1.07676 3.87632,-6.28109 8.03979,-12.09558 12.99287,-16.58207 1.14855,-1.04087 2.94314,0.21535 2.40476,1.65103 -2.51243,6.46054 -4.37881,13.02877 -5.59914,19.66877 -0.28713,1.57925 1.86638,2.40476 2.72779,1.07676 2.79957,-4.41471 5.63503,-8.50639 8.57817,-12.05969 0.86141,-1.00497 2.54833,-0.46659 2.62011,0.86141 0.39481,5.312 1.7946,10.30098 4.05579,15.1105 0.53838,1.18444 2.29708,1.11265 2.72779,-0.10767 2.44065,-6.38877 5.16843,-12.41861 8.29103,-17.98186 0.64606,-1.14854 2.40476,-0.8973 2.72779,0.35892 1.68692,6.49644 4.73773,11.66488 8.7217396,15.90012 1.00497,1.04087 2.79957,0.17946 2.54832,-1.25621 -2.33297,-14.21321 0.4666,-29.57495 6.49643997,-45.61865 0.50249,-1.36389 2.54833003,-1.22032 2.87136003,0.21535 1.7587,8.54228 1.39978,16.40262 1.14854,24.33473 -0.0359,1.50746 2.00995,2.11763 2.76368,0.78962 2.29708,-3.91222 4.4147104,-8.11157 6.4246504,-12.63395 0.53838,-1.22033 2.36887,-1.14855 2.76368,0.14356 4.70185,14.17732 5.95806,28.35463 4.70185,42.49605 -0.14357,1.50746 1.86638,2.2253 2.72778,0.96908 5.09666,-7.46552 7.32196,-23.18619 8.21925,-42.78318 0.0718,-1.50746 2.15352,-1.93816 2.83547,-0.61016 4.80952,9.47547 8.18336,20.74553 11.12649,32.58987 0.32303,1.328 2.18941,1.50746 2.79958,0.28714 1.97405,-4.09168 2.97903,-9.87029 3.01492,-17.26402 0,-1.47157 2.00995,-2.00995 2.76368,-0.75373 1.61513,2.656 3.05081,5.81449 4.30703,9.3319 0.53838,1.43568 2.69189,1.18443 2.87135,-0.32303 0.50249,-4.34292 0.71784,-8.79352 0.64606,-13.3518 -0.0359,-1.57924 2.15351,-2.08173 2.83546,-0.64605 1.22032,2.51243 2.26119,5.3479 3.19438,8.50639 0.4307,1.47156 2.62011,1.36389 2.90725,-0.14357 1.43567,-7.50142 1.29211,-15.54121 0.93319,-23.61689 -0.0718,-1.47157 1.90227,-2.11763 2.72778,-0.8973 3.5892,5.24022 6.53234,11.48542 8.86531,18.80737 0.4666,1.50746 2.76368,1.29211 2.90725,-0.28713 0.93319,-9.54726 -2.76368,-20.56608 -4.16347,-29.3596 -0.25124,-1.47157 1.65103,-2.33298 2.62011,-1.22033 3.48152,4.12757 6.38877,8.9012 8.68585,14.28499 0.57427,1.36389 2.62011,1.07676 2.83546,-0.35892 2.18941,-14.85926 -4.19935,-31.44133 -25.84219,-51.07422 -3.19438,-2.90724 -4.09168,-6.85536 -0.96908,-9.72671 4.16347,-3.80454 7.68088,-8.57817 10.94704,-13.71072 1.57925,-2.44065 6.02984,-1.25621 4.55828,3.30206 -1.75871,5.41968 -4.0199,10.44455 -6.46055,15.32585 -0.57427,1.11265 0.46659,2.40476 1.68692,2.11763 2.29708,-0.57427 4.55827,-1.29211 6.78357,-2.08173 1.11265,-0.39481 2.2253,0.64605 1.93817,1.7587 -0.57427,2.2253 -1.00498,4.48649 -1.29211,6.81947 -0.17946,1.50746 1.7946,2.29708 2.69189,1.07676 1.65103,-2.2612 3.37384,-4.41471 5.16844,-6.35288 0.68195,-0.71783 1.86638,-0.61016 2.36887,0.25125 3.302058,5.63503 3.948108,12.27504 2.835458,19.5611 -0.21535,1.39978 1.57925,2.29708 2.54833,1.25622 6.99892,-7.28606 8.64995,-19.92002 7.03482,-35.85604 -0.10768,-1.18443 1.14854,-2.04584 2.1894,-1.47157 11.16239,6.06574 12.9211,27.06252 11.1265,53.76611 -0.10767,1.50746 1.97406,2.18941 2.76368,0.8973 12.74164,-20.81732 14.71569,-48.70535 0.25124,-89.94518 -0.57427,-1.57924 1.68693,-2.72778 2.62012,-1.328 6.96303,10.04974 13.3159,21.57105 18.80737,32.98469 0.71784,1.50746 3.0867,0.75373 2.79957,-0.8973 -1.61514,-9.7985 -4.34293,-19.48932 -8.68585,-29.00068 -0.4307,-0.96908 0.28714,-2.11763 1.36389,-2.11763 2.33298,0 3.5892,-1.86638 3.84044,-5.34789 0.71784,-9.40369 -5.31201,-15.03872 -7.68087,-22.64781 -1.22033,-3.87633 3.26616,-6.6759 6.10163,-2.94314 8.4346,11.01882 15.14639,26.30878 19.48931,45.86989 1.29211,5.7786 6.02985,5.09665 6.71179,-0.78963 1.61514,-14.50034 -1.07675,-28.10338 -7.07071,-40.73734 -2.90724,-6.13752 2.51244,-9.18833 6.10163,-4.12757 5.45558,7.75266 9.69082,17.22813 13.7825,27.52911 1.43568,3.69687 5.38379,3.19438 5.13255,-1.18443 -0.82552,-14.2491 -8.36282,-30.47225 -10.2292,-42.67551 -0.21535,-1.36389 1.47157,-2.26119 2.47654,-1.328 4.23525,3.94811 8.25515,9.22423 12.09558,15.18229 0.78963,1.22032 2.6919,0.64605 2.72779,-0.78962 1.39978,-55.34536 -35.78425,-88.79664 -59.68828,-86.2842 -1.90227,0.21535 -2.87135,-2.94314 0.25124,-5.02487 23.54511,-15.86424 33.70253,-47.12611 36.78923,-86.57134 0.32303,-4.09168 4.19936,-3.80454 4.52238,0 0.75374,8.61406 -0.57427,20.09948 -2.656,32.62577 -0.25124,1.43567 1.57925,2.33297 2.58422,1.25621 2.2253,-2.44065 12.9211,-13.45947 15.03872,-14.53623 3.94811,-1.97406 9.51136,2.33298 4.98898,6.17341 -0.0359,0.0359 -0.0718,0.0359 -0.0718,0.0718 -17.47937,17.37169 -31.40543,34.42036 -41.23982,51.07421 -0.86141,1.47157 1.14854,3.01493 2.33297,1.7946 6.96304,-6.96303 13.92607,-13.38769 20.78143,-18.91505 1.22032,-1.00497 2.97903,0.4666 2.26119,1.86638 -4.73773,8.86531 -7.68087,18.16132 -9.26012,27.78036 -0.25124,1.61513 2.00995,2.40476 2.79957,0.93319 8.39872,-15.86424 19.84824,-29.43139 34.2768,-37.93777 1.47157,-0.86141 3.01492,1.11265 1.83049,2.33297 -14.60802,15.07461 -24.4783,31.11831 -29.25193,48.81303 -0.4307,1.57924 1.75871,2.58422 2.6919,1.22032 9.87028,-14.6798 21.10445,-26.95484 34.49214,-35.31766 1.328,-0.82551 2.87136,0.75373 2.04584,2.08174 -12.84931,20.02769 -20.0277,39.51701 -23.1144,58.57563 -0.28714,1.68692 2.15351,2.40475 2.83546,0.82551 6.74768,-15.43353 14.06964,-26.48824 22.07354,-32.19506 1.18443,-0.82552 2.76368,0.39481 2.26119,1.72281 -5.24022,14.14142 -6.38876,26.41646 -2.90725,36.64566 0.50249,1.43568 2.65601,1.25622 2.87136,-0.25124 2.54832,-17.19224 6.17341,-32.80523 13.38769,-43.17799 0.93319,-1.3639 3.1226,-0.28714 2.656,1.29211 -4.34292,14.24909 -6.46055,28.31873 -6.06574,42.13712 0.0359,1.61514 2.36887,1.97406 2.90725,0.4307 2.29708,-6.56822 4.70184,-12.45449 7.39374,-17.15634 0.75373,-1.328 2.87135,-0.71784 2.79957,0.82552 -0.28714,4.80952 0.71784,9.29601 2.58422,13.63893 0.61016,1.39979 2.72778,1.04087 2.87135,-0.46659 0.78962,-10.08564 2.97903,-18.87916 7.07071,-25.94987 0.75373,-1.29211 2.79957,-0.75373 2.79957,0.75373 -0.0359,8.14747 1.90228,15.36175 5.31201,21.85819 0.68195,1.29211 2.69189,0.89729 2.79957,-0.57428 2.11762,-24.80132 9.40368,-45.90577 33.59485,-54.87876 3.87632,-1.43567 5.70681,-6.46054 3.19438,-10.55222 -6.35287,-10.44456 -17.65883,-17.87418 -30.57993,-24.29884 -1.57924,-0.78962 -0.61016,-3.26617 1.07676,-2.76368 17.87418,5.09666 33.48717,14.53623 46.04935,29.86209 3.19438,3.87633 2.1894,7.89622 -1.7946,9.72671 -23.25797,10.55223 -38.15312,28.53408 -42.06534,56.35033 -0.4307,2.94314 0.17946,4.09168 -3.62509,5.27611 -19.30985,5.92217 -56.60157,9.04477 -73.00418,39.1581 -0.78962,1.43568 1.07676,2.90725 2.29708,1.83049 z M -63.988298,185.49688 C 0.94020157,115.72297 -47.083198,2.1967971 -128.84502,-7.0992129 c -1.14854,-0.14357 -1.7946,1.29211 -0.93319,2.08173 49.207839,44.6854499 65.789912,110.1882329 21.31981,151.1409229 -50.14103,46.15702 -111.76747,26.05754 -145.25464,-23.07851 -0.68195,-1.00498 -2.26119,-0.43071 -2.18941,0.75373 6.53233,82.58733 123.79126,134.95365 191.914152,61.69822 z"
       class="fil0" />
  </g>
</svg>
