<svg id="Layer_1" data-name="Layer 1" xmlns="http://www.w3.org/2000/svg" viewBox="0 0 50 50"><defs><style>.cls-1{font-size:12.48px;font-family:OpenSans, Open Sans;letter-spacing:0.03em;}.cls-1,.cls-7{fill:#00a79d;}.cls-2{fill:#00534d;}.cls-3,.cls-5{fill:none;stroke-miterlimit:10;stroke-width:0.5px;}.cls-3{stroke:#443642;}.cls-4{font-size:11.02px;font-family:OpenSans-Bold, Open Sans;letter-spacing:0.08em;}.cls-4,.cls-6{fill:#443642;font-weight:700;}.cls-5{stroke:#231f20;}.cls-6{font-size:3.22px;font-family:OpenSans-Semibold, Open Sans;}.cls-7{fill-rule:evenodd;}</style></defs><title>CSCT-Square Logo</title><text class="cls-1" transform="translate(22.78 20.16)">C<tspan class="cls-2" x="8.25" y="0">SC</tspan></text><polyline class="cls-3" points="12.94 33.01 12.94 38.19 33.12 38.19"/><circle class="cls-3" cx="35.2" cy="38.29" r="2.08"/><line class="cls-3" x1="23.09" y1="38.29" x2="23.09" y2="41.11"/><circle class="cls-3" cx="23.09" cy="43.19" r="2.08"/><text class="cls-4" transform="translate(15.87 30.53)">TECH</text><line class="cls-5" x1="12.93" y1="31.71" x2="12.93" y2="27.71"/><line class="cls-5" x1="12.93" y1="26.75" x2="12.93" y2="22.75"/><text class="cls-6" transform="translate(17.31 34.31)">online community</text><path class="cls-7" d="M14,17A0,0,0,0,1,14,17c.38-.95,1.47-1.16,2-1.4.11-.05.08-.08.09-.17a2,2,0,0,1,1.05-1.8.17.17,0,0,0,0-.29,2.69,2.69,0,0,0-1.46-.72,0,0,0,0,0,0,.08,2.19,2.19,0,0,1,1,.61.21.21,0,0,1-.06.32,1.67,1.67,0,0,0-.8,1.73.05.05,0,0,1-.09,0,1.32,1.32,0,0,1-.22-.63,0,0,0,0,0-.09,0,1.78,1.78,0,0,0-.12.79,0,0,0,0,1-.08,0,.78.78,0,0,1-.12-.39,0,0,0,0,0-.09,0,4.24,4.24,0,0,0-.16.53,0,0,0,0,1-.09,0,4.12,4.12,0,0,1,0-1.26,0,0,0,0,0-.08,0,3.14,3.14,0,0,0-.25,1.32s-.06.05-.08,0a1.59,1.59,0,0,1,0-1.09,0,0,0,0,0-.07,0,2.25,2.25,0,0,0-.54,1,0,0,0,0,1-.09,0,4.57,4.57,0,0,1,.48-1.8s0-.09-.06-.06a3.41,3.41,0,0,0-.9,1.16,0,0,0,0,1-.08,0,3.24,3.24,0,0,1,.69-1.53s0-.1-.06-.07a2.84,2.84,0,0,0-.88,1.23s-.09,0-.08,0a2.48,2.48,0,0,1,.17-.85s0-.08-.07,0c-.18.19-.36.4-.55.63,0,0-.09,0-.07,0a7.91,7.91,0,0,1,1-1.64h0c.12-.13-.05-.24-.16-.17a5.08,5.08,0,0,0-.4.48s-.08,0-.08,0a4.24,4.24,0,0,0,0-1c0-.11-.14-.1-.13,0a3.28,3.28,0,0,1-.79,2.67c-.09.07-.05.16,0,.15.69-.16,1.9.7,2,2.34a0,0,0,0,1-.08,0,2.61,2.61,0,0,0-.4-.41,0,0,0,0,0-.07.05c.09.35.37.8.44,1.22,0,.13-.09.16-.15.05a4,4,0,0,0-.49-.76c-.13-.14-.28,0-.17.14a2.18,2.18,0,0,1,.35,1.18c0,.17-.14.21-.2,0a3.29,3.29,0,0,0-.73-1.28.1.1,0,0,0-.17.1c.1.22.3.37.31.64,0,.11,0,.17-.1.18a0,0,0,0,0,0,.06,3.33,3.33,0,0,1,.35.83,0,0,0,0,1-.08,0,7.55,7.55,0,0,0-.66-.91s-.1,0-.08.05a3,3,0,0,1,.3,2.65,0,0,0,0,1-.09,0c0-.79-.16-1.4-.5-1.54,0,0-.07,0-.06.05a1.35,1.35,0,0,1-.09,1.08,0,0,0,0,1-.08,0,.85.85,0,0,0-.15-.57,0,0,0,0,0-.07,0,2.39,2.39,0,0,0-.13.21,0,0,0,0,1-.08,0,1.48,1.48,0,0,1,0-.21,0,0,0,0,0-.06,0l-.19.08a0,0,0,0,1-.06-.06,2.54,2.54,0,0,0,.14-.47c0-.14-.11-.16-.15-.08a1.79,1.79,0,0,1-.27.44c-.08.09,0,.2.06.28.7.51.94,1,.93,1.42,0,0-.06.05-.08,0A1.52,1.52,0,0,0,10.8,21a0,0,0,0,0-.07,0,3.32,3.32,0,0,1,.22.85,0,0,0,0,1-.08,0,2,2,0,0,0-.33-.53s-.08,0-.07,0a2.79,2.79,0,0,1,0,.7s-.07.05-.09,0a.9.9,0,0,0-.12-.24s-.08,0-.08,0a2.66,2.66,0,0,1,0,.39,0,0,0,0,1-.09,0L10,22.1a0,0,0,0,0-.08,0,1.33,1.33,0,0,1,0,.51,0,0,0,0,1-.09,0,4.87,4.87,0,0,0-.43-.92.05.05,0,0,0-.09,0,3,3,0,0,1-.09,1.29,0,0,0,0,1-.09,0,3,3,0,0,0-.28-1.24,0,0,0,0,0-.08,0,2.26,2.26,0,0,1-.15.39s-.08,0-.08,0a3.1,3.1,0,0,0-.12-.72,0,0,0,0,0-.08,0,2.53,2.53,0,0,0,0,1.36,0,0,0,0,1-.07.05,1.1,1.1,0,0,1-.31-.44,0,0,0,0,0-.08,0,3.24,3.24,0,0,0-.19.55,0,0,0,0,1-.08,0,1.39,1.39,0,0,1-.17-.44s-.06,0-.08,0a4.32,4.32,0,0,0-.21.38S7,23,7,22.92a2.51,2.51,0,0,1,.1-.6s0-.07-.08,0a2.51,2.51,0,0,0-.33.53,0,0,0,0,1-.08,0A3.9,3.9,0,0,1,7.31,21c.28-.36.62-.51.74-.69A0,0,0,0,0,8,20.21,4.16,4.16,0,0,0,6.25,22a0,0,0,0,1-.08,0,1.86,1.86,0,0,1,0-.33,0,0,0,0,0-.06-.05,2.32,2.32,0,0,0-.84.95,0,0,0,0,1-.09,0,2.36,2.36,0,0,1,.36-.85s0-.08-.06-.06a1.57,1.57,0,0,0-.33.27s-.09,0-.08,0A3.38,3.38,0,0,1,5.53,21s0-.08-.06-.06l-.1.08s-.09,0-.07-.06a1.24,1.24,0,0,1,.1-.2.05.05,0,0,0-.06-.07,2.09,2.09,0,0,0-.51.4,0,0,0,0,1-.08,0,1.47,1.47,0,0,1,.66-1s0-.08,0-.08a1.92,1.92,0,0,0-.3.08S5,20,5,20a2,2,0,0,1,1.2-.68,0,0,0,0,0,0-.08,2.07,2.07,0,0,0-.5-.23,0,0,0,0,1,0-.09A.91.91,0,0,1,6,18.81s0-.06,0-.08a2.28,2.28,0,0,0-.61-.24,0,0,0,0,1,0-.09,10.1,10.1,0,0,1,3.49.27,3,3,0,0,1,.88.58,0,0,0,0,0,.05,0c.35-.2.42-.55.26-1a0,0,0,0,0-.08,0l-.17.42a0,0,0,0,1-.08,0,3.9,3.9,0,0,1,0-.59s0,0,0-.05-.08.05-.11.1a0,0,0,0,1-.08,0,1.6,1.6,0,0,0,0-.21,0,0,0,0,0,0-.05c-.05,0-.07,0-.08.06a0,0,0,0,1-.09,0,1.11,1.11,0,0,0,0-.6c-.06-.11-.13-.06-.13,0a2,2,0,0,1-.13,1.12s-.08,0-.08,0a3.53,3.53,0,0,0-.14-.89s-.06,0-.08,0a2.52,2.52,0,0,0-.14.63,0,0,0,0,1-.09,0,4,4,0,0,1,0-.92c0-.05-.06-.07-.08,0a3.55,3.55,0,0,0-.24.76,0,0,0,0,1-.08,0,4.85,4.85,0,0,1,.14-1.44,0,0,0,0,0-.08,0c-.06.1-.12.2-.17.3a0,0,0,0,1-.08,0,3,3,0,0,1,.15-1s0-.08-.07-.05a1.18,1.18,0,0,0-.28.31,0,0,0,0,1-.07,0,2.13,2.13,0,0,0-.18-.22s-.09,0-.08,0c.4,1.08.48,1.77.29,2.14a0,0,0,0,1-.08,0,3.38,3.38,0,0,0-.18-.8s-.08,0-.08,0a6.27,6.27,0,0,1-.14.93,0,0,0,0,1-.09,0A4.9,4.9,0,0,0,7,17.21a0,0,0,0,0-.08,0,2.42,2.42,0,0,0-.16.63,0,0,0,0,1-.09,0,6.22,6.22,0,0,1,0-1.3c0-.05-.07-.07-.08,0A8.23,8.23,0,0,0,6.26,18a0,0,0,0,1-.09,0,2.26,2.26,0,0,1,0-.78,0,0,0,0,0-.07,0l-.34.37c-.06.09-.18.07-.14-.07a3.39,3.39,0,0,1,.3-.73h0c.07-.1-.06-.17-.16-.08a2.66,2.66,0,0,0-.64,1.07,0,0,0,0,1-.09,0,2.79,2.79,0,0,1,.07-.79c0-.14,0-.2-.14-.13l-.35.31s-.09,0-.07-.05a2.43,2.43,0,0,1,.62-1c.09-.08,0-.19-.14-.11a3.6,3.6,0,0,0-.84.9,0,0,0,0,1-.08,0,5,5,0,0,1,.45-.94,0,0,0,0,0-.07-.05l-.35.31a0,0,0,0,1-.07-.06,5.75,5.75,0,0,1,1-1.32h0c.08-.12,0-.24-.52-.16a0,0,0,0,1,0-.08,1.81,1.81,0,0,1,2.33.17.22.22,0,0,0,.34,0A2.45,2.45,0,0,1,8,14c.26-.12.38,0,.2.17h0a2.74,2.74,0,0,0-.41.82c0,.17,0,.25.16.12s.39-.46.59-.7a0,0,0,0,1,.07,0,2.44,2.44,0,0,0,1.43,2c.2.09.33,0,.34-.18a2.24,2.24,0,0,1,.77-1.37c.07-.07,0-.12-.08-.09s-.4.38-.58.62c0,0-.08,0-.08,0a2.61,2.61,0,0,1,.06-.27s0-.08-.07-.05a2,2,0,0,0-.45.62,0,0,0,0,1-.08,0,2,2,0,0,1,.06-.32,0,0,0,0,0-.07-.05l-.21.22a0,0,0,0,1-.07,0,1.79,1.79,0,0,1,.58-.73,0,0,0,0,0,0-.07,1.8,1.8,0,0,0-.68.4s-.09,0-.07,0a3.81,3.81,0,0,1,.92-1.17.05.05,0,0,0,0-.08A6.06,6.06,0,0,0,9,14.49s-.08,0-.06-.06a2.39,2.39,0,0,1,1.17-1c.05,0,.37-.32.2-.52s1.2-.61,1.28-.7a1.6,1.6,0,0,0,.06-1.65c-.31-.61-.26-1,.15-.6,0,0,.08,0,.07,0a1.28,1.28,0,0,0-.22-.57s0-.08.06-.06a1.45,1.45,0,0,1,.39.39c.09.14.23,0,.17-.21A5.88,5.88,0,0,0,12,8.77s0-.09.07,0a2.81,2.81,0,0,1,.41.66,0,0,0,0,0,.08,0,2.59,2.59,0,0,0-.11-1c0-.05,0-.07.08,0a3.85,3.85,0,0,1,.5,1.42,0,0,0,0,0,.08,0l.26-.39a0,0,0,0,1,.08,0,2.8,2.8,0,0,1-.08.57s0,.07.07,0A6.58,6.58,0,0,0,14,9.27a0,0,0,0,1,.08,0,4.71,4.71,0,0,1-.36,1.1s0,.08.07,0a5,5,0,0,0,.74-1.35,0,0,0,0,1,.08,0l0,.2s.05.07.08,0,.21-.39.31-.61a0,0,0,0,1,.09,0,2.73,2.73,0,0,1,0,.57,0,0,0,0,0,.06,0l.19-.1a0,0,0,0,1,0,.07,14.32,14.32,0,0,0-1,1.33c-.09.14,0,.34.14.19h0a7.88,7.88,0,0,1,.92-1s.09,0,.07,0a1.66,1.66,0,0,1-.06.21,0,0,0,0,0,.07,0,4.55,4.55,0,0,0,.57-.47s.1,0,.07.06a3.52,3.52,0,0,1-.39.56c-.09.12.05.3.23.2h0a2.94,2.94,0,0,1,2.37-.87,0,0,0,0,1,0,.08,4,4,0,0,0-2.62,1.87s0,.08.06.06c1.29-.86,2.33-1.16,3.09-.82a0,0,0,0,1,0,.09,1.65,1.65,0,0,0-.32.07,0,0,0,0,0,0,.09l.25.08a.05.05,0,0,1,0,.09,1.47,1.47,0,0,0-.46.12s0,.08,0,.08a4,4,0,0,1,2.68,1.16c.1.12,0,.23-.12.15-.86-.73-2.36-.77-2.42-.28a1.06,1.06,0,0,1,0,.4s-.08,0-.09,0a.66.66,0,0,0-.37-.45s-.08,0-.06,0a1.06,1.06,0,0,1,.11.45,0,0,0,0,1-.09,0c-.07-.13-.17-.09-.35-.05s-.2,0-.14.14a1,1,0,0,0,.33.32h0c.5-.26.62,0,.68-.1s.16-.44.35-.6H19s0,.08,0,.12.13-.12.36-.2a0,0,0,0,1,.05.07,1.07,1.07,0,0,0-.1.22s0,.07.06.05l.23-.08a0,0,0,0,1,0,.07,1.54,1.54,0,0,0-.17.19s0,.07,0,.07a2.35,2.35,0,0,1,.8,0,0,0,0,0,1,0,.09,2.18,2.18,0,0,0-.64.2,0,0,0,0,0,0,.08,3.12,3.12,0,0,1,.61,0s.05.07,0,.09l-.39.12a0,0,0,0,0,0,.09c1-.09,1.73.08,2,.62a0,0,0,0,1-.05.06l-.28-.07a0,0,0,0,0,0,.08,1.55,1.55,0,0,1,.63,1,0,0,0,0,1-.07,0,1.52,1.52,0,0,0-.52-.39s-.07,0,0,.06a1,1,0,0,1,.09.21s0,.08-.07,0l-.14-.11a0,0,0,0,0-.06.06,2.33,2.33,0,0,1,.42.87,0,0,0,0,1-.07,0,1.68,1.68,0,0,0-.29-.24s-.08,0-.06.06a2.39,2.39,0,0,1,.28.72,0,0,0,0,1-.08,0,2.26,2.26,0,0,0-.63-.71,0,0,0,0,0-.07,0,2.33,2.33,0,0,1,.19,1.54,0,0,0,0,1-.09,0,3.5,3.5,0,0,0-.59-1.65,0,0,0,0,0-.08,0,5,5,0,0,1,.11,2.07,0,0,0,0,1-.09,0A3.53,3.53,0,0,0,20,16.87a0,0,0,0,0-.08,0,2,2,0,0,1,0,.49,0,0,0,0,1-.08,0,4.77,4.77,0,0,0-.33-.95,0,0,0,0,0-.08,0,7.52,7.52,0,0,1-.16.85s-.09,0-.09,0A8.76,8.76,0,0,0,19,16a0,0,0,0,0-.09,0,2.05,2.05,0,0,1-.4.94,0,0,0,0,1-.08,0,2.73,2.73,0,0,0-.1-.81,0,0,0,0,0-.09,0,2.82,2.82,0,0,1-.11.55s-.07,0-.08,0a2.11,2.11,0,0,0-1.12-1c-.07,0-.15,0-.06.09h0a1.43,1.43,0,0,1,.54,1.11,0,0,0,0,1-.08,0,1.08,1.08,0,0,0-.36-.5s-.09,0-.07.06a.91.91,0,0,1,.06.49,0,0,0,0,1-.08,0,1.3,1.3,0,0,0-.3-.32s-.09,0-.06.05a1.77,1.77,0,0,1,.24.5s0,.07-.07,0l-.22-.15a0,0,0,0,0-.07,0c0,.15-.12.44.12.38,2.22-.65,3.56.27,4.31,2.24a0,0,0,0,1-.08.05q-.14-.16-.27-.3s-.08,0-.07,0a4.94,4.94,0,0,1,.25.89c0,.05-.05.07-.08,0a3.3,3.3,0,0,0-.73-1c-.08-.07-.15.06-.07.14h0a3.47,3.47,0,0,1,.41,1,0,0,0,0,1-.08,0,2.39,2.39,0,0,0-.35-.36,0,0,0,0,0-.08,0,2.76,2.76,0,0,1-.07.88,0,0,0,0,1-.08,0,1.65,1.65,0,0,0-.39-.95,0,0,0,0,0-.07,0A6.22,6.22,0,0,1,19.25,22c0,.05-.08.06-.09,0a3.56,3.56,0,0,0-.5-1.25s-.07,0-.08,0a3.36,3.36,0,0,1-.18.71,0,0,0,0,1-.09,0,6.4,6.4,0,0,0,0-1.68s-.08,0-.09,0a4.39,4.39,0,0,1-.25,1.5,0,0,0,0,1-.09,0,2.93,2.93,0,0,0,0-.73,0,0,0,0,0-.08,0,4.12,4.12,0,0,0-.25.75,0,0,0,0,1-.08,0,7.6,7.6,0,0,1,0-.95c0-.05-.06-.07-.08,0a3.8,3.8,0,0,0-.36.81,0,0,0,0,1-.08,0,2.69,2.69,0,0,1,.33-1.75c.05-.09,0-.12-.09,0a3.32,3.32,0,0,0-.26.36s-.06,0-.08,0a3.8,3.8,0,0,0-.43-.88c-.05-.07-.18,0-.13.07a2.61,2.61,0,0,1,0,2.71,0,0,0,0,1-.09,0c0-.56-.11-1-.4-1.18a0,0,0,0,0-.07,0,2.57,2.57,0,0,1-.12,1,0,0,0,0,1-.08,0,3.81,3.81,0,0,0-.5-1.31s-.07,0-.08,0a2.71,2.71,0,0,0-.14.75,0,0,0,0,1-.09,0l-.09-.24a0,0,0,0,0-.08,0,1.42,1.42,0,0,0,0,.2c0,.05-.07.06-.08,0a3.89,3.89,0,0,1-.21-.74,0,0,0,0,0-.09,0,2.47,2.47,0,0,0-.19.81s-.06.05-.08,0a2.19,2.19,0,0,1-.15-.43s-.06,0-.08,0l-.06.18a0,0,0,0,1-.08,0,1.54,1.54,0,0,1-.13-.49,0,0,0,0,0-.07,0l-.09.11a4.73,4.73,0,0,1,.16-.85s-.05-.07-.08,0a3.14,3.14,0,0,0-.35.54,0,0,0,0,1-.08,0,2.63,2.63,0,0,1,2.25-2.16s0,0,0,0a.85.85,0,0,0,0-.32,0,0,0,0,0,0,0,2.18,2.18,0,0,0-1.06.48s-.09,0-.06-.05c.48-.91,1.26-1,1.28-1.28a0,0,0,0,0-.05,0A1.65,1.65,0,0,0,14,17Z"/><path class="cls-7" d="M9.29,11.51A3.28,3.28,0,0,0,7.46,6.1a0,0,0,0,0,0,.05c1.38,1.26,1.85,3.1.6,4.26A2.61,2.61,0,0,1,4,9.76a0,0,0,0,0-.06,0A3.16,3.16,0,0,0,9.29,11.51Z"/></svg>