<svg id="Layer_1" data-name="Layer 1" xmlns="http://www.w3.org/2000/svg" viewBox="0 0 50 50"><defs><style>.cls-1,.cls-2{fill:none;stroke-miterlimit:10;stroke-width:2px;}.cls-1{stroke:#00a79d;}.cls-2{stroke:#443642;}.cls-3{fill:#00a79d;fill-rule:evenodd;}</style></defs><title>CSCT-Icon Logo</title><polyline class="cls-1" points="12.79 30.54 12.79 36.78 31.17 36.78"/><circle class="cls-1" cx="33.07" cy="36.87" r="1.9"/><polyline class="cls-2" points="37.08 10.54 37.04 29.62 41.4 29.62"/><circle class="cls-2" cx="43.3" cy="29.62" r="1.9"/><polyline class="cls-2" points="37.08 14.97 12.79 14.97 12.79 20.11 8.6 20.11"/><circle class="cls-2" cx="6.7" cy="20.11" r="1.9"/><line class="cls-1" x1="21.98" y1="36.87" x2="21.98" y2="39.46"/><circle class="cls-1" cx="21.98" cy="41.36" r="1.9"/><circle class="cls-2" cx="37.07" cy="8.64" r="1.9"/><line class="cls-1" x1="12.79" y1="28.28" x2="12.79" y2="23.07"/><path class="cls-3" d="M25.88,27.87a0,0,0,0,1-.07,0c.38-.95,1.46-1.16,2-1.4.11-.05.09-.08.09-.17A2,2,0,0,1,29,24.46a.17.17,0,0,0,0-.29,2.63,2.63,0,0,0-1.45-.72c-.06,0-.08.06,0,.08a2.14,2.14,0,0,1,1,.61.21.21,0,0,1-.05.32,1.66,1.66,0,0,0-.81,1.73,0,0,0,0,1-.08,0,1.44,1.44,0,0,1-.23-.63s-.07-.05-.08,0a1.65,1.65,0,0,0-.12.79,0,0,0,0,1-.09,0A.89.89,0,0,1,26.9,26c0-.05-.07-.06-.08,0a2.37,2.37,0,0,0-.16.53,0,0,0,0,1-.09,0,3.83,3.83,0,0,1,0-1.26c0-.05-.06-.07-.09,0a3.15,3.15,0,0,0-.24,1.32,0,0,0,0,1-.09,0,1.71,1.71,0,0,1,0-1.09,0,0,0,0,0-.07,0,2.46,2.46,0,0,0-.54,1,0,0,0,0,1-.09,0,4.59,4.59,0,0,1,.49-1.8,0,0,0,0,0-.07-.06A3.51,3.51,0,0,0,25,25.73s-.1,0-.09,0a3.27,3.27,0,0,1,.7-1.53s0-.1-.06-.07a2.76,2.76,0,0,0-.88,1.23,0,0,0,0,1-.09,0,2.49,2.49,0,0,1,.18-.85,0,0,0,0,0-.07,0,6.89,6.89,0,0,0-.55.63s-.1,0-.08-.05a8,8,0,0,1,1.05-1.64h0c.12-.13-.06-.24-.17-.17a3.87,3.87,0,0,0-.39.48s-.08,0-.08,0a4.24,4.24,0,0,0,0-1c0-.11-.14-.1-.14,0a3.24,3.24,0,0,1-.79,2.67c-.08.07,0,.16,0,.15.7-.16,1.9.7,2.05,2.34,0,0-.06.06-.08,0a2.64,2.64,0,0,0-.41-.41,0,0,0,0,0-.07.05c.1.35.37.8.45,1.22,0,.13-.1.16-.15.05a4,4,0,0,0-.5-.76c-.12-.14-.27,0-.16.14A2.26,2.26,0,0,1,25,29.35c0,.17-.14.21-.19,0a3.56,3.56,0,0,0-.73-1.28c-.1-.1-.22,0-.17.1s.29.37.3.64q0,.16-.09.18s-.05,0,0,.06a3.37,3.37,0,0,1,.36.83s-.06.07-.08,0a7.62,7.62,0,0,0-.67-.91s-.09,0-.07.05a3,3,0,0,1,.29,2.65,0,0,0,0,1-.08,0c0-.79-.16-1.4-.51-1.54a0,0,0,0,0-.06.05,1.36,1.36,0,0,1-.08,1.08s-.09,0-.08,0a1,1,0,0,0-.15-.57s-.06,0-.07,0a2.39,2.39,0,0,0-.13.21,0,0,0,0,1-.09,0,1.49,1.49,0,0,1,0-.21,0,0,0,0,0-.07,0l-.19.08a0,0,0,0,1-.05-.06,3.62,3.62,0,0,0,.13-.47c0-.14-.1-.16-.14-.08a2.2,2.2,0,0,1-.28.44c-.08.09,0,.2.06.28.71.51.95,1,.94,1.42a.05.05,0,0,1-.09,0,1.31,1.31,0,0,0-.3-.39s-.09,0-.07,0a3.78,3.78,0,0,1,.22.85,0,0,0,0,1-.09,0,2.26,2.26,0,0,0-.32-.53s-.08,0-.08,0a2.79,2.79,0,0,1,.05.7s-.06.05-.08,0a2.68,2.68,0,0,0-.12-.24s-.09,0-.08,0,0,.27,0,.39-.06.07-.08,0a2.26,2.26,0,0,0-.16-.26,0,0,0,0,0-.08,0,1.33,1.33,0,0,1,0,.51,0,0,0,0,1-.08,0,5.6,5.6,0,0,0-.44-.92s-.08,0-.08,0a2.79,2.79,0,0,1-.1,1.29,0,0,0,0,1-.08,0,3.2,3.2,0,0,0-.28-1.24.05.05,0,0,0-.09,0,3.54,3.54,0,0,1-.14.39,0,0,0,0,1-.09,0,3.07,3.07,0,0,0-.11-.72,0,0,0,0,0-.09,0,2.63,2.63,0,0,0,0,1.36s0,.07-.08.05a1.2,1.2,0,0,1-.31-.44s-.06,0-.08,0a4.43,4.43,0,0,0-.18.55,0,0,0,0,1-.08,0,1.43,1.43,0,0,1-.17-.43,0,0,0,0,0-.08,0,2,2,0,0,0-.21.38,0,0,0,0,1-.09,0,4.17,4.17,0,0,1,.1-.6,0,0,0,0,0-.07,0,1.9,1.9,0,0,0-.33.53,0,0,0,0,1-.09,0,3.81,3.81,0,0,1,.69-1.83c.27-.36.61-.51.74-.69s0-.09-.06-.06a4.1,4.1,0,0,0-1.74,1.78s-.09,0-.09,0a1.26,1.26,0,0,1,.05-.33,0,0,0,0,0-.07,0,2.47,2.47,0,0,0-.84.95,0,0,0,0,1-.08,0,2.19,2.19,0,0,1,.36-.85s0-.08-.06-.06a1.39,1.39,0,0,0-.34.27,0,0,0,0,1-.07,0,3.38,3.38,0,0,1,.42-.88s0-.08-.06-.06l-.11.08s-.08,0-.06-.06a.75.75,0,0,1,.1-.2.05.05,0,0,0-.06-.07,2,2,0,0,0-.52.4,0,0,0,0,1-.07,0,1.5,1.5,0,0,1,.65-1s0-.08,0-.08l-.29.08s-.08,0-.05-.06a2,2,0,0,1,1.19-.68,0,0,0,0,0,0-.08,2,2,0,0,0-.51-.23,0,0,0,0,1,0-.09,1.1,1.1,0,0,1,.26-.06s0-.06,0-.08a2.59,2.59,0,0,0-.61-.24c-.05,0,0-.09,0-.09a10.16,10.16,0,0,1,3.5.27,2.94,2.94,0,0,1,.87.58,0,0,0,0,0,.05,0c.36-.2.42-.55.27-1a0,0,0,0,0-.08,0c-.07.15-.12.29-.17.42s-.09,0-.09,0a4,4,0,0,1,0-.6.05.05,0,0,0,0-.05s-.07.05-.11.1a0,0,0,0,1-.08,0l.06-.21a.05.05,0,0,0,0-.05s-.06,0-.08.06a0,0,0,0,1-.08,0,1.35,1.35,0,0,0,0-.6c-.06-.11-.14-.06-.13,0A2.14,2.14,0,0,1,21,29.26s-.08,0-.08,0a4,4,0,0,0-.14-.89,0,0,0,0,0-.08,0,2.52,2.52,0,0,0-.15.63c0,.05-.07.05-.08,0a3.49,3.49,0,0,1-.05-.92,0,0,0,0,0-.09,0,4.22,4.22,0,0,0-.23.76,0,0,0,0,1-.09,0,5.21,5.21,0,0,1,.14-1.44c0-.05-.05-.08-.08,0s-.11.2-.16.3a0,0,0,0,1-.09,0,3.26,3.26,0,0,1,.15-1,0,0,0,0,0-.07,0,1.38,1.38,0,0,0-.28.31s-.05,0-.07,0a2.13,2.13,0,0,0-.18-.22,0,0,0,0,0-.07,0,3,3,0,0,1,.28,2.14s-.07,0-.08,0a3,3,0,0,0-.17-.8,0,0,0,0,0-.09,0,4.42,4.42,0,0,1-.14.93,0,0,0,0,1-.08,0,6.12,6.12,0,0,0-.14-.84s-.07,0-.09,0a3.62,3.62,0,0,0-.16.63,0,0,0,0,1-.08,0,5.61,5.61,0,0,1,0-1.3,0,0,0,0,0-.09,0,9.19,9.19,0,0,0-.32,1.48c0,.05-.07.05-.08,0a2.26,2.26,0,0,1,0-.78S18,28,17.93,28l-.34.37c-.06.09-.18.07-.14-.07a3,3,0,0,1,.31-.73h0c.08-.1-.06-.17-.15-.08A2.66,2.66,0,0,0,17,28.6a0,0,0,0,1-.09,0,3.17,3.17,0,0,1,.06-.79c0-.14,0-.2-.13-.13l-.36.31s-.08,0-.07-.05a2.46,2.46,0,0,1,.63-1c.08-.08,0-.19-.15-.11a3.56,3.56,0,0,0-.83.9s-.1,0-.08,0a4.88,4.88,0,0,1,.44-.94s0-.08-.07-.05L16,27s-.09,0-.06-.06a5.69,5.69,0,0,1,1-1.32h0c.08-.12.05-.24-.52-.16a0,0,0,0,1,0-.08,1.8,1.8,0,0,1,2.32.17.22.22,0,0,0,.34,0,2.59,2.59,0,0,1,.81-.67c.25-.12.37,0,.2.17h0a2.48,2.48,0,0,0-.4.82c-.05.17.05.25.15.12s.4-.46.59-.7a0,0,0,0,1,.08,0,2.41,2.41,0,0,0,1.42,2c.21.09.33,0,.35-.18A2.22,2.22,0,0,1,23,25.71c.07-.07,0-.12-.07-.09-.25.06-.4.38-.58.62,0,0-.09,0-.08,0a1.31,1.31,0,0,1,.06-.27.05.05,0,0,0-.08-.05,2.11,2.11,0,0,0-.45.62s-.08,0-.08,0a1.32,1.32,0,0,1,.07-.32s0-.08-.07-.05a1.45,1.45,0,0,0-.21.22s-.1,0-.08,0a1.88,1.88,0,0,1,.58-.73,0,0,0,0,0,0-.07,2,2,0,0,0-.68.4,0,0,0,0,1-.07-.05,4,4,0,0,1,.92-1.17,0,0,0,0,0-.05-.08,6,6,0,0,0-1.22.76,0,0,0,0,1-.07-.06,2.46,2.46,0,0,1,1.18-1c.05,0,.36-.32.2-.52s1.19-.61,1.27-.7a1.6,1.6,0,0,0,.07-1.65c-.31-.61-.26-1,.14-.6a0,0,0,0,0,.08,0,1.58,1.58,0,0,0-.22-.57s0-.08.06-.06a1.41,1.41,0,0,1,.38.39c.1.14.24,0,.18-.21a4.56,4.56,0,0,0-.24-.71c0-.05.05-.09.08-.05a2.48,2.48,0,0,1,.4.66,0,0,0,0,0,.08,0,2.22,2.22,0,0,0-.11-1,0,0,0,0,1,.08,0,4,4,0,0,1,.51,1.42s.05.05.08,0a4.25,4.25,0,0,0,.25-.39s.09,0,.09,0a2.82,2.82,0,0,1-.09.57s.05.07.08,0a7.83,7.83,0,0,0,.57-.78s.09,0,.08,0a4.29,4.29,0,0,1-.36,1.1,0,0,0,0,0,.07,0A4.7,4.7,0,0,0,26.42,20c0-.05.1,0,.09,0a1.42,1.42,0,0,1,0,.2,0,0,0,0,0,.08,0c.11-.19.22-.39.32-.61a0,0,0,0,1,.08,0,2.73,2.73,0,0,1,0,.57,0,0,0,0,0,.07.05l.18-.1a0,0,0,0,1,.06.07,12.71,12.71,0,0,0-1,1.33c-.1.14,0,.34.14.19h0a7.26,7.26,0,0,1,.93-1,0,0,0,0,1,.07,0,1.72,1.72,0,0,1-.07.21s0,.08.07.05a4.61,4.61,0,0,0,.58-.47s.09,0,.07.06a5.58,5.58,0,0,1-.39.56c-.09.12.05.3.22.2h0a3,3,0,0,1,2.38-.87s0,.07,0,.08a4,4,0,0,0-2.62,1.87s0,.08.07.06C29,21.6,30,21.3,30.79,21.64a0,0,0,0,1,0,.09,1.6,1.6,0,0,0-.33.07,0,0,0,0,0,0,.09l.25.08a0,0,0,0,1,0,.09,1.54,1.54,0,0,0-.47.12,0,0,0,0,0,0,.08,4,4,0,0,1,2.67,1.16c.11.12,0,.23-.12.15-.85-.73-2.36-.77-2.41-.28a1.17,1.17,0,0,1,0,.4,0,0,0,0,1-.08,0,.66.66,0,0,0-.37-.45s-.08,0-.06.05a1.22,1.22,0,0,1,.1.45,0,0,0,0,1-.08,0c-.08-.13-.17-.09-.35-.05s-.21,0-.15.14a1,1,0,0,0,.33.32h0c.5-.26.63,0,.69-.1s.15-.43.35-.6a0,0,0,0,1,.05,0c.05,0,0,.08,0,.12s.13-.12.35-.2a.05.05,0,0,1,.06.07.72.72,0,0,0-.1.22s0,.07.06,0l.23-.08a0,0,0,0,1,0,.07,1.07,1.07,0,0,0-.18.19,0,0,0,0,0,0,.07,2.41,2.41,0,0,1,.81,0,0,0,0,0,1,0,.09,2.18,2.18,0,0,0-.64.2,0,0,0,0,0,0,.08,3.12,3.12,0,0,1,.61,0,0,0,0,0,1,0,.09l-.39.12a0,0,0,0,0,0,.09c1-.09,1.74.08,2,.62a0,0,0,0,1-.06.06l-.28-.07a0,0,0,0,0,0,.08,1.55,1.55,0,0,1,.63,1s-.05.07-.08,0a1.39,1.39,0,0,0-.51-.39,0,0,0,0,0-.06.06,1,1,0,0,1,.09.21s0,.08-.07,0l-.13-.11a0,0,0,0,0-.06.06,2.5,2.5,0,0,1,.42.87s-.05.07-.08,0a1.61,1.61,0,0,0-.28-.24s-.09,0-.06.06a2.68,2.68,0,0,1,.28.72,0,0,0,0,1-.08,0,2.29,2.29,0,0,0-.64-.71s-.08,0-.06,0A2.26,2.26,0,0,1,33,28.62a0,0,0,0,1-.08,0A3.61,3.61,0,0,0,32.29,27a0,0,0,0,0-.08,0,5.08,5.08,0,0,1,.1,2.07s-.08,0-.08,0a3.79,3.79,0,0,0-.34-1.33,0,0,0,0,0-.08,0,3.82,3.82,0,0,1,0,.48c0,.05-.08.06-.09,0a4.21,4.21,0,0,0-.33-.95s-.07,0-.08,0a5.81,5.81,0,0,1-.16.85,0,0,0,0,1-.09,0,8.74,8.74,0,0,0-.23-1.26s-.08,0-.09,0a2,2,0,0,1-.41.94,0,0,0,0,1-.08,0,3.1,3.1,0,0,0-.09-.81,0,0,0,0,0-.09,0,2.79,2.79,0,0,1-.12.55,0,0,0,0,1-.08,0,2.12,2.12,0,0,0-1.11-1c-.07,0-.15,0-.06.09h0a1.45,1.45,0,0,1,.55,1.11,0,0,0,0,1-.09,0,1.08,1.08,0,0,0-.36-.5s-.08,0-.06.06a.91.91,0,0,1,.05.49s-.05.05-.08,0a1.26,1.26,0,0,0-.29-.32,0,0,0,1,0-.06.05,2.55,2.55,0,0,1,.24.5,0,0,0,0,1-.07.05A1.6,1.6,0,0,0,28.3,28a0,0,0,0,0-.06,0c0,.15-.12.44.11.38,2.23-.65,3.57.28,4.31,2.24a0,0,0,0,1-.07.05l-.27-.3a0,0,0,0,0-.07,0,5.93,5.93,0,0,1,.25.89,0,0,0,0,1-.08,0,3.49,3.49,0,0,0-.73-1c-.09-.07-.16.06-.07.14h0a3,3,0,0,1,.41,1s-.05.08-.07,0a2.45,2.45,0,0,0-.36-.36,0,0,0,0,0-.07,0,3.08,3.08,0,0,1-.07.88,0,0,0,0,1-.09,0,1.59,1.59,0,0,0-.38-1s-.09,0-.07,0a6.2,6.2,0,0,1,.18,1.64,0,0,0,0,1-.09,0,3.75,3.75,0,0,0-.49-1.25.05.05,0,0,0-.09,0,2.85,2.85,0,0,1-.18.71c0,.05-.08,0-.08,0a7.42,7.42,0,0,0,0-1.68,0,0,0,0,0-.09,0,4.61,4.61,0,0,1-.26,1.5,0,0,0,0,1-.08,0,3.5,3.5,0,0,0,0-.73,0,0,0,0,0-.09,0,3.48,3.48,0,0,0-.24.75,0,0,0,0,1-.09,0,6.09,6.09,0,0,1,0-1,0,0,0,0,0-.09,0,3.8,3.8,0,0,0-.35.81s-.08,0-.09,0a2.75,2.75,0,0,1,.33-1.75c.05-.09,0-.12-.08-.05a2.36,2.36,0,0,0-.26.36,0,0,0,0,1-.08,0,3.45,3.45,0,0,0-.44-.88c-.05-.07-.17,0-.12.07a2.61,2.61,0,0,1,0,2.71,0,0,0,0,1-.08,0c0-.56-.12-1-.4-1.18a0,0,0,0,0-.07,0,2.57,2.57,0,0,1-.12,1s-.08,0-.09,0a3.62,3.62,0,0,0-.5-1.31s-.06,0-.08,0a2.71,2.71,0,0,0-.14.75,0,0,0,0,1-.08,0,1.17,1.17,0,0,1-.09-.24s-.08,0-.09,0a.69.69,0,0,0,0,.2,0,0,0,0,1-.09,0A6.25,6.25,0,0,1,26,31,0,0,0,0,0,26,31a2.25,2.25,0,0,0-.19.81s-.07,0-.08,0a1.69,1.69,0,0,1-.15-.43,0,0,0,0,0-.08,0,.64.64,0,0,0-.06.18s-.07,0-.09,0a1.85,1.85,0,0,1-.12-.49s-.05-.05-.08,0l-.09.11a7.52,7.52,0,0,1,.16-.85,0,0,0,0,0-.07,0,3.14,3.14,0,0,0-.35.54,0,0,0,0,1-.08,0,2.63,2.63,0,0,1,2.24-2.16.08.08,0,0,0,0,0,1.13,1.13,0,0,0,0-.32s0,0,0,0a2.14,2.14,0,0,0-1.05.48,0,0,0,0,1-.07,0c.48-.91,1.27-1,1.28-1.28a0,0,0,0,0,0,0,1.65,1.65,0,0,0-1.16.59Z"/><path class="cls-3" d="M21.14,22.37A3.27,3.27,0,0,0,19.32,17s-.05,0,0,.06c1.39,1.25,1.85,3.09.6,4.25a2.6,2.6,0,0,1-4.08-.65,0,0,0,0,0-.07,0A3.16,3.16,0,0,0,21.14,22.37Z"/></svg>