<svg id="Layer_1" data-name="Layer 1" xmlns="http://www.w3.org/2000/svg" viewBox="0 0 107.13 50"><defs><style>.cls-1,.cls-2{fill:#fff;}.cls-2{fill-rule:evenodd;}</style></defs><title>CSCT-White Full Logo</title><path class="cls-1" d="M18.34,16.28a2.8,2.8,0,0,0-2.23.94,3.83,3.83,0,0,0-.81,2.58,3.92,3.92,0,0,0,.78,2.6,2.82,2.82,0,0,0,2.25.91A7.91,7.91,0,0,0,20.38,23v.87a6.16,6.16,0,0,1-2.2.34,3.73,3.73,0,0,1-2.92-1.15,4.71,4.71,0,0,1-1-3.26,5.19,5.19,0,0,1,.49-2.33,3.59,3.59,0,0,1,1.43-1.53,4.35,4.35,0,0,1,2.2-.54,5.29,5.29,0,0,1,2.36.49l-.42.86A4.49,4.49,0,0,0,18.34,16.28Z"/><path class="cls-1" d="M29.48,19.79a4.73,4.73,0,0,1-1,3.23,3.69,3.69,0,0,1-2.9,1.18A3.72,3.72,0,0,1,22.62,23a4.78,4.78,0,0,1-1-3.27,4.69,4.69,0,0,1,1-3.24,3.7,3.7,0,0,1,2.93-1.15,3.64,3.64,0,0,1,2.88,1.17A4.72,4.72,0,0,1,29.48,19.79Zm-6.83,0a4,4,0,0,0,.74,2.63,2.63,2.63,0,0,0,2.15.9,2.59,2.59,0,0,0,2.15-.89,4.09,4.09,0,0,0,.73-2.64,4.12,4.12,0,0,0-.72-2.63,2.61,2.61,0,0,0-2.14-.89,2.66,2.66,0,0,0-2.17.9A4.05,4.05,0,0,0,22.65,19.79Z"/><path class="cls-1" d="M31.18,24.08V15.51h1v7.67H36v.9Z"/><path class="cls-1" d="M43.68,15.51v5.55a3,3,0,0,1-.89,2.3,3.39,3.39,0,0,1-2.43.84A3.2,3.2,0,0,1,38,23.35,3.1,3.1,0,0,1,37.12,21V15.51h1V21.1a2.2,2.2,0,0,0,.58,1.65,2.38,2.38,0,0,0,1.72.57,2.28,2.28,0,0,0,1.67-.57,2.24,2.24,0,0,0,.59-1.66V15.51Z"/><path class="cls-1" d="M49.53,24.08l-2.91-7.59h0c.05.6.08,1.31.08,2.14v5.45h-.92V15.51h1.5L50,22.58h0l2.74-7.07h1.48v8.57h-1V18.56c0-.63,0-1.32.08-2.06h-.05l-2.93,7.58Z"/><path class="cls-1" d="M56.37,15.51h2.42a4.57,4.57,0,0,1,2.47.51A1.82,1.82,0,0,1,62,17.63a1.84,1.84,0,0,1-.43,1.26,2,2,0,0,1-1.24.64v.06c1.3.22,1.95.91,1.95,2.05a2.2,2.2,0,0,1-.77,1.8,3.3,3.3,0,0,1-2.17.64h-3Zm1,3.67H59a2.66,2.66,0,0,0,1.51-.33A1.28,1.28,0,0,0,61,17.73a1.15,1.15,0,0,0-.52-1,3.24,3.24,0,0,0-1.64-.32H57.37Zm0,.85v3.2h1.78a2.53,2.53,0,0,0,1.56-.4,1.49,1.49,0,0,0,.53-1.26,1.33,1.33,0,0,0-.54-1.17A2.87,2.87,0,0,0,59.07,20Z"/><path class="cls-1" d="M63.94,24.08V15.51h1v8.57Z"/><path class="cls-1" d="M72.47,24.08,71.4,21.36H68l-1.06,2.72h-1l3.39-8.6h.84l3.37,8.6Zm-1.38-3.62-1-2.66a11.4,11.4,0,0,1-.39-1.23,11.71,11.71,0,0,1-.37,1.23l-1,2.66Z"/><path class="cls-1" d="M79.31,21.8a2.11,2.11,0,0,1-.82,1.76,3.52,3.52,0,0,1-2.23.64,5.38,5.38,0,0,1-2.34-.4v-1a6.34,6.34,0,0,0,1.14.36,6.57,6.57,0,0,0,1.23.12,2.48,2.48,0,0,0,1.5-.37,1.26,1.26,0,0,0,.51-1.06,1.36,1.36,0,0,0-.18-.73,1.76,1.76,0,0,0-.6-.52,8.1,8.1,0,0,0-1.27-.54,4.1,4.1,0,0,1-1.71-1A2.24,2.24,0,0,1,74,17.55,1.88,1.88,0,0,1,74.77,16a3.1,3.1,0,0,1,2-.59,5.87,5.87,0,0,1,2.35.47l-.31.87a5.29,5.29,0,0,0-2.06-.45,2,2,0,0,0-1.24.34,1.12,1.12,0,0,0-.45.94,1.43,1.43,0,0,0,.17.73,1.56,1.56,0,0,0,.55.53,7.7,7.7,0,0,0,1.19.52,4.72,4.72,0,0,1,1.86,1A2,2,0,0,1,79.31,21.8Z"/><path class="cls-1" d="M84.52,16.28a2.8,2.8,0,0,0-2.23.94,3.83,3.83,0,0,0-.81,2.58,3.92,3.92,0,0,0,.78,2.6,2.82,2.82,0,0,0,2.25.91,7.91,7.91,0,0,0,2-.32v.87a6.16,6.16,0,0,1-2.2.34,3.73,3.73,0,0,1-2.92-1.15,4.71,4.71,0,0,1-1-3.26,5.19,5.19,0,0,1,.49-2.33,3.59,3.59,0,0,1,1.43-1.53,4.35,4.35,0,0,1,2.2-.54,5.29,5.29,0,0,1,2.36.49l-.42.86A4.49,4.49,0,0,0,84.52,16.28Z"/><path class="cls-1" d="M20.88,38.53H19.06v-7H16.74V30h6.47v1.52H20.88Z"/><path class="cls-1" d="M29.46,38.53H24.52V30h4.94v1.49H26.34v1.88h2.9v1.49h-2.9V37h3.12Z"/><path class="cls-1" d="M34.88,31.35a1.84,1.84,0,0,0-1.58.77,3.57,3.57,0,0,0-.57,2.15c0,1.91.72,2.87,2.15,2.87a6.65,6.65,0,0,0,2.19-.46v1.53a6.13,6.13,0,0,1-2.36.44,3.59,3.59,0,0,1-2.86-1.14,4.78,4.78,0,0,1-1-3.25,5.37,5.37,0,0,1,.49-2.34,3.44,3.44,0,0,1,1.4-1.54,4.11,4.11,0,0,1,2.13-.54,5.78,5.78,0,0,1,2.51.6l-.58,1.48c-.33-.15-.65-.28-1-.4A3,3,0,0,0,34.88,31.35Z"/><path class="cls-1" d="M45.91,38.53H44.1v-3.7H40.71v3.7H38.89V30h1.82v3.36H44.1V30h1.81Z"/><rect class="cls-1" x="73.53" y="26.68" width="5" height="0.5"/><rect class="cls-1" x="81.98" y="26.68" width="5" height="0.5"/><polygon class="cls-1" points="26.11 13.99 25.61 13.99 25.61 8.99 13.28 8.99 13.28 8.49 26.11 8.49 26.11 13.99"/><path class="cls-1" d="M11.37,10.81a2.16,2.16,0,1,1,2.16-2.15A2.16,2.16,0,0,1,11.37,10.81Zm0-3.81A1.66,1.66,0,1,0,13,8.66,1.65,1.65,0,0,0,11.37,7Z"/><polygon class="cls-1" points="77.53 39.38 49.81 39.38 49.81 29.89 50.31 29.89 50.31 38.88 77.53 38.88 77.53 39.38"/><path class="cls-1" d="M79.43,41.38a2.16,2.16,0,1,1,2.15-2.16A2.16,2.16,0,0,1,79.43,41.38Zm0-3.81a1.66,1.66,0,1,0,1.65,1.65A1.65,1.65,0,0,0,79.43,37.57Z"/><polygon class="cls-1" points="95.64 27.18 89.86 27.18 89.86 26.68 95.14 26.68 95.14 20.02 95.64 20.02 95.64 27.18"/><polygon class="cls-1" points="14.23 33.32 8.82 33.32 8.82 32.82 13.73 32.82 13.73 26.68 69.84 26.68 69.84 27.18 14.23 27.18 14.23 33.32"/><path class="cls-1" d="M6.91,35.23a2.16,2.16,0,1,1,2.16-2.16A2.16,2.16,0,0,1,6.91,35.23Zm0-3.81a1.66,1.66,0,0,0,0,3.31,1.66,1.66,0,1,0,0-3.31Z"/><rect class="cls-1" x="49.81" y="38.62" width="0.5" height="4.59"/><path class="cls-1" d="M50.06,47.26a2.15,2.15,0,1,1,2.15-2.15A2.15,2.15,0,0,1,50.06,47.26Zm0-3.8a1.65,1.65,0,1,0,1.65,1.65A1.65,1.65,0,0,0,50.06,43.46Z"/><path class="cls-1" d="M61.87,33.52a1.06,1.06,0,0,1-.25.76.87.87,0,0,1-.69.27.9.9,0,0,1-.81-.48,1.2,1.2,0,0,1-.11-.55,1.06,1.06,0,0,1,.24-.74.9.9,0,0,1,.69-.27.87.87,0,0,1,.68.27A1.05,1.05,0,0,1,61.87,33.52Zm-1.43,0c0,.46.17.69.5.69s.5-.23.5-.69-.17-.67-.5-.67a.42.42,0,0,0-.38.17A.9.9,0,0,0,60.44,33.52Z"/><path class="cls-1" d="M64.09,34.51h-.43V33.3a.55.55,0,0,0-.09-.34.37.37,0,0,0-.29-.11.47.47,0,0,0-.39.16.87.87,0,0,0-.12.52v1h-.42v-2h.33l.06.26h0a.6.6,0,0,1,.25-.22.87.87,0,0,1,.37-.07.63.63,0,0,1,.71.72Z"/><path class="cls-1" d="M65.09,34.51h-.42V31.74h.42Z"/><path class="cls-1" d="M65.66,32a.24.24,0,0,1,.06-.17.24.24,0,0,1,.18-.06.23.23,0,1,1,0,.46.24.24,0,0,1-.18-.06A.24.24,0,0,1,65.66,32Zm.44,2.49h-.42v-2h.42Z"/><path class="cls-1" d="M68.43,34.51H68V33.3a.55.55,0,0,0-.09-.34.37.37,0,0,0-.29-.11.46.46,0,0,0-.39.16.87.87,0,0,0-.12.52v1H66.7v-2H67l.06.26h0a.6.6,0,0,1,.25-.22.87.87,0,0,1,.37-.07.63.63,0,0,1,.7.72Z"/><path class="cls-1" d="M69.88,34.55a.94.94,0,0,1-.72-.27,1,1,0,0,1-.26-.74,1.14,1.14,0,0,1,.24-.76.95.95,0,0,1,1.28,0,.92.92,0,0,1,.22.66v.22H69.33a.65.65,0,0,0,.16.44.5.5,0,0,0,.41.16,1.12,1.12,0,0,0,.32,0,1.28,1.28,0,0,0,.33-.11v.34a1.45,1.45,0,0,1-.31.11A2,2,0,0,1,69.88,34.55Zm-.08-1.73a.44.44,0,0,0-.32.13.59.59,0,0,0-.14.37h.89a.51.51,0,0,0-.12-.37A.41.41,0,0,0,69.8,32.82Z"/><path class="cls-1" d="M72.86,34.55a.88.88,0,0,1-.68-.26,1.14,1.14,0,0,1-.23-.75,1.13,1.13,0,0,1,.24-.77.93.93,0,0,1,.7-.26,1.48,1.48,0,0,1,.57.11l-.13.34a1.23,1.23,0,0,0-.44-.1c-.34,0-.51.22-.51.67a.77.77,0,0,0,.13.5.44.44,0,0,0,.37.17,1.1,1.1,0,0,0,.53-.14v.37l-.24.09A1.35,1.35,0,0,1,72.86,34.55Z"/><path class="cls-1" d="M75.62,33.52a1.06,1.06,0,0,1-.25.76.87.87,0,0,1-.69.27.92.92,0,0,1-.49-.13.78.78,0,0,1-.32-.35,1.2,1.2,0,0,1-.12-.55,1.07,1.07,0,0,1,.25-.74,1,1,0,0,1,1.37,0A1.05,1.05,0,0,1,75.62,33.52Zm-1.43,0c0,.46.16.69.5.69s.5-.23.5-.69-.17-.67-.5-.67a.45.45,0,0,0-.39.17A1,1,0,0,0,74.19,33.52Z"/><path class="cls-1" d="M77.76,34.51h-.42V33.3a.61.61,0,0,0-.08-.34.34.34,0,0,0-.27-.11.41.41,0,0,0-.36.16,1,1,0,0,0-.11.52v1H76.1v-2h.33l.06.26h0a.52.52,0,0,1,.24-.22.74.74,0,0,1,.34-.07.59.59,0,0,1,.6.31h0a.56.56,0,0,1,.25-.23.85.85,0,0,1,.87.09.79.79,0,0,1,.16.55v1.28h-.41V33.3A.53.53,0,0,0,78.5,33a.34.34,0,0,0-.27-.11.43.43,0,0,0-.36.15.83.83,0,0,0-.11.47Z"/><path class="cls-1" d="M81.25,34.51h-.42V33.3a.53.53,0,0,0-.09-.34.3.3,0,0,0-.26-.11.4.4,0,0,0-.36.16.87.87,0,0,0-.11.52v1h-.42v-2h.33l0,.26h0a.54.54,0,0,1,.23-.22.81.81,0,0,1,.35-.07.59.59,0,0,1,.6.31h0a.59.59,0,0,1,.24-.23.75.75,0,0,1,.37-.08.7.7,0,0,1,.51.17.79.79,0,0,1,.16.55v1.28h-.42V33.3A.61.61,0,0,0,82,33a.34.34,0,0,0-.27-.11.43.43,0,0,0-.36.15.83.83,0,0,0-.11.47Z"/><path class="cls-1" d="M84.47,34.51l-.06-.26h0a.59.59,0,0,1-.25.22.87.87,0,0,1-.37.08.73.73,0,0,1-.54-.18.78.78,0,0,1-.17-.54V32.54h.42v1.22a.55.55,0,0,0,.09.34.37.37,0,0,0,.29.11.45.45,0,0,0,.39-.16.88.88,0,0,0,.12-.53v-1h.43v2Z"/><path class="cls-1" d="M87.12,34.51H86.7V33.3a.55.55,0,0,0-.09-.34.37.37,0,0,0-.29-.11.46.46,0,0,0-.39.16.87.87,0,0,0-.12.52v1h-.42v-2h.33l.06.26h0a.6.6,0,0,1,.25-.22.87.87,0,0,1,.37-.07.63.63,0,0,1,.7.72Z"/><path class="cls-1" d="M87.68,32a.24.24,0,0,1,.06-.17.24.24,0,0,1,.18-.06.23.23,0,1,1,0,.46.24.24,0,0,1-.18-.06A.24.24,0,0,1,87.68,32Zm.45,2.49h-.42v-2h.42Z"/><path class="cls-1" d="M89.46,34.21a1,1,0,0,0,.3-.05v.32l-.17.05-.23,0q-.6,0-.6-.63V32.86h-.27v-.19l.29-.15.15-.42h.25v.44h.56v.32h-.56v1a.32.32,0,0,0,.08.23A.27.27,0,0,0,89.46,34.21Z"/><path class="cls-1" d="M89.86,32.54h.45l.41,1.12a2.16,2.16,0,0,1,.12.45h0a1.4,1.4,0,0,1,.06-.24l.45-1.33h.45L91,34.77a.8.8,0,0,1-.76.62,1.12,1.12,0,0,1-.27,0V35l.21,0a.46.46,0,0,0,.43-.35l.07-.19Z"/><path class="cls-1" d="M56,31.31a2.22,2.22,0,0,1,2.41,1.95,2.22,2.22,0,0,1-2.41,2l-.38,0a3,3,0,0,1-1.43.36H54v-.12c.33-.16.52-.33.49-.51a.66.66,0,0,0,0-.14,1.84,1.84,0,0,1-.89-1.52A2.22,2.22,0,0,1,56,31.31M56,31a2.56,2.56,0,0,0-2.76,2.3A2.17,2.17,0,0,0,54.11,35a1.58,1.58,0,0,1-.26.16l-.2.1v.65l.31,0h.23a3.49,3.49,0,0,0,1.5-.35H56a2.57,2.57,0,0,0,2.76-2.31A2.56,2.56,0,0,0,56,31Z"/><g id="cKpX0f.tif"><path class="cls-1" d="M55.69,32.64l.51,0,0-.25a.21.21,0,0,1,.14-.22.2.2,0,0,1,.27.15,2.46,2.46,0,0,1,0,.26v0l.19,0h.1a.21.21,0,0,1,.18.22.2.2,0,0,1-.19.19h-.25l0,.5H57a.19.19,0,0,1,.2.18.21.21,0,0,1-.17.22l-.25,0h0c0,.08,0,.16,0,.24a.19.19,0,0,1-.12.21.2.2,0,0,1-.29-.17c0-.08,0-.15,0-.22v0l-.51,0a2.11,2.11,0,0,1,0,.25.2.2,0,0,1-.06.18.21.21,0,0,1-.2,0,.17.17,0,0,1-.14-.15l0-.25v0l-.24,0a.2.2,0,0,1-.07-.4,2.06,2.06,0,0,1,.26,0h0l0-.51-.25,0a.2.2,0,1,1-.07-.4l.25,0h0a1.94,1.94,0,0,1,0-.24.2.2,0,0,1,.11-.21.21.21,0,0,1,.3.17c0,.08,0,.15,0,.22Zm.07.93.51,0,0-.51-.51.05Z"/></g><path class="cls-2" d="M96.76,15.86a0,0,0,0,1-.06,0c.41-.74,1.33-.82,1.8-1,.1,0,.08-.06.09-.13a1.7,1.7,0,0,1,1-1.39c.1-.05.12-.14,0-.24a2.22,2.22,0,0,0-1.13-.74s-.07.05,0,.07a1.79,1.79,0,0,1,.76.6.18.18,0,0,1-.08.26,1.37,1.37,0,0,0-.83,1.35,0,0,0,0,1-.07,0,1.2,1.2,0,0,1-.13-.54,0,0,0,0,0-.07,0,1.51,1.51,0,0,0-.17.64s-.06,0-.07,0a.8.8,0,0,1-.07-.34,0,0,0,0,0-.07,0,3.73,3.73,0,0,0-.18.43s-.07,0-.07,0a3.16,3.16,0,0,1,.15-1,0,0,0,0,0-.07,0,2.82,2.82,0,0,0-.33,1.06s-.06,0-.07,0a1.47,1.47,0,0,1,.07-.91s0-.06,0,0a1.81,1.81,0,0,0-.54.79s-.08,0-.07,0a3.58,3.58,0,0,1,.57-1.44s0-.07-.06,0a3,3,0,0,0-.84.87s-.08,0-.07,0a2.74,2.74,0,0,1,.72-1.2s0-.08,0-.06a2.32,2.32,0,0,0-.85.93,0,0,0,0,1-.07,0,2.11,2.11,0,0,1,.23-.68s0-.07-.06,0a5.45,5.45,0,0,0-.51.47s-.08,0-.06,0a6.88,6.88,0,0,1,1-1.26h0c.11-.09,0-.2-.12-.15a4.13,4.13,0,0,0-.37.36s-.07,0-.06,0a3.47,3.47,0,0,0,.06-.81c0-.09-.1-.1-.11,0A2.71,2.71,0,0,1,95,13.56c-.07,0,0,.12,0,.12.59-.06,1.5.76,1.47,2.12a0,0,0,0,1-.07,0,1.86,1.86,0,0,0-.3-.37s-.06,0-.06,0a9.53,9.53,0,0,1,.25,1.05c0,.11-.09.12-.12,0a3.59,3.59,0,0,0-.34-.68c-.09-.12-.22-.05-.15.11a1.88,1.88,0,0,1,.17,1c0,.15-.13.16-.16,0a3,3,0,0,0-.48-1.13.08.08,0,0,0-.15.07c0,.19.2.33.19.56s0,.13-.1.13a0,0,0,0,0,0,.05,3.27,3.27,0,0,1,.21.72s0,.06-.07,0a5.84,5.84,0,0,0-.46-.81,0,0,0,0,0-.07,0,2.51,2.51,0,0,1,0,2.22s-.07,0-.07,0c0-.65,0-1.17-.27-1.32a0,0,0,0,0-.06,0,1.12,1.12,0,0,1-.17.88,0,0,0,0,1-.06,0,.77.77,0,0,0-.07-.48s0,0-.06,0a1,1,0,0,0-.13.16s-.07,0-.07,0l0-.17s0-.05,0,0l-.17.05a0,0,0,0,1,0-.05c.06-.12.11-.25.16-.38s-.08-.14-.11-.08a2.24,2.24,0,0,1-.27.34c-.08.07-.06.16,0,.24A1.46,1.46,0,0,1,94,19.21s-.06.05-.07,0a1.38,1.38,0,0,0-.22-.35,0,0,0,0,0-.06,0,3.47,3.47,0,0,1,.1.72,0,0,0,0,1-.07,0,1.79,1.79,0,0,0-.22-.46,0,0,0,0,0-.07,0,2.22,2.22,0,0,1,0,.58,0,0,0,0,1-.07,0,1,1,0,0,0-.08-.21s-.07,0-.07,0,0,.22,0,.33a0,0,0,0,1-.08,0,1,1,0,0,0-.1-.23,0,0,0,0,0-.07,0,1.14,1.14,0,0,1-.07.42s-.06,0-.07,0a4.27,4.27,0,0,0-.28-.81s-.06,0-.07,0a2.27,2.27,0,0,1-.2,1.05,0,0,0,0,1-.07,0A2.52,2.52,0,0,0,92,19.32a0,0,0,0,0-.07,0,3,3,0,0,1-.16.31,0,0,0,0,1-.07,0,2,2,0,0,0,0-.6s0,0-.07,0a2.43,2.43,0,0,0-.16,1.13s0,.05-.06,0a.87.87,0,0,1-.21-.39s-.06,0-.07,0a2.56,2.56,0,0,0-.21.44,0,0,0,0,1-.06,0,.93.93,0,0,1-.1-.37s-.05,0-.07,0-.14.19-.21.3-.07,0-.07,0a2.9,2.9,0,0,1,.14-.48,0,0,0,0,0-.06,0,2.16,2.16,0,0,0-.32.4,0,0,0,1,1-.06,0,3.17,3.17,0,0,1,.73-1.45,7.72,7.72,0,0,1,.68-.5,0,0,0,0,0,0-.06,3.41,3.41,0,0,0-1.61,1.31,0,0,0,0,1-.07,0,1.34,1.34,0,0,1,.07-.27s0-.06-.05-.05a2,2,0,0,0-.78.7,0,0,0,0,1-.07,0,1.71,1.71,0,0,1,.38-.66,0,0,0,0,0,0-.06A1.25,1.25,0,0,0,89,19a0,0,0,0,1-.06,0,3,3,0,0,1,.43-.68s0-.08,0-.06l-.1,0s-.06,0,0,0l.11-.16a0,0,0,0,0,0-.06,1.63,1.63,0,0,0-.47.28s-.07,0-.06,0a1.22,1.22,0,0,1,.64-.75,0,0,0,0,0,0-.07.77.77,0,0,0-.25,0,0,0,0,0,1,0-.06,1.65,1.65,0,0,1,1-.45,0,0,0,0,0,0-.07,1.84,1.84,0,0,0-.39-.24,0,0,0,0,1,0-.06.73.73,0,0,1,.22,0,0,0,0,0,0,0-.07,2.71,2.71,0,0,0-.48-.26,0,0,0,0,1,0-.07,8.46,8.46,0,0,1,2.86.55,2.6,2.6,0,0,1,.67.57h0c.32-.14.4-.42.32-.81a0,0,0,0,0-.07,0,2.68,2.68,0,0,0-.18.33,0,0,0,0,1-.07,0,2.87,2.87,0,0,1,.07-.5,0,0,0,0,0,0,0s-.06,0-.1.07-.07,0-.06,0l.07-.16a.08.08,0,0,0,0-.05s-.06,0-.07.05-.08,0-.07,0a1,1,0,0,0,0-.5c0-.09-.11-.07-.11,0a1.65,1.65,0,0,1-.21.91,0,0,0,0,1-.07,0,2.65,2.65,0,0,0,0-.75s0,0-.07,0a2.18,2.18,0,0,0-.17.51,0,0,0,0,1-.08,0,3.48,3.48,0,0,1,0-.78s0-.05-.07,0a3.39,3.39,0,0,0-.26.61s-.08,0-.07,0a4.45,4.45,0,0,1,.25-1.19s0-.06-.06,0a2,2,0,0,0-.17.23,0,0,0,0,1-.07,0,2.84,2.84,0,0,1,.22-.83,0,0,0,0,0,0-.05,1.47,1.47,0,0,0-.26.23s-.05,0-.06,0a1,1,0,0,0-.13-.2s-.07,0-.06,0c.23.92.23,1.5,0,1.79a0,0,0,0,1-.06,0,2.79,2.79,0,0,0-.07-.68s-.07,0-.07,0a4.77,4.77,0,0,1-.21.75,0,0,0,0,1-.07,0,4,4,0,0,0,0-.71s-.06,0-.07,0a2.35,2.35,0,0,0-.19.51s-.07,0-.08,0a5.21,5.21,0,0,1,.11-1.08s0-.06-.07,0a7.91,7.91,0,0,0-.4,1.19s-.07,0-.07,0a1.6,1.6,0,0,1,.06-.65,0,0,0,0,0-.06,0l-.32.27c-.06.07-.15,0-.11-.07a3.12,3.12,0,0,1,.32-.57h0c.07-.07,0-.14-.13-.07a2.18,2.18,0,0,0-.62.82s-.08,0-.07,0a2.3,2.3,0,0,1,.12-.64c0-.12,0-.17-.1-.13l-.32.23a0,0,0,0,1,0-.05,1.93,1.93,0,0,1,.61-.76c.07-.06,0-.16-.11-.1a2.91,2.91,0,0,0-.78.66,0,0,0,0,1-.06,0A3.71,3.71,0,0,1,89,14s0-.07,0,0l-.31.22s-.08,0,0-.05a4.58,4.58,0,0,1,.94-1h0c.08-.1.06-.2-.41-.19a0,0,0,0,1,0-.07,1.5,1.5,0,0,1,1.9.36.19.19,0,0,0,.29,0,2.11,2.11,0,0,1,.73-.48c.22-.07.3,0,.14.16h0a2,2,0,0,0-.41.64c-.06.13,0,.21.12.11l.55-.52a0,0,0,0,1,.06,0,2,2,0,0,0,1,1.76c.16.1.27,0,.3-.11a1.87,1.87,0,0,1,.76-1.07c.06,0,0-.09,0-.08s-.37.28-.54.46c0,0-.07,0-.06,0a1.87,1.87,0,0,1,.07-.22s0-.06,0,0a1.47,1.47,0,0,0-.43.46s-.08,0-.07,0a1.43,1.43,0,0,1,.09-.27,0,0,0,0,0-.06,0l-.19.16s-.08,0-.06,0a1.52,1.52,0,0,1,.55-.55,0,0,0,0,0,0-.06,1.69,1.69,0,0,0-.6.26,0,0,0,0,1,0,0,3.2,3.2,0,0,1,.87-.88s0-.07,0-.06a4.94,4.94,0,0,0-1.09.51s-.07,0,0-.06a2,2,0,0,1,1.07-.71s.33-.23.21-.41a1,1,0,0,0-.65-.4,0,0,0,0,0,0,0,1.34,1.34,0,0,1,.13.32s0,.06,0,0a2.07,2.07,0,0,0-.65-.29s-.06,0,0,.07a2.14,2.14,0,0,1,.38.36,0,0,0,0,1,0,.06,1.61,1.61,0,0,0-.37-.07,0,0,0,0,0,0,0,1,1,0,0,1,0,.45,0,0,0,0,1-.07,0c-.36-.77-.92-.37-1.51.21a0,0,0,0,1-.06,0,2.11,2.11,0,0,1,.29-.66s0-.07,0,0a1.86,1.86,0,0,0-.53.31,0,0,0,0,1-.05,0,2.59,2.59,0,0,1,.92-.73s0-.07,0-.07a2,2,0,0,0-.65.08s-.06,0,0-.07a5.32,5.32,0,0,1,1.17-.31c.14-.05.06-.19-.05-.2a4.46,4.46,0,0,0-1.54.29,0,0,0,0,1,0-.07,4.9,4.9,0,0,1,1-.49,0,0,0,0,0,0-.07,1.84,1.84,0,0,1-.66-.68,0,0,0,0,1,0,0,3,3,0,0,0,.94.47s0,0,0,0-.06-.18,0-.2.07,0,.09.05.11,0,.09-.08a1,1,0,0,0-.15-.32,0,0,0,0,1,.05-.05,2.43,2.43,0,0,1,.25.2s.06,0,.06,0a2,2,0,0,0-.34-1S91.93,9,92,9c.2.21.34.49.47.64s.06,0,.06,0a1.72,1.72,0,0,0-.07-.37,0,0,0,0,1,.06,0,1.86,1.86,0,0,1,.46.66s.06,0,.07,0a.62.62,0,0,0,0-.13s0-.06.06,0a.57.57,0,0,1,.12.18s.07,0,.07,0a1.2,1.2,0,0,0-.09-.56,0,0,0,0,1,.06-.05,1.19,1.19,0,0,1,.47.91s0,0,.07,0a1.8,1.8,0,0,0,.08-.56,0,0,0,0,1,.07,0,2.53,2.53,0,0,1,0,1.78s0,0,0,0l.22.19c.09,0,.13,0,.13-.14h0a10.22,10.22,0,0,1,0-1.45s.07,0,.07,0a6.22,6.22,0,0,0,.15.68,0,0,0,0,0,.08,0c0-.17.07-.34.1-.53a0,0,0,0,1,.07,0,1.5,1.5,0,0,1,0,.71,0,0,0,0,0,.07,0,.83.83,0,0,0,.13-.34c0-.1.12-.14.14,0a1.58,1.58,0,0,1-.09,1c-.06.12.06.12.13.06a1.32,1.32,0,0,0,.21-1.36A3.16,3.16,0,0,0,94.52,9a0,0,0,0,1,0-.06,2.76,2.76,0,0,1,1,.85,0,0,0,0,0,.06,0,1,1,0,0,0-.13-.49,0,0,0,0,1,.06-.05,1.25,1.25,0,0,1,.28.36c.07.12.2,0,.17-.15a4.26,4.26,0,0,0-.13-.62,0,0,0,0,1,.06,0,1.83,1.83,0,0,1,.28.58s0,0,.07,0a2.15,2.15,0,0,0,0-.82s0-.05.07,0a3.55,3.55,0,0,1,.28,1.23,0,0,0,0,0,.06,0,2.48,2.48,0,0,0,.25-.3s.07,0,.07,0a2.13,2.13,0,0,1-.13.46,0,0,0,0,0,.06,0,6.19,6.19,0,0,0,.55-.59s.08,0,.07,0a3.83,3.83,0,0,1-.41.87s0,.08.06.05A4.17,4.17,0,0,0,98,9.36s.08,0,.07,0a.75.75,0,0,0,0,.16s0,.06.06,0,.21-.3.32-.47a0,0,0,0,1,.07,0,2.44,2.44,0,0,1-.09.47s0,.06,0,.05l.17-.07s.07,0,0,.06a13.17,13.17,0,0,0-.94,1c-.09.1,0,.28.1.17h0a5,5,0,0,1,.86-.77s.07,0,.05,0,0,.11-.07.17,0,.06,0,.05a4.59,4.59,0,0,0,.52-.34s.08,0,0,0a3.09,3.09,0,0,1-.37.43c-.09.09,0,.26.17.19h0a2.5,2.5,0,0,1,2-.5s0,.07,0,.07a3.28,3.28,0,0,0-2.34,1.3,0,0,0,0,0,0,.05c1.15-.58,2-.73,2.63-.38a0,0,0,0,1,0,.07,1.27,1.27,0,0,0-.28,0,0,0,0,0,0,0,.07l.2.1a0,0,0,0,1,0,.06,1.6,1.6,0,0,0-.4.06s0,.07,0,.07a3.34,3.34,0,0,1,2.1,1.21c.08.11,0,.19-.11.12-.64-.69-1.88-.87-2-.47a.91.91,0,0,1,0,.34s-.07,0-.07,0a.55.55,0,0,0-.27-.41,0,0,0,0,0,0,0,.8.8,0,0,1,0,.37s0,0-.07,0-.13-.08-.28-.07-.17,0-.14.1a1,1,0,0,0,.25.3h0c.44-.16.52,0,.58,0s.16-.35.34-.47c0,0,0,0,0,0s0,.06,0,.09.12-.08.31-.12a0,0,0,0,1,0,.06.62.62,0,0,0-.11.17,0,0,0,0,0,0,0l.2,0s0,0,0,.07l-.16.13s0,.06,0,.06a2,2,0,0,1,.66.11s0,.06,0,.07a1.68,1.68,0,0,0-.55.11s0,.07,0,.07a2.74,2.74,0,0,1,.5,0,0,0,0,0,1,0,.08,3.43,3.43,0,0,0-.34.06,0,0,0,0,0,0,.07c.84,0,1.42.24,1.62.71a0,0,0,0,1,0,0,.92.92,0,0,0-.23-.09s-.06,0,0,.06a1.32,1.32,0,0,1,.43.86s0,.06-.07,0a1.26,1.26,0,0,0-.39-.37,0,0,0,0,0,0,0,.82.82,0,0,1,.06.19,0,0,0,0,1-.07,0,.47.47,0,0,0-.1-.1,0,0,0,0,0,0,0,1.86,1.86,0,0,1,.26.76s0,.05-.06,0a1.61,1.61,0,0,0-.22-.23s-.07,0-.05,0a2.16,2.16,0,0,1,.16.63s-.05.05-.07,0a1.81,1.81,0,0,0-.45-.64s-.08,0-.06,0a2,2,0,0,1,0,1.29,0,0,0,0,1-.08,0,2.87,2.87,0,0,0-.33-1.42,0,0,0,0,0-.07,0,4.31,4.31,0,0,1-.1,1.72,0,0,0,0,1-.07,0,3,3,0,0,0-.16-1.13,0,0,0,0,0-.07,0,2.15,2.15,0,0,1,0,.4,0,0,0,0,1-.08,0,3.47,3.47,0,0,0-.18-.81,0,0,0,0,0-.07,0,3.94,3.94,0,0,1-.21.69s-.07,0-.07,0a6.23,6.23,0,0,0-.08-1.06,0,0,0,0,0-.07,0,1.61,1.61,0,0,1-.43.74s-.06,0-.06,0a2.21,2.21,0,0,0,0-.68s-.07,0-.07,0a3,3,0,0,1-.15.45,0,0,0,0,1-.07,0,1.79,1.79,0,0,0-.83-.94c-.05,0-.12,0-.05.07h0a1.19,1.19,0,0,1,.34,1s-.06,0-.07,0a.91.91,0,0,0-.25-.45,0,0,0,0,0-.06,0,.72.72,0,0,1,0,.41s0,0-.06,0a1.23,1.23,0,0,0-.22-.29,0,0,0,0,0-.06,0,1.4,1.4,0,0,1,.16.43s0,.06-.06,0l-.18-.15a0,0,0,0,0,0,0c0,.12-.14.35.06.32,1.9-.33,2.92.56,3.35,2.26,0,0,0,.06-.07,0s-.13-.19-.19-.28-.08,0-.07,0a4.17,4.17,0,0,1,.13.76s-.06.06-.07,0a2.81,2.81,0,0,0-.51-.87c-.07-.07-.14,0-.08.11h0a2.53,2.53,0,0,1,.24.86s0,.05-.06,0a2.18,2.18,0,0,0-.26-.34s-.06,0-.06,0a3.17,3.17,0,0,1-.14.72,0,0,0,0,1-.08,0,1.36,1.36,0,0,0-.22-.82,0,0,0,0,0-.07,0,4.91,4.91,0,0,1,0,1.38s-.07,0-.07,0a3,3,0,0,0-.3-1.08s-.06,0-.06,0a3.54,3.54,0,0,1-.22.57s-.08,0-.07,0a5.51,5.51,0,0,0,.13-1.4s-.06,0-.07,0a4,4,0,0,1-.35,1.22s-.08,0-.07,0a2.55,2.55,0,0,0,0-.61s0-.05-.06,0a2.78,2.78,0,0,0-.28.6s-.07,0-.07,0a5.26,5.26,0,0,1,.12-.78s0-.06-.07,0a3.18,3.18,0,0,0-.37.64s-.06,0-.07,0a2.3,2.3,0,0,1,.44-1.41c0-.07,0-.1-.06,0a2.16,2.16,0,0,0-.25.27,0,0,0,0,1-.07,0,3,3,0,0,0-.27-.77c0-.07-.15,0-.11.05a2.16,2.16,0,0,1-.27,2.23,0,0,0,0,1-.06,0c0-.46,0-.84-.22-1,0,0-.06,0-.06,0a2.26,2.26,0,0,1-.2.85s-.07,0-.07,0a3.34,3.34,0,0,0-.29-1.13,0,0,0,0,0-.07,0,2.93,2.93,0,0,0-.19.61s-.06,0-.07,0a1.6,1.6,0,0,1,0-.21,0,0,0,0,0-.07,0,.75.75,0,0,0,0,.16s-.06,0-.07,0a4.14,4.14,0,0,1-.1-.63,0,0,0,0,0-.07,0,1.77,1.77,0,0,0-.23.65,0,0,0,0,1-.07,0,1.17,1.17,0,0,1-.08-.37,0,0,0,0,0-.07,0,.61.61,0,0,0-.07.14,0,0,0,0,1-.07,0,1.4,1.4,0,0,1,0-.41s0,0-.07,0l-.08.08a4.51,4.51,0,0,1,.21-.68,0,0,0,0,0-.06,0,2,2,0,0,0-.33.41,0,0,0,0,1-.07,0,2.2,2.2,0,0,1,2.06-1.57,0,0,0,0,0,0,0,.75.75,0,0,0,0-.26,0,0,0,0,0,0,0,1.82,1.82,0,0,0-.91.3,0,0,0,0,1-.05-.05c.48-.71,1.14-.72,1.18-.93a0,0,0,0,0,0,0,1.31,1.31,0,0,0-1,.38Z"/><path class="cls-2" d="M90.05,10.18a2.88,2.88,0,0,0-1.6-4.75s0,0,0,.05c1.21,1.11,1.62,2.72.52,3.73a2.28,2.28,0,0,1-3.58-.57s-.05,0-.05,0A2.77,2.77,0,0,0,90.05,10.18Z"/></svg>