<svg id="Layer_1" data-name="Layer 1" xmlns="http://www.w3.org/2000/svg" viewBox="0 0 50 50"><defs><style>.cls-1,.cls-2{fill:#231f20;}.cls-2{fill-rule:evenodd;}</style></defs><title>CSCT-Black Square Logo</title><path class="cls-1" d="M27.35,11.93a2.93,2.93,0,0,0-2.32,1,4,4,0,0,0-.85,2.68,4.07,4.07,0,0,0,.82,2.7,2.94,2.94,0,0,0,2.34.95,8.15,8.15,0,0,0,2.13-.33v.9a6.38,6.38,0,0,1-2.29.35,3.9,3.9,0,0,1-3-1.19,5,5,0,0,1-1.07-3.4,5.41,5.41,0,0,1,.52-2.41,3.72,3.72,0,0,1,1.49-1.6A4.51,4.51,0,0,1,27.36,11a5.39,5.39,0,0,1,2.45.52l-.44.89A4.64,4.64,0,0,0,27.35,11.93Z"/><path class="cls-1" d="M36.81,17.67A2.18,2.18,0,0,1,36,19.5a3.7,3.7,0,0,1-2.32.66,5.63,5.63,0,0,1-2.43-.41v-1a5.92,5.92,0,0,0,1.19.37,6.25,6.25,0,0,0,1.28.13,2.6,2.6,0,0,0,1.56-.39,1.28,1.28,0,0,0,.52-1.09,1.45,1.45,0,0,0-.18-.76,1.79,1.79,0,0,0-.62-.55,10.23,10.23,0,0,0-1.33-.56,4.27,4.27,0,0,1-1.78-1.06,2.33,2.33,0,0,1-.53-1.59,2,2,0,0,1,.77-1.64,3.27,3.27,0,0,1,2-.61,6.16,6.16,0,0,1,2.45.49l-.33.9a5.47,5.47,0,0,0-2.14-.46,2.13,2.13,0,0,0-1.29.35,1.17,1.17,0,0,0-.46,1,1.53,1.53,0,0,0,.17.76,1.59,1.59,0,0,0,.57.55,8.14,8.14,0,0,0,1.25.54,4.87,4.87,0,0,1,1.92,1.07A2.12,2.12,0,0,1,36.81,17.67Z"/><path class="cls-1" d="M42.82,11.93a2.93,2.93,0,0,0-2.32,1,4,4,0,0,0-.85,2.68,4.07,4.07,0,0,0,.82,2.7,2.94,2.94,0,0,0,2.34.95,8,8,0,0,0,2.12-.33v.9a6.28,6.28,0,0,1-2.28.35,3.9,3.9,0,0,1-3-1.19,5,5,0,0,1-1.07-3.4,5.28,5.28,0,0,1,.52-2.41,3.72,3.72,0,0,1,1.49-1.6A4.51,4.51,0,0,1,42.83,11a5.39,5.39,0,0,1,2.45.52l-.44.89A4.67,4.67,0,0,0,42.82,11.93Z"/><polygon class="cls-1" points="32.66 38.32 12.22 38.32 12.22 32.89 12.72 32.89 12.72 37.82 32.66 37.82 32.66 38.32"/><path class="cls-1" d="M34.74,40.5a2.33,2.33,0,1,1,2.33-2.33A2.33,2.33,0,0,1,34.74,40.5Zm0-4.16a1.83,1.83,0,1,0,1.83,1.83A1.83,1.83,0,0,0,34.74,36.34Z"/><rect class="cls-1" x="22.38" y="38.17" width="0.5" height="2.82"/><path class="cls-1" d="M22.63,45.4A2.33,2.33,0,1,1,25,43.07,2.33,2.33,0,0,1,22.63,45.4Zm0-4.15a1.83,1.83,0,1,0,1.83,1.82A1.82,1.82,0,0,0,22.63,41.25Z"/><path class="cls-1" d="M19.43,30.41H17.76V23.94H15.63V22.55h5.94v1.39H19.43Z"/><path class="cls-1" d="M28.19,30.41H23.66V22.55h4.53v1.36H25.33v1.73H28V27H25.33v2h2.86Z"/><path class="cls-1" d="M34.06,23.82a1.7,1.7,0,0,0-1.46.71,3.25,3.25,0,0,0-.52,2c0,1.76.66,2.63,2,2.63a6.07,6.07,0,0,0,2-.41v1.4a5.51,5.51,0,0,1-2.16.4,3.3,3.3,0,0,1-2.63-1,4.43,4.43,0,0,1-.91-3,4.86,4.86,0,0,1,.45-2.15,3.31,3.31,0,0,1,1.28-1.41,3.82,3.82,0,0,1,2-.5,5.29,5.29,0,0,1,2.3.56l-.54,1.35c-.29-.13-.59-.26-.89-.36A2.72,2.72,0,0,0,34.06,23.82Z"/><path class="cls-1" d="M45.06,30.41H43.4V27H40.29v3.39H38.62V22.55h1.67v3.08H43.4V22.55h1.66Z"/><rect class="cls-1" x="12.22" y="27.59" width="0.5" height="4"/><rect class="cls-1" x="12.22" y="22.63" width="0.5" height="4"/><path class="cls-1" d="M18.65,33.32a.93.93,0,0,1-.22.67.76.76,0,0,1-.61.24.89.89,0,0,1-.43-.11.73.73,0,0,1-.28-.32,1.06,1.06,0,0,1-.1-.48,1,1,0,0,1,.21-.66.79.79,0,0,1,.61-.24.73.73,0,0,1,.6.25A.92.92,0,0,1,18.65,33.32Zm-1.26,0c0,.4.14.6.44.6s.44-.2.44-.6-.15-.59-.44-.59a.38.38,0,0,0-.34.15A.78.78,0,0,0,17.39,33.32Z"/><path class="cls-1" d="M20.61,34.2h-.37V33.13a.47.47,0,0,0-.08-.3.31.31,0,0,0-.26-.1.4.4,0,0,0-.34.13.74.74,0,0,0-.11.47v.87h-.37V32.46h.29l.05.22h0a.52.52,0,0,1,.22-.19.83.83,0,0,1,.32-.07.56.56,0,0,1,.63.64Z"/><path class="cls-1" d="M21.49,34.2h-.37V31.75h.37Z"/><path class="cls-1" d="M22,32a.25.25,0,0,1,.05-.15.25.25,0,0,1,.16-.05.25.25,0,0,1,.15.05.2.2,0,0,1,.05.15.17.17,0,0,1-.05.15.2.2,0,0,1-.15.06.21.21,0,0,1-.16-.06A.21.21,0,0,1,22,32Zm.39,2.21H22V32.46h.37Z"/><path class="cls-1" d="M24.45,34.2h-.37V33.13a.47.47,0,0,0-.08-.3.31.31,0,0,0-.26-.1.4.4,0,0,0-.34.13.81.81,0,0,0-.11.47v.87h-.37V32.46h.29l.05.22h0a.59.59,0,0,1,.22-.19.88.88,0,0,1,.32-.07.56.56,0,0,1,.63.64Z"/><path class="cls-1" d="M25.72,34.23a.82.82,0,0,1-.63-.24.92.92,0,0,1-.23-.65,1,1,0,0,1,.21-.67.72.72,0,0,1,.59-.25.7.7,0,0,1,.54.21.82.82,0,0,1,.2.58v.2H25.24a.57.57,0,0,0,.14.39.47.47,0,0,0,.36.13l.29,0a1.9,1.9,0,0,0,.28-.1v.3L26,34.2A1.51,1.51,0,0,1,25.72,34.23Zm-.06-1.53a.38.38,0,0,0-.29.12.49.49,0,0,0-.12.32H26a.49.49,0,0,0-.11-.33A.35.35,0,0,0,25.66,32.7Z"/><path class="cls-1" d="M28.36,34.23a.78.78,0,0,1-.6-.23,1.15,1.15,0,0,1,0-1.34.78.78,0,0,1,.62-.24,1.18,1.18,0,0,1,.5.11l-.12.29a1.08,1.08,0,0,0-.38-.09c-.3,0-.46.2-.46.6a.68.68,0,0,0,.12.44.37.37,0,0,0,.33.15.93.93,0,0,0,.46-.12v.32a.49.49,0,0,1-.21.08A1,1,0,0,1,28.36,34.23Z"/><path class="cls-1" d="M30.8,33.32a1,1,0,0,1-.22.67.79.79,0,0,1-.61.24.86.86,0,0,1-.43-.11.75.75,0,0,1-.29-.32,1.06,1.06,0,0,1-.1-.48.92.92,0,0,1,.22-.66.87.87,0,0,1,1.21,0A1,1,0,0,1,30.8,33.32Zm-1.27,0q0,.6.45.6c.29,0,.44-.2.44-.6s-.15-.59-.45-.59a.39.39,0,0,0-.34.15A.87.87,0,0,0,29.53,33.32Z"/><path class="cls-1" d="M32.69,34.2h-.37V33.12a.51.51,0,0,0-.08-.3.3.3,0,0,0-.24-.09.34.34,0,0,0-.31.14.76.76,0,0,0-.1.46v.87h-.37V32.46h.29l0,.22h0a.55.55,0,0,1,.21-.19.73.73,0,0,1,.3-.07.55.55,0,0,1,.54.28h0a.47.47,0,0,1,.22-.2.66.66,0,0,1,.32-.08.58.58,0,0,1,.45.16.69.69,0,0,1,.15.48V34.2h-.37V33.12a.51.51,0,0,0-.08-.3.3.3,0,0,0-.24-.09.35.35,0,0,0-.31.13.67.67,0,0,0-.1.41Z"/><path class="cls-1" d="M35.77,34.2H35.4V33.12a.51.51,0,0,0-.08-.3.29.29,0,0,0-.23-.09.35.35,0,0,0-.32.14.85.85,0,0,0-.1.46v.87H34.3V32.46h.29l0,.22h0a.55.55,0,0,1,.21-.19.78.78,0,0,1,.31-.07.54.54,0,0,1,.53.28h0a.47.47,0,0,1,.22-.2.66.66,0,0,1,.32-.08.58.58,0,0,1,.45.16.69.69,0,0,1,.15.48V34.2H36.5V33.12a.51.51,0,0,0-.08-.3.3.3,0,0,0-.24-.09.35.35,0,0,0-.31.13.67.67,0,0,0-.1.41Z"/><path class="cls-1" d="M38.61,34.2l0-.23h0a.59.59,0,0,1-.22.19.84.84,0,0,1-.33.07.67.67,0,0,1-.47-.16.67.67,0,0,1-.15-.48V32.46h.37v1.07a.51.51,0,0,0,.08.3.35.35,0,0,0,.26.1.42.42,0,0,0,.34-.14.79.79,0,0,0,.11-.47v-.86h.37V34.2Z"/><path class="cls-1" d="M41,34.2h-.37V33.13a.47.47,0,0,0-.08-.3.31.31,0,0,0-.26-.1.4.4,0,0,0-.34.13.74.74,0,0,0-.11.47v.87h-.37V32.46h.29l.05.22h0a.52.52,0,0,1,.22-.19.83.83,0,0,1,.32-.07.56.56,0,0,1,.63.64Z"/><path class="cls-1" d="M41.45,32a.25.25,0,0,1,0-.15.25.25,0,0,1,.16-.05.21.21,0,0,1,.15.05.2.2,0,0,1,.06.15.21.21,0,0,1-.21.21.21.21,0,0,1-.16-.06A.21.21,0,0,1,41.45,32Zm.39,2.21h-.37V32.46h.37Z"/><path class="cls-1" d="M43,33.93a1.26,1.26,0,0,0,.27,0v.27a.5.5,0,0,1-.16.05l-.2,0c-.35,0-.52-.19-.52-.56v-.93h-.24v-.17l.25-.13.13-.37h.23v.39h.49v.28h-.49v.93a.25.25,0,0,0,.06.19A.24.24,0,0,0,43,33.93Z"/><path class="cls-1" d="M43.37,32.46h.41l.35,1a2.19,2.19,0,0,1,.11.4h0c0-.06,0-.13,0-.21s.16-.48.4-1.17h.4l-.74,2a.71.71,0,0,1-.68.54,1,1,0,0,1-.24,0v-.29l.19,0c.18,0,.3-.1.38-.31l.06-.16Z"/><path class="cls-2" d="M13.56,16.89a0,0,0,0,1-.07,0c.38-.94,1.47-1.16,2-1.4.11,0,.09-.08.09-.17a2.05,2.05,0,0,1,1.05-1.8c.11-.06.13-.18,0-.29a2.63,2.63,0,0,0-1.45-.72c-.05,0-.07.07,0,.08a2.12,2.12,0,0,1,1,.62.22.22,0,0,1-.06.32,1.66,1.66,0,0,0-.81,1.73,0,0,0,0,1-.08,0,1.4,1.4,0,0,1-.23-.62,0,0,0,0,0-.08,0,1.78,1.78,0,0,0-.12.79s-.06.06-.09,0a1,1,0,0,1-.12-.39,0,0,0,0,0-.08,0,2.58,2.58,0,0,0-.16.53,0,0,0,0,1-.09,0,3.84,3.84,0,0,1,0-1.26,0,0,0,0,0-.08,0A3,3,0,0,0,14,15.56a0,0,0,0,1-.09,0,1.66,1.66,0,0,1,0-1.09s0-.07-.08-.05a2.45,2.45,0,0,0-.54,1s-.09,0-.08,0a4.41,4.41,0,0,1,.48-1.8,0,0,0,0,0-.07-.05,3.47,3.47,0,0,0-.89,1.15,0,0,0,0,1-.09,0,3.41,3.41,0,0,1,.7-1.53,0,0,0,0,0-.06-.06,2.71,2.71,0,0,0-.88,1.23,0,0,0,0,1-.09,0,2.81,2.81,0,0,1,.18-.85s0-.08-.07-.05c-.18.19-.37.4-.55.63,0,0-.09,0-.07-.05a7.51,7.51,0,0,1,1-1.64h0c.12-.13-.06-.23-.17-.16a3.89,3.89,0,0,0-.39.47,0,0,0,0,1-.08,0,4.22,4.22,0,0,0,0-1c0-.11-.14-.11-.13,0a3.23,3.23,0,0,1-.8,2.67c-.08.07,0,.16,0,.15.7-.15,1.9.71,2.05,2.34a0,0,0,0,1-.08,0,2.2,2.2,0,0,0-.41-.4,0,0,0,0,0-.07,0,12.4,12.4,0,0,1,.45,1.22c0,.13-.09.16-.15.06a3.65,3.65,0,0,0-.5-.77c-.12-.14-.27,0-.16.14a2.22,2.22,0,0,1,.34,1.18c0,.17-.13.21-.19,0a3.37,3.37,0,0,0-.73-1.28.1.1,0,0,0-.17.11c.1.21.29.36.3.64,0,.1,0,.16-.09.17s0,0,0,.06a4,4,0,0,1,.35.83S12,19,12,19a7.51,7.51,0,0,0-.67-.9s-.09,0-.07.05a3,3,0,0,1,.3,2.64s-.09,0-.09,0c0-.8-.16-1.41-.51-1.55a.05.05,0,0,0-.06.05,1.31,1.31,0,0,1-.08,1.08,0,0,0,0,1-.08,0,.82.82,0,0,0-.15-.56,0,0,0,0,0-.07,0,1.37,1.37,0,0,0-.13.2,0,0,0,0,1-.09,0c0-.07,0-.14,0-.21s0-.06-.06,0l-.2.08A0,0,0,0,1,10,19.7c.05-.16.1-.31.14-.48s-.11-.16-.15-.08a2.16,2.16,0,0,1-.27.44c-.09.09-.05.21.06.28.7.51.94,1,.93,1.42a0,0,0,0,1-.08,0,1.72,1.72,0,0,0-.31-.39,0,0,0,0,0-.07,0,3.54,3.54,0,0,1,.22.85c0,.05-.07.06-.08,0a2.33,2.33,0,0,0-.33-.52,0,0,0,0,0-.08,0,3.37,3.37,0,0,1,.06.7A0,0,0,0,1,10,22a2.68,2.68,0,0,0-.12-.24s-.09,0-.08,0a2.75,2.75,0,0,1,0,.4,0,0,0,0,1-.08,0A1.28,1.28,0,0,0,9.55,22s-.08,0-.08,0a1.06,1.06,0,0,1,0,.52,0,0,0,0,1-.08,0,4.36,4.36,0,0,0-.44-.92,0,0,0,0,0-.08,0,2.79,2.79,0,0,1-.1,1.29,0,0,0,0,1-.08,0,3.06,3.06,0,0,0-.28-1.24,0,0,0,0,0-.08,0l-.15.39s-.08,0-.08,0A3,3,0,0,0,8,21.35a0,0,0,0,0-.08,0,2.53,2.53,0,0,0,0,1.36c0,.05,0,.08-.07.05a1,1,0,0,1-.31-.44.05.05,0,0,0-.09,0,4.09,4.09,0,0,0-.18.56,0,0,0,0,1-.08,0,1.33,1.33,0,0,1-.17-.43,0,0,0,0,0-.08,0l-.21.38a0,0,0,0,1-.09,0,3.83,3.83,0,0,1,.1-.59c0-.05,0-.08-.07-.05a2.23,2.23,0,0,0-.33.54,0,0,0,0,1-.08,0,3.76,3.76,0,0,1,.68-1.82c.27-.37.61-.52.74-.7,0,0,0-.08-.06-.06a4.16,4.16,0,0,0-1.74,1.78,0,0,0,0,1-.09,0,1.88,1.88,0,0,1,0-.33,0,0,0,0,0-.07-.05,2.55,2.55,0,0,0-.84,1,0,0,0,0,1-.08,0,2.26,2.26,0,0,1,.36-.84s0-.09-.06-.07a1.61,1.61,0,0,0-.34.27,0,0,0,0,1-.07,0,3.18,3.18,0,0,1,.42-.87A0,0,0,0,0,5,20.77l-.11.08s-.08,0-.06-.05a1,1,0,0,1,.1-.21,0,0,0,0,0-.06-.06,1.91,1.91,0,0,0-.52.4,0,0,0,0,1-.07,0,1.45,1.45,0,0,1,.65-1s0-.09,0-.08a1.15,1.15,0,0,0-.29.08s-.08,0,0-.07a2.07,2.07,0,0,1,1.19-.68,0,0,0,0,0,0-.08,2.54,2.54,0,0,0-.5-.23,0,0,0,0,1,0-.08l.26-.07a0,0,0,0,0,0-.08,2.43,2.43,0,0,0-.61-.24c-.05,0,0-.08,0-.09a10.38,10.38,0,0,1,3.49.27,3.2,3.2,0,0,1,.88.58s0,0,0,0c.36-.21.43-.55.27-1a0,0,0,0,0-.08,0c-.07.15-.12.29-.17.42a0,0,0,0,1-.09,0,4,4,0,0,1,0-.6s0,0,0,0-.07,0-.11.09-.09,0-.07,0,0-.13.05-.21a.05.05,0,0,0,0-.05s-.06,0-.08.07-.08,0-.08,0a1.17,1.17,0,0,0,0-.59c-.06-.11-.14-.07-.13,0a2,2,0,0,1-.13,1.12,0,0,0,0,1-.08,0,3.38,3.38,0,0,0-.14-.88s-.07-.05-.08,0a2.22,2.22,0,0,0-.14.63,0,0,0,0,1-.09,0,3.59,3.59,0,0,1-.05-.93,0,0,0,0,0-.09,0,4.22,4.22,0,0,0-.23.76,0,0,0,0,1-.09,0,5.3,5.3,0,0,1,.15-1.45c0-.05-.06-.08-.08,0a2.28,2.28,0,0,0-.17.3,0,0,0,0,1-.08,0,3,3,0,0,1,.15-1s0-.08-.07,0a1.16,1.16,0,0,0-.28.31.05.05,0,0,1-.08,0l-.17-.22a0,0,0,0,0-.08,0c.4,1.08.48,1.77.29,2.14a0,0,0,0,1-.09,0A3,3,0,0,0,7,17a0,0,0,0,0-.09,0,5.1,5.1,0,0,1-.13.92,0,0,0,0,1-.09,0,6.23,6.23,0,0,0-.14-.83,0,0,0,0,0-.09,0,2.91,2.91,0,0,0-.15.63,0,0,0,0,1-.09,0,5.6,5.6,0,0,1,0-1.3,0,0,0,0,0-.09,0,9.19,9.19,0,0,0-.32,1.48,0,0,0,0,1-.08,0,2.32,2.32,0,0,1,0-.79s-.05-.06-.07,0l-.35.36c-.06.1-.18.07-.14-.07a3.91,3.91,0,0,1,.31-.72h0c.07-.09-.07-.17-.16-.07a2.63,2.63,0,0,0-.64,1.06,0,0,0,0,1-.09,0,2.82,2.82,0,0,1,.07-.79c0-.14,0-.2-.14-.13L4.14,17s-.09,0-.07-.05a2.43,2.43,0,0,1,.62-1c.09-.08,0-.19-.15-.11a3.74,3.74,0,0,0-.83.9,0,0,0,0,1-.08,0,4.55,4.55,0,0,1,.44-.93s0-.09-.06-.06L3.66,16A0,0,0,0,1,3.59,16a5.89,5.89,0,0,1,1-1.32h0c.08-.12,0-.24-.52-.17,0,0-.06-.05,0-.07a1.79,1.79,0,0,1,2.32.17.23.23,0,0,0,.35-.05,2.45,2.45,0,0,1,.8-.67c.26-.11.38,0,.2.18h0a3,3,0,0,0-.4.82c0,.17,0,.25.16.12s.39-.46.58-.69c0,0,.08,0,.08,0a2.37,2.37,0,0,0,1.43,2c.2.1.33,0,.34-.17a2.27,2.27,0,0,1,.76-1.38c.07-.07,0-.12-.07-.09-.25.07-.4.38-.58.62a0,0,0,0,1-.08,0A1.31,1.31,0,0,1,10,15a0,0,0,0,0-.07-.05,2.06,2.06,0,0,0-.45.62,0,0,0,0,1-.09,0,1.3,1.3,0,0,1,.07-.33s0-.07-.07,0a2.23,2.23,0,0,0-.21.22,0,0,0,0,1-.08,0,1.86,1.86,0,0,1,.59-.72s0-.1-.05-.08a1.84,1.84,0,0,0-.67.4,0,0,0,0,1-.07-.05,3.75,3.75,0,0,1,.91-1.17,0,0,0,0,0,0-.07,5.92,5.92,0,0,0-1.23.75,0,0,0,0,1-.06-.06,2.33,2.33,0,0,1,1.17-1s.36-.32.2-.53,1.19-.61,1.27-.69a1.59,1.59,0,0,0,.07-1.66c-.31-.6-.26-1,.15-.59,0,0,.08,0,.07,0a1.58,1.58,0,0,0-.22-.57,0,0,0,0,1,.06-.06,1.29,1.29,0,0,1,.38.39c.1.14.24,0,.18-.21a6.51,6.51,0,0,0-.23-.71,0,0,0,0,1,.07-.05,2.48,2.48,0,0,1,.4.66,0,0,0,0,0,.09,0,2.64,2.64,0,0,0-.11-1,0,0,0,0,1,.08,0,4.33,4.33,0,0,1,.5,1.42,0,0,0,0,0,.08,0,3.77,3.77,0,0,0,.26-.39,0,0,0,0,1,.08,0,2.26,2.26,0,0,1-.09.57s.05.07.08,0a7.9,7.9,0,0,0,.58-.78,0,0,0,0,1,.08,0,4.75,4.75,0,0,1-.37,1.1s0,.08.08.05A5.49,5.49,0,0,0,14.11,9c0-.05.09,0,.08,0a1.29,1.29,0,0,1,0,.19c0,.05.06.08.08,0a5.86,5.86,0,0,0,.32-.61,0,0,0,0,1,.09,0,2.83,2.83,0,0,1,0,.58,0,0,0,0,0,.07,0l.19-.1a0,0,0,0,1,.05.07,15.24,15.24,0,0,0-1,1.33c-.09.14,0,.34.14.19h0a6.81,6.81,0,0,1,.92-1s.08,0,.07.05L15,10s0,.08.06.06c.19-.13.38-.3.58-.47a0,0,0,0,1,.07.05,4.63,4.63,0,0,1-.39.56c-.09.12.05.31.23.2h0a3,3,0,0,1,2.38-.88,0,0,0,0,1,0,.09,3.93,3.93,0,0,0-2.62,1.86s0,.09.06.06c1.29-.86,2.33-1.15,3.08-.81,0,0,0,.08,0,.08a1.5,1.5,0,0,0-.32.08,0,0,0,0,0,0,.08.81.81,0,0,1,.25.09s0,.08,0,.08a1.54,1.54,0,0,0-.47.12.05.05,0,0,0,0,.09,4,4,0,0,1,2.68,1.15c.1.13,0,.23-.13.16-.85-.73-2.35-.78-2.41-.29a1.22,1.22,0,0,1,0,.41,0,0,0,0,1-.08,0,.67.67,0,0,0-.37-.46,0,0,0,0,0-.06.06,1.13,1.13,0,0,1,.1.44,0,0,0,0,1-.08,0c-.08-.12-.17-.09-.35,0s-.2,0-.15.14a1,1,0,0,0,.33.33,0,0,0,0,0,.05,0c.49-.25.62,0,.68-.09s.15-.44.35-.6a0,0,0,0,1,.06,0s0,.08,0,.12.13-.12.36-.19c0,0,.07,0,.05.06a1.07,1.07,0,0,0-.1.22,0,0,0,0,0,.06.06,1.09,1.09,0,0,1,.23-.09s.07.05,0,.08a1,1,0,0,0-.17.18s0,.07,0,.07a2.36,2.36,0,0,1,.8,0,0,0,0,0,1,0,.09,2.18,2.18,0,0,0-.64.2,0,0,0,0,0,0,.09,3,3,0,0,1,.6,0s.06.08,0,.09l-.39.12a0,0,0,0,0,0,.09c1-.09,1.73.08,2,.62,0,0,0,.07-.05.06l-.29-.07s-.07.06,0,.08a1.57,1.57,0,0,1,.63,1s-.05.07-.08,0a1.65,1.65,0,0,0-.51-.39s-.08,0-.06.06a2,2,0,0,1,.1.21,0,0,0,0,1-.08.05.69.69,0,0,0-.13-.11,0,0,0,0,0-.06.06,2.5,2.5,0,0,1,.42.87,0,0,0,0,1-.07,0A1.54,1.54,0,0,0,21,16,0,0,0,0,0,21,16a2.68,2.68,0,0,1,.28.72c0,.05-.06.08-.08,0a2.41,2.41,0,0,0-.64-.71s-.08,0-.06.06a2.24,2.24,0,0,1,.18,1.53,0,0,0,0,1-.08,0A3.57,3.57,0,0,0,20,16a0,0,0,0,0-.08,0A5.14,5.14,0,0,1,20,18.09a0,0,0,0,1-.09,0,3.59,3.59,0,0,0-.34-1.33s-.08,0-.08,0a4,4,0,0,1,0,.49c0,.05-.08.05-.09,0a4,4,0,0,0-.32-.94,0,0,0,0,0-.09,0,4.57,4.57,0,0,1-.16.85,0,0,0,0,1-.08,0,10.38,10.38,0,0,0-.24-1.26c0-.05-.08,0-.09,0a1.92,1.92,0,0,1-.41.94s-.08,0-.08,0a2.72,2.72,0,0,0-.09-.81,0,0,0,0,0-.09,0,2.42,2.42,0,0,1-.12.56,0,0,0,0,1-.08,0,2.12,2.12,0,0,0-1.11-1c-.07,0-.15,0-.06.09h0a1.44,1.44,0,0,1,.54,1.12s-.07.05-.08,0a1,1,0,0,0-.37-.49s-.08,0-.06.05a.91.91,0,0,1,.06.49,0,0,0,0,1-.08,0,1.3,1.3,0,0,0-.3-.32,0,0,0,0,0-.06.06,2.23,2.23,0,0,1,.24.49,0,0,0,0,1-.07.05A1.88,1.88,0,0,0,16,17s-.06,0-.06,0-.12.44.12.37c2.22-.64,3.56.28,4.3,2.25a0,0,0,0,1-.07,0q-.14-.16-.27-.3a0,0,0,0,0-.07.05,5.81,5.81,0,0,1,.25.88c0,.05-.06.08-.08,0a3.44,3.44,0,0,0-.73-1c-.08-.07-.15.06-.07.14h0a3.19,3.19,0,0,1,.42,1,0,0,0,0,1-.08,0,2.45,2.45,0,0,0-.36-.36,0,0,0,0,0-.07,0,2.76,2.76,0,0,1-.07.88c0,.05-.08,0-.08,0a1.69,1.69,0,0,0-.39-1,0,0,0,0,0-.07,0,5.81,5.81,0,0,1,.18,1.64,0,0,0,0,1-.08,0,4,4,0,0,0-.5-1.25s-.08,0-.08,0a4,4,0,0,1-.18.7,0,0,0,0,1-.09,0,7.49,7.49,0,0,0,0-1.69,0,0,0,0,0-.09,0,4.56,4.56,0,0,1-.26,1.5c0,.05-.08,0-.08,0a3.5,3.5,0,0,0,0-.73s-.07-.05-.08,0a3.88,3.88,0,0,0-.25.75c0,.05-.08,0-.09,0,0-.31,0-.63,0-.95,0,0-.06-.07-.08,0a3.27,3.27,0,0,0-.36.82,0,0,0,0,1-.08,0,2.64,2.64,0,0,1,.32-1.74c.05-.1,0-.12-.08-.06a3.32,3.32,0,0,0-.26.36,0,0,0,0,1-.08,0,3.8,3.8,0,0,0-.43-.88.08.08,0,0,0-.13.08,2.57,2.57,0,0,1,0,2.7,0,0,0,0,1-.08,0c0-.55-.11-1-.4-1.18a0,0,0,0,0-.07,0,2.57,2.57,0,0,1-.12,1,0,0,0,0,1-.09,0,3.69,3.69,0,0,0-.5-1.31,0,0,0,0,0-.07,0,2.69,2.69,0,0,0-.15.75,0,0,0,0,1-.08,0,1.17,1.17,0,0,1-.09-.24s-.07,0-.09,0l0,.21s-.07.05-.09,0a5.33,5.33,0,0,1-.21-.74s-.06-.05-.08,0a2.35,2.35,0,0,0-.19.81,0,0,0,0,1-.08,0,2.28,2.28,0,0,1-.15-.44s-.06,0-.08,0a.49.49,0,0,0-.06.17s-.07,0-.09,0a2.07,2.07,0,0,1-.12-.49,0,0,0,0,0-.08,0l-.09.11a7.34,7.34,0,0,1,.16-.84,0,0,0,0,0-.07,0,2.71,2.71,0,0,0-.35.53,0,0,0,0,1-.08,0,2.63,2.63,0,0,1,2.25-2.16s0,0,0,0a1.2,1.2,0,0,0,0-.33,0,0,0,0,0-.05,0,2.16,2.16,0,0,0-1,.49s-.09,0-.07-.06c.48-.91,1.27-1,1.28-1.27a0,0,0,0,0,0-.05,1.65,1.65,0,0,0-1.16.59Z"/><path class="cls-2" d="M8.82,11.4A3.28,3.28,0,0,0,7,6S7,6,7,6c1.39,1.26,1.85,3.1.6,4.25a2.6,2.6,0,0,1-4.08-.65s-.07,0-.06,0A3.15,3.15,0,0,0,8.82,11.4Z"/></svg>