<svg id="Layer_1" data-name="Layer 1" xmlns="http://www.w3.org/2000/svg" viewBox="0 0 107.13 50"><defs><style>.cls-1,.cls-3{font-size:12px;}.cls-1,.cls-7,.cls-8{fill:#00a79d;}.cls-1{font-family:OpenSans, Open Sans;letter-spacing:-0.02em;}.cls-2{fill:#00534d;}.cls-3,.cls-5,.cls-6{fill:#443642;}.cls-3{font-family:OpenSans-Bold, Open Sans;}.cls-3,.cls-5{font-weight:700;}.cls-4{fill:none;stroke:#443642;stroke-miterlimit:10;stroke-width:0.5px;}.cls-5{font-size:3.65px;font-family:OpenSans-Semibold, Open Sans;}.cls-8{fill-rule:evenodd;}</style></defs><title>CSCT-Full Logo</title><text class="cls-1" transform="translate(13.96 22.7)">COLUMBIA<tspan class="cls-2" x="59.8" y="0">SC</tspan></text><text class="cls-3" transform="translate(16.96 37.15)">TECH</text><line class="cls-4" x1="73.99" y1="25.55" x2="78.99" y2="25.55"/><line class="cls-4" x1="82.44" y1="25.55" x2="87.44" y2="25.55"/><polyline class="cls-4" points="26.32 12.6 26.32 7.36 13.74 7.36"/><circle class="cls-4" cx="11.84" cy="7.27" r="1.9"/><polyline class="cls-4" points="50.52 28.51 50.52 37.75 77.99 37.75"/><circle class="cls-4" cx="79.89" cy="37.84" r="1.9"/><polyline class="cls-4" points="90.32 25.55 95.85 25.55 95.85 18.63"/><polyline class="cls-4" points="70.3 25.55 14.44 25.55 14.44 31.69 9.28 31.69"/><circle class="cls-4" cx="7.37" cy="31.69" r="1.9"/><line class="cls-4" x1="50.52" y1="37.24" x2="50.52" y2="41.82"/><circle class="cls-4" cx="50.52" cy="43.73" r="1.9"/><text class="cls-5" transform="translate(60.29 33.13)">online community</text><path class="cls-6" d="M56.46,29.92a2.22,2.22,0,0,1,2.41,2,2.45,2.45,0,0,1-2.78,1.93,3.09,3.09,0,0,1-1.43.37h-.19V34c.32-.15.51-.33.49-.5a.71.71,0,0,1,0-.14,1.84,1.84,0,0,1-.9-1.52,2.22,2.22,0,0,1,2.41-2m0-.35a2.57,2.57,0,0,0-2.76,2.31,2.15,2.15,0,0,0,.88,1.69,1.41,1.41,0,0,1-.27.16l-.19.09v.66l.3,0h.24a3.58,3.58,0,0,0,1.5-.36l.3,0a2.57,2.57,0,0,0,2.76-2.31,2.57,2.57,0,0,0-2.76-2.31Z"/><g id="cKpX0f.tif"><path class="cls-7" d="M56.15,31.26l.51-.05a2.11,2.11,0,0,1,0-.25.2.2,0,0,1,.13-.22.2.2,0,0,1,.27.15l0,.26v0l.2,0a.33.33,0,0,1,.1,0,.2.2,0,0,1,0,.4l-.12,0H57.1l0,.5h.05l.23,0a.2.2,0,0,1,.2.19.21.21,0,0,1-.16.22l-.26,0h0a1.94,1.94,0,0,1,0,.24.21.21,0,1,1-.41,0,1.8,1.8,0,0,0,0-.22v0l-.5,0a2.28,2.28,0,0,0,0,.26.22.22,0,0,1-.07.17.19.19,0,0,1-.2.05.23.23,0,0,1-.14-.15,2.11,2.11,0,0,1,0-.25v0l-.24,0a.19.19,0,0,1-.2-.1.21.21,0,0,1,.13-.31l.26,0h0l0-.51-.25,0a.18.18,0,0,1-.2-.1.2.2,0,0,1,.13-.3,2.13,2.13,0,0,1,.25,0h0c0-.08,0-.16,0-.24a.19.19,0,0,1,.12-.21.2.2,0,0,1,.29.17c0,.07,0,.15,0,.22Zm.08.92.5,0,0-.51-.51.05Z"/></g><path class="cls-8" d="M97.22,14.47a0,0,0,0,1,0,0c.4-.74,1.32-.82,1.8-1,.09,0,.08-.05.09-.13a1.67,1.67,0,0,1,1-1.38.15.15,0,0,0,0-.24A2.25,2.25,0,0,0,99,11s-.06,0,0,.07a1.79,1.79,0,0,1,.76.6.18.18,0,0,1-.08.26,1.37,1.37,0,0,0-.83,1.35s0,.05-.07,0a1.15,1.15,0,0,1-.13-.53,0,0,0,0,0-.07,0,1.51,1.51,0,0,0-.17.64s-.06,0-.07,0a.8.8,0,0,1-.07-.34s0,0-.06,0a2.76,2.76,0,0,0-.19.42,0,0,0,0,1-.07,0,3.49,3.49,0,0,1,.15-1s0-.06-.06,0a2.55,2.55,0,0,0-.33,1.07,0,0,0,0,1-.07,0,1.31,1.31,0,0,1,.07-.9,0,0,0,0,0-.06,0,1.81,1.81,0,0,0-.54.79s-.08,0-.07,0a3.58,3.58,0,0,1,.57-1.44,0,0,0,0,0,0-.05,2.72,2.72,0,0,0-.85.87s-.08,0-.07,0a2.83,2.83,0,0,1,.72-1.21,0,0,0,0,0,0-.05,2.32,2.32,0,0,0-.85.93,0,0,0,0,1-.07,0,2.44,2.44,0,0,1,.23-.69,0,0,0,0,0,0,0A6.88,6.88,0,0,0,96,12s-.07,0,0,0a6.4,6.4,0,0,1,1-1.26h0c.11-.1,0-.2-.13-.15a3.89,3.89,0,0,0-.37.35,0,0,0,0,1-.06,0,3.39,3.39,0,0,0,.06-.8c0-.09-.1-.1-.11,0a2.67,2.67,0,0,1-.9,2.13c-.08.05-.06.13,0,.13.59-.07,1.5.76,1.47,2.12a0,0,0,0,1-.07,0,1.42,1.42,0,0,0-.3-.37s-.06,0-.06,0a9.48,9.48,0,0,1,.26,1.05c0,.11-.1.12-.13,0a3.59,3.59,0,0,0-.34-.68c-.09-.12-.22-.05-.15.1a1.82,1.82,0,0,1,.17,1c0,.14-.13.16-.16,0a2.83,2.83,0,0,0-.48-1.13c-.07-.1-.18,0-.15.07s.21.32.19.56c0,.08,0,.13-.1.13a0,0,0,0,0,0,.05,2.69,2.69,0,0,1,.21.72s0,0-.07,0a6,6,0,0,0-.46-.82s-.08,0-.06,0a2.52,2.52,0,0,1,0,2.21,0,0,0,0,1-.07,0c0-.66,0-1.17-.27-1.32a0,0,0,0,0-.06,0,1.13,1.13,0,0,1-.17.89s-.07,0-.06,0a.8.8,0,0,0-.07-.49s0,0-.06,0l-.13.15s-.07,0-.06,0a.47.47,0,0,1,0-.17s0-.05-.05,0l-.17.05s0,0,0-.05a3.08,3.08,0,0,0,.16-.38c0-.11-.07-.14-.11-.08a1.76,1.76,0,0,1-.27.33.15.15,0,0,0,0,.24,1.46,1.46,0,0,1,.64,1.26,0,0,0,0,1-.07,0,1.38,1.38,0,0,0-.22-.35,0,0,0,0,0-.06,0,2.46,2.46,0,0,1,.1.72,0,0,0,0,1-.07,0,1.86,1.86,0,0,0-.22-.47,0,0,0,0,0-.06,0,2.24,2.24,0,0,1,0,.58s-.06,0-.07,0a1,1,0,0,0-.08-.21s-.07,0-.07,0a1.82,1.82,0,0,1,0,.33s-.06,0-.07,0a1,1,0,0,0-.11-.23,0,0,0,0,0-.07,0,1,1,0,0,1-.07.43s-.06,0-.07,0a4.17,4.17,0,0,0-.27-.8s-.07,0-.07,0A2.43,2.43,0,0,1,92.67,19a0,0,0,0,1-.06,0,2.5,2.5,0,0,0-.12-1,0,0,0,0,0-.07,0,2.25,2.25,0,0,1-.16.31s-.07,0-.06,0a3,3,0,0,0,0-.59,0,0,0,0,0-.07,0,2.16,2.16,0,0,0-.16,1.12,0,0,0,0,1-.07,0,.91.91,0,0,1-.21-.39,0,0,0,0,0-.07,0,3.07,3.07,0,0,0-.2.45,0,0,0,0,1-.07,0,1,1,0,0,1-.1-.37,0,0,0,0,0-.06,0,1.69,1.69,0,0,0-.22.29,0,0,0,1,1-.06,0,2.72,2.72,0,0,1,.13-.49s0-.06-.05,0a1.62,1.62,0,0,0-.32.41s-.08,0-.07,0a3.21,3.21,0,0,1,.74-1.44,5.33,5.33,0,0,1,.67-.5s0-.08,0-.06a3.46,3.46,0,0,0-1.61,1.31s-.07,0-.07,0a2.68,2.68,0,0,1,.07-.27,0,0,0,0,0,0,0,2,2,0,0,0-.78.7s-.08,0-.07,0a2,2,0,0,1,.38-.67s0-.07,0-.05a1.3,1.3,0,0,0-.31.19,0,0,0,0,1,0-.05,2.59,2.59,0,0,1,.43-.68,0,0,0,0,0,0-.05l-.09.05a0,0,0,0,1,0-.05.86.86,0,0,1,.1-.16,0,0,0,0,0,0-.06,1.77,1.77,0,0,0-.47.28,0,0,0,0,1-.06,0,1.24,1.24,0,0,1,.64-.76s0-.07,0-.07l-.25,0a0,0,0,0,1,0-.06,1.65,1.65,0,0,1,1-.44,0,0,0,0,0,0-.07,2.23,2.23,0,0,0-.4-.24s0-.06,0-.07l.22,0a0,0,0,0,0,0-.07,1.81,1.81,0,0,0-.48-.26,0,0,0,0,1,0-.07,8.47,8.47,0,0,1,2.87.55,2.73,2.73,0,0,1,.66.56,0,0,0,0,0,0,0c.32-.13.4-.41.32-.81a0,0,0,0,0-.07,0l-.18.33a0,0,0,0,1-.07,0,4.13,4.13,0,0,1,.07-.49s0,0,0,0-.06,0-.09.07a0,0,0,0,1-.06,0l.06-.17s0,0,0,0,0,0-.07,0-.07,0-.07,0a1,1,0,0,0,0-.49c0-.1-.11-.07-.12,0a1.69,1.69,0,0,1-.21.92s-.07,0-.07,0a3,3,0,0,0,0-.74s-.06,0-.07,0a2.05,2.05,0,0,0-.18.51,0,0,0,0,1-.07,0,3.37,3.37,0,0,1,0-.77,0,0,0,1,0-.06,0,3.41,3.41,0,0,0-.27.61s-.07,0-.07,0a4.38,4.38,0,0,1,.25-1.18,0,0,0,0,0-.06,0l-.17.24a0,0,0,0,1-.06,0,2.28,2.28,0,0,1,.22-.82,0,0,0,0,0-.06,0,1.43,1.43,0,0,0-.26.23s0,0-.06,0l-.12-.2s-.08,0-.07,0a2.56,2.56,0,0,1,0,1.8,0,0,0,0,1-.07,0,2.29,2.29,0,0,0-.07-.68,0,0,0,0,0-.07,0,5.11,5.11,0,0,1-.2.75s-.07,0-.07,0a5.14,5.14,0,0,0,0-.71,0,0,0,0,0-.07,0,2.47,2.47,0,0,0-.19.5s-.07,0-.07,0a4.53,4.53,0,0,1,.1-1.08s-.05-.06-.07,0a7.21,7.21,0,0,0-.4,1.19,0,0,0,0,1-.07,0,1.82,1.82,0,0,1,.06-.65s0-.05-.06,0l-.32.27c-.06.07-.15,0-.11-.08a2.58,2.58,0,0,1,.33-.56h0c.07-.07,0-.15-.12-.07a2,2,0,0,0-.63.82,0,0,0,0,1-.07,0,2.08,2.08,0,0,1,.13-.65c0-.11,0-.16-.11-.12l-.32.22a0,0,0,0,1,0,0,2,2,0,0,1,.61-.76c.08-.06,0-.16-.11-.1a3,3,0,0,0-.78.66s-.07,0-.06,0a4.35,4.35,0,0,1,.46-.73s0-.08,0-.05l-.32.22a0,0,0,0,1-.05-.06,4.38,4.38,0,0,1,1-1h0c.08-.09.06-.19-.41-.18a0,0,0,0,1,0-.07,1.49,1.49,0,0,1,1.9.36.18.18,0,0,0,.29,0,2,2,0,0,1,.73-.47c.22-.07.31,0,.15.16h0a2.2,2.2,0,0,0-.41.65c-.06.13,0,.21.12.11l.55-.52a0,0,0,0,1,.06,0,2,2,0,0,0,1,1.77c.16.1.28,0,.3-.11A1.87,1.87,0,0,1,95,12.41c.07-.05,0-.09,0-.08s-.36.27-.53.46a0,0,0,0,1-.07,0,1.72,1.72,0,0,1,.07-.21,0,0,0,0,0,0,0A1.78,1.78,0,0,0,94,13s-.08,0-.07,0a1.61,1.61,0,0,1,.09-.26,0,0,0,0,0,0,0,1,1,0,0,0-.2.16s-.08,0-.06,0a1.77,1.77,0,0,1,.55-.54s0-.08,0-.07a1.66,1.66,0,0,0-.59.27s-.07,0-.06-.05a3.37,3.37,0,0,1,.87-.88,0,0,0,0,0,0-.06,4.59,4.59,0,0,0-1.08.5s-.08,0,0-.05a1.91,1.91,0,0,1,1.06-.71s.33-.23.22-.42a1.17,1.17,0,0,0-.66-.4,0,0,0,0,0,0,.06,1,1,0,0,1,.13.32,0,0,0,0,1,0,0,2,2,0,0,0-.65-.29,0,0,0,0,0,0,.06,2.6,2.6,0,0,1,.38.36s0,.07,0,.06a2.41,2.41,0,0,0-.37-.07,0,0,0,0,0,0,.05,1,1,0,0,1,0,.45s0,0-.07,0c-.36-.77-.92-.37-1.51.21a0,0,0,0,1-.06,0,2.38,2.38,0,0,1,.29-.66,0,0,0,0,0,0-.06,2,2,0,0,0-.52.32s-.08,0-.06-.05a2.52,2.52,0,0,1,.93-.73,0,0,0,0,0,0-.07,1.93,1.93,0,0,0-.64.08s-.07-.05,0-.07A5.47,5.47,0,0,1,92.61,10c.14-.05.06-.19,0-.2a4.49,4.49,0,0,0-1.54.29S91,10,91,10a5.22,5.22,0,0,1,1-.5,0,0,0,0,0,0-.06,1.8,1.8,0,0,1-.67-.68s0-.07.06,0a2.69,2.69,0,0,0,.93.47s0,0,0,0-.07-.17,0-.2.07,0,.1.06.1,0,.08-.08a1.3,1.3,0,0,0-.14-.32s0-.07.05,0l.24.19a0,0,0,0,0,.06,0,2.07,2.07,0,0,0-.33-1,0,0,0,0,1,0,0,6.39,6.39,0,0,1,.47.64s.06,0,.06,0a1.4,1.4,0,0,0-.07-.38,0,0,0,0,1,.06,0,1.86,1.86,0,0,1,.46.66s.07,0,.07,0a.57.57,0,0,0,0-.13,0,0,0,0,1,.07,0,.42.42,0,0,1,.11.18,0,0,0,0,0,.08,0,1.28,1.28,0,0,0-.1-.57,0,0,0,0,1,.06,0,1.14,1.14,0,0,1,.47.9s.06,0,.07,0a1.54,1.54,0,0,0,.08-.56,0,0,0,0,1,.08,0,2.61,2.61,0,0,1,0,1.79.06.06,0,0,0,0,0l.22.19c.09,0,.13,0,.13-.15h0a12,12,0,0,1,0-1.45s.07,0,.07,0a4.82,4.82,0,0,0,.16.68,0,0,0,0,0,.07,0,4.51,4.51,0,0,0,.1-.53,0,0,0,0,1,.07,0,1.53,1.53,0,0,1,0,.72,0,0,0,0,0,.07,0,.89.89,0,0,0,.13-.34c0-.11.12-.14.15,0a1.54,1.54,0,0,1-.1,1c-.06.13.06.13.13.07a1.32,1.32,0,0,0,.21-1.36A3.17,3.17,0,0,0,95,7.64s0-.07,0-.06a2.64,2.64,0,0,1,1,.86,0,0,0,0,0,.07,0A1.33,1.33,0,0,0,96,7.92s0-.06,0,0a.92.92,0,0,1,.28.36c.07.12.2,0,.17-.16a4.42,4.42,0,0,0-.13-.61s0-.06.07,0a2,2,0,0,1,.27.58,0,0,0,0,0,.07,0,2.15,2.15,0,0,0,0-.82s0-.06.07,0a3.54,3.54,0,0,1,.28,1.22s0,.05.06,0a3.31,3.31,0,0,0,.25-.3,0,0,0,0,1,.07,0,1.86,1.86,0,0,1-.13.46s0,.07.06.05a5.36,5.36,0,0,0,.56-.6s.07,0,.06,0a3.44,3.44,0,0,1-.41.87s0,.07.06,0a4.37,4.37,0,0,0,.74-1s.08,0,.07,0,0,.11,0,.16,0,.07.06,0,.22-.31.32-.47a0,0,0,0,1,.07,0,2.57,2.57,0,0,1-.08.47s0,0,0,0L99,8.2a0,0,0,0,1,0,.06,13,13,0,0,0-.94,1c-.09.11,0,.29.1.18h0a5.86,5.86,0,0,1,.86-.76,0,0,0,0,1,0,0,1.11,1.11,0,0,1-.07.16s0,.07.05.05a4.45,4.45,0,0,0,.52-.33,0,0,0,0,1,0,.05,3,3,0,0,1-.37.43c-.09.09,0,.25.17.18h0a2.51,2.51,0,0,1,2.05-.5,0,0,0,0,1,0,.07,3.27,3.27,0,0,0-2.34,1.3s0,.07,0,.05c1.15-.59,2-.73,2.63-.38a0,0,0,0,1,0,.07,1.12,1.12,0,0,0-.27,0,0,0,0,0,0,0,.07.93.93,0,0,1,.2.09,0,0,0,0,1,0,.07,1.14,1.14,0,0,0-.39.06,0,0,0,0,0,0,.07,3.32,3.32,0,0,1,2.11,1.21c.07.11,0,.19-.12.11-.64-.68-1.88-.86-2-.46a.85.85,0,0,1,0,.33,0,0,0,0,1-.07,0A.56.56,0,0,0,101,11a0,0,0,0,0-.06.05,1,1,0,0,1,0,.37,0,0,0,0,1-.07,0c0-.11-.14-.09-.29-.07s-.17,0-.13.1a1,1,0,0,0,.24.3h0c.44-.16.52,0,.58,0s.17-.35.34-.46h0s0,.07,0,.1.12-.08.31-.13c0,0,.06,0,0,.06l-.11.17s0,.07.05.06a.73.73,0,0,1,.2-.05,0,0,0,1,1,0,.06l-.16.14s0,.06,0,.06a2.28,2.28,0,0,1,.66.1s0,.07,0,.07a2,2,0,0,0-.55.11,0,0,0,0,0,0,.07,2.73,2.73,0,0,1,.5,0s0,.07,0,.07l-.34.07a0,0,0,0,0,0,.07c.85,0,1.42.23,1.62.7,0,0,0,.07-.05.05l-.22-.08s-.07,0,0,.06a1.26,1.26,0,0,1,.43.86s0,0-.07,0a1.31,1.31,0,0,0-.38-.36,0,0,0,0,0-.06,0,.64.64,0,0,1,.06.18,0,0,0,0,1-.06,0l-.11-.1a0,0,0,0,0-.05.05,2,2,0,0,1,.27.76,0,0,0,0,1-.07,0,1.45,1.45,0,0,0-.21-.22s-.07,0-.06,0a2.1,2.1,0,0,1,.16.62s0,.06-.07,0a2,2,0,0,0-.45-.65,0,0,0,0,0-.06,0,2,2,0,0,1,0,1.29,0,0,0,0,1-.07,0,3,3,0,0,0-.33-1.41,0,0,0,0,0-.07,0,4.25,4.25,0,0,1-.11,1.72,0,0,0,0,1-.07,0,3.13,3.13,0,0,0-.15-1.13,0,0,0,0,0-.08,0,2.25,2.25,0,0,1,0,.4s-.07,0-.07,0a4.17,4.17,0,0,0-.18-.82s-.07,0-.07,0a4.51,4.51,0,0,1-.22.68,0,0,0,0,1-.07,0,6.35,6.35,0,0,0-.08-1.07s-.06,0-.07,0a1.6,1.6,0,0,1-.42.73,0,0,0,0,1-.07,0,2.15,2.15,0,0,0,0-.67,0,0,0,0,0-.07,0,2.37,2.37,0,0,1-.15.45s-.06,0-.07,0a1.74,1.74,0,0,0-.82-.94c-.06,0-.13,0-.06.07h0a1.22,1.22,0,0,1,.35,1,0,0,0,0,1-.07,0,.89.89,0,0,0-.26-.44,0,0,0,0,0-.06,0,.72.72,0,0,1,0,.41s-.06,0-.07,0a1.27,1.27,0,0,0-.21-.29,0,0,0,0,0-.06,0,1.69,1.69,0,0,1,.15.43s0,.06-.06,0-.11-.11-.17-.15a0,0,0,0,0-.06,0c0,.13-.14.36.06.32a2.65,2.65,0,0,1,3.35,2.26,0,0,0,0,1-.07,0,2.61,2.61,0,0,0-.19-.27,0,0,0,0,0-.06,0,5.21,5.21,0,0,1,.12.76,0,0,0,0,1-.07,0,3,3,0,0,0-.51-.88c-.06-.06-.13,0-.07.12h0a2.62,2.62,0,0,1,.25.86s0,.06-.07,0a1.8,1.8,0,0,0-.26-.34,0,0,0,0,0-.06,0,2.56,2.56,0,0,1-.14.72s-.07,0-.07,0a1.44,1.44,0,0,0-.23-.83,0,0,0,0,0-.06,0,5.23,5.23,0,0,1,0,1.37c0,.05-.06,0-.07,0a3.35,3.35,0,0,0-.29-1.08,0,0,0,0,0-.07,0,2.8,2.8,0,0,1-.22.57s-.07,0-.07,0a6,6,0,0,0,.14-1.39,0,0,0,0,0-.08,0,3.72,3.72,0,0,1-.35,1.22s-.07,0-.07,0a3.18,3.18,0,0,0,0-.61,0,0,0,0,0-.07,0,2.69,2.69,0,0,0-.27.59s-.08,0-.08,0a7.56,7.56,0,0,1,.12-.79s0-.06-.06,0a3,3,0,0,0-.37.64s-.07,0-.07,0a2.22,2.22,0,0,1,.43-1.41c0-.08,0-.1-.06-.06a3.33,3.33,0,0,0-.25.28,0,0,0,0,1-.07,0,3.32,3.32,0,0,0-.27-.77c0-.06-.15,0-.11.06a2.18,2.18,0,0,1-.26,2.23s-.07,0-.07,0a1.18,1.18,0,0,0-.22-1s-.06,0-.06,0a2.09,2.09,0,0,1-.2.85,0,0,0,0,1-.07,0,2.89,2.89,0,0,0-.29-1.13,0,0,0,0,0-.06,0,2.08,2.08,0,0,0-.19.61,0,0,0,0,1-.07,0,1.17,1.17,0,0,1-.06-.2s0,0-.07,0a.85.85,0,0,0,0,.17s-.07,0-.08,0a4.14,4.14,0,0,1-.1-.63A0,0,0,0,0,97,17a1.91,1.91,0,0,0-.23.65,0,0,0,0,1-.07,0,1.63,1.63,0,0,1-.08-.37s0,0-.07,0a.91.91,0,0,0-.07.14,0,0,0,0,1-.07,0,1.86,1.86,0,0,1-.05-.42,0,0,0,0,0-.06,0l-.09.08a7,7,0,0,1,.21-.69s0-.06-.06,0a3.68,3.68,0,0,0-.33.41,0,0,0,0,1-.07,0A2.19,2.19,0,0,1,98,15.15s0,0,0,0a.75.75,0,0,0,0-.26s0,0,0,0a1.73,1.73,0,0,0-.92.3,0,0,0,0,1,0,0c.48-.71,1.14-.73,1.18-.93,0,0,0-.05,0-.05a1.4,1.4,0,0,0-1,.38Z"/><path class="cls-8" d="M90.51,8.79a2.87,2.87,0,0,0-1.6-4.74,0,0,0,0,0,0,0c1.21,1.1,1.62,2.72.52,3.72a2.27,2.27,0,0,1-3.57-.56s-.06,0-.06,0A2.76,2.76,0,0,0,90.51,8.79Z"/></svg>