<svg id="Layer_1" data-name="Layer 1" xmlns="http://www.w3.org/2000/svg" viewBox="0 0 50 50"><defs><style>.cls-1,.cls-2{fill:#231f20;}.cls-2{fill-rule:evenodd;}</style></defs><title>CSCT-Black Icon Logo</title><polygon class="cls-1" points="30.29 37.66 10.92 37.66 10.92 30.42 12.92 30.42 12.92 35.66 30.29 35.66 30.29 37.66"/><path class="cls-1" d="M32.2,39.65a2.9,2.9,0,1,1,2.9-2.9A2.9,2.9,0,0,1,32.2,39.65Zm0-3.8a.9.9,0,1,0,.9.9A.9.9,0,0,0,32.2,35.85Z"/><polygon class="cls-1" points="40.52 30.5 35.16 30.5 35.2 10.43 37.2 10.43 37.16 28.5 40.52 28.5 40.52 30.5"/><path class="cls-1" d="M42.42,32.4a2.9,2.9,0,1,1,2.91-2.9A2.9,2.9,0,0,1,42.42,32.4Zm0-3.8a.9.9,0,1,0,.91.9A.9.9,0,0,0,42.42,28.6Z"/><polygon class="cls-1" points="12.92 21 7.72 21 7.72 19 10.92 19 10.92 13.86 36.2 13.86 36.2 15.86 12.92 15.86 12.92 21"/><path class="cls-1" d="M5.82,22.9A2.91,2.91,0,1,1,8.72,20,2.91,2.91,0,0,1,5.82,22.9Zm0-3.81a.91.91,0,1,0,0,1.81.91.91,0,0,0,0-1.81Z"/><rect class="cls-1" x="20.1" y="36.75" width="2" height="2.59"/><path class="cls-1" d="M21.1,44.15A2.91,2.91,0,1,1,24,41.24,2.91,2.91,0,0,1,21.1,44.15Zm0-3.81a.91.91,0,1,0,.9.9A.9.9,0,0,0,21.1,40.34Z"/><path class="cls-1" d="M36.2,11.43a2.91,2.91,0,1,1,2.9-2.91A2.91,2.91,0,0,1,36.2,11.43Zm0-3.81a.91.91,0,1,0,.9.9A.91.91,0,0,0,36.2,7.62Z"/><rect class="cls-1" x="10.92" y="22.95" width="2" height="5.21"/><path class="cls-2" d="M25,27.75a0,0,0,0,1-.07,0c.38-.94,1.47-1.16,2-1.4.11,0,.09-.08.09-.17a2,2,0,0,1,1-1.79.18.18,0,0,0,0-.3,2.63,2.63,0,0,0-1.45-.72s-.07.07,0,.08a2.16,2.16,0,0,1,1,.62.22.22,0,0,1-.06.32,1.65,1.65,0,0,0-.81,1.73,0,0,0,0,1-.08,0,1.4,1.4,0,0,1-.23-.62c0-.05-.07-.06-.08,0a1.78,1.78,0,0,0-.12.79c0,.05-.06.06-.09,0a.89.89,0,0,1-.12-.39,0,0,0,0,0-.08,0,2.08,2.08,0,0,0-.16.53,0,0,0,0,1-.09,0,3.84,3.84,0,0,1,0-1.26,0,0,0,0,0-.08,0,3,3,0,0,0-.25,1.32s-.07.06-.09,0a1.72,1.72,0,0,1,0-1.09s0-.07-.07-.05a2.45,2.45,0,0,0-.54,1s-.09,0-.09,0a4.59,4.59,0,0,1,.49-1.8,0,0,0,0,0-.07-.05,3.47,3.47,0,0,0-.89,1.15,0,0,0,0,1-.09,0,3.31,3.31,0,0,1,.7-1.53,0,0,0,0,0-.06-.06,2.71,2.71,0,0,0-.88,1.23,0,0,0,0,1-.09,0,2.54,2.54,0,0,1,.18-.85s0-.08-.07-.05a6.89,6.89,0,0,0-.55.63s-.1,0-.08-.05a8,8,0,0,1,1.05-1.64h0c.12-.13-.06-.23-.17-.16a4.87,4.87,0,0,0-.39.47,0,0,0,0,1-.08,0,4.22,4.22,0,0,0,0-1c0-.11-.14-.11-.14,0a3.2,3.2,0,0,1-.79,2.67c-.08.07,0,.16,0,.15.7-.15,1.9.71,2.05,2.34a0,0,0,0,1-.08,0,2.55,2.55,0,0,0-.41-.4,0,0,0,0,0-.07,0c.1.36.37.81.45,1.22,0,.13-.1.16-.15.06a3.65,3.65,0,0,0-.5-.77c-.12-.14-.27,0-.16.14a2.22,2.22,0,0,1,.34,1.18c0,.17-.14.21-.19,0A3.51,3.51,0,0,0,23.17,28a.1.1,0,0,0-.17.11c.1.21.29.36.3.64,0,.1,0,.16-.09.17a0,0,0,0,0,0,.06,3.54,3.54,0,0,1,.36.83c0,.05-.06.08-.08,0a6.89,6.89,0,0,0-.67-.91s-.09,0-.07.05A3,3,0,0,1,23,31.62s-.08,0-.08,0c0-.8-.16-1.41-.51-1.55,0,0-.07,0-.06.05a1.35,1.35,0,0,1-.08,1.08,0,0,0,0,1-.08,0A.94.94,0,0,0,22,30.6s-.06,0-.07,0a1.37,1.37,0,0,0-.13.2,0,0,0,0,1-.09,0,1.49,1.49,0,0,1,0-.21s0-.06-.06,0l-.2.08s-.07,0-.05-.05.1-.31.14-.48-.11-.16-.15-.08a2.2,2.2,0,0,1-.28.44.18.18,0,0,0,.06.28c.71.51.95,1,.94,1.42a0,0,0,0,1-.09,0,1.45,1.45,0,0,0-.3-.39,0,0,0,0,0-.07,0,4.08,4.08,0,0,1,.22.85,0,0,0,0,1-.09,0,2,2,0,0,0-.32-.52,0,0,0,0,0-.08,0,3.37,3.37,0,0,1,.06.7,0,0,0,0,1-.09,0l-.12-.24s-.09,0-.08,0,0,.27,0,.4a0,0,0,0,1-.08,0,1.28,1.28,0,0,0-.16-.26,0,0,0,0,0-.08,0,1.2,1.2,0,0,1,0,.52,0,0,0,0,1-.08,0,4.92,4.92,0,0,0-.44-.92,0,0,0,0,0-.08,0,2.79,2.79,0,0,1-.1,1.29,0,0,0,0,1-.08,0,3.24,3.24,0,0,0-.28-1.24,0,0,0,0,0-.08,0q-.07.21-.15.39a0,0,0,0,1-.09,0,2.56,2.56,0,0,0-.11-.71,0,0,0,0,0-.09,0,2.63,2.63,0,0,0,0,1.36,0,0,0,0,1-.08,0,1,1,0,0,1-.3-.44.05.05,0,0,0-.09,0,4.09,4.09,0,0,0-.18.56,0,0,0,0,1-.08,0,1.33,1.33,0,0,1-.17-.43,0,0,0,0,0-.08,0,2.42,2.42,0,0,0-.21.39s-.09,0-.09,0a3.83,3.83,0,0,1,.1-.59s0-.08-.07,0a2,2,0,0,0-.33.54s-.09,0-.09,0a3.88,3.88,0,0,1,.69-1.82c.27-.37.61-.52.74-.7s0-.08-.06-.06a4.1,4.1,0,0,0-1.74,1.78,0,0,0,0,1-.09,0,1.88,1.88,0,0,1,.05-.33,0,0,0,0,0-.07-.05,2.47,2.47,0,0,0-.84,1,0,0,0,0,1-.08,0,2.1,2.1,0,0,1,.36-.84s0-.09-.06-.07a1.61,1.61,0,0,0-.34.27,0,0,0,0,1-.07,0,3.18,3.18,0,0,1,.42-.87,0,0,0,0,0-.06-.07l-.11.08s-.08,0-.06-.05a1,1,0,0,1,.1-.21,0,0,0,0,0-.06-.06,1.77,1.77,0,0,0-.52.4,0,0,0,0,1-.07,0,1.45,1.45,0,0,1,.65-1s0-.09,0-.08a1.15,1.15,0,0,0-.29.08s-.08,0,0-.07A2.07,2.07,0,0,1,17.2,30a0,0,0,0,0,0-.08,2.39,2.39,0,0,0-.51-.23s0-.07,0-.08a1.1,1.1,0,0,1,.26-.06.05.05,0,0,0,0-.09,2.59,2.59,0,0,0-.61-.24c-.05,0,0-.08,0-.09a10.38,10.38,0,0,1,3.49.27,3.15,3.15,0,0,1,.87.58s0,0,.05,0c.36-.21.42-.55.27-1A0,0,0,0,0,21,29c-.07.15-.12.29-.17.42a0,0,0,0,1-.09,0,4,4,0,0,1,0-.6s0,0,0,0-.07,0-.11.09-.09,0-.07,0a2.09,2.09,0,0,1,.05-.21.05.05,0,0,0,0-.05s-.06,0-.08.07-.08,0-.08,0a1.17,1.17,0,0,0,0-.59c-.06-.11-.14-.07-.13,0a2.1,2.1,0,0,1-.13,1.12,0,0,0,0,1-.08,0,3.45,3.45,0,0,0-.14-.88,0,0,0,0,0-.08,0,2.63,2.63,0,0,0-.15.63,0,0,0,0,1-.08,0,3.59,3.59,0,0,1,0-.93,0,0,0,0,0-.09,0,4.22,4.22,0,0,0-.23.76c0,.05-.09.05-.09,0a4.94,4.94,0,0,1,.15-1.45c0-.05-.06-.08-.08,0a2.28,2.28,0,0,0-.17.3,0,0,0,0,1-.09,0,3.06,3.06,0,0,1,.16-1,0,0,0,0,0-.07-.05,1.16,1.16,0,0,0-.28.31.05.05,0,0,1-.08,0l-.17-.22s-.1,0-.08,0c.4,1.08.48,1.77.29,2.14a0,0,0,0,1-.09,0,3,3,0,0,0-.17-.81,0,0,0,0,0-.09,0,4.33,4.33,0,0,1-.14.92,0,0,0,0,1-.08,0A6.23,6.23,0,0,0,18,28a0,0,0,0,0-.09,0,3.62,3.62,0,0,0-.16.63,0,0,0,0,1-.08,0,5.6,5.6,0,0,1,0-1.3,0,0,0,0,0-.09,0,9.19,9.19,0,0,0-.32,1.48,0,0,0,0,1-.08,0,2.32,2.32,0,0,1,0-.79s-.05-.06-.08,0l-.34.36c-.06.1-.18.07-.14-.07a3.33,3.33,0,0,1,.31-.72h0c.08-.09-.06-.17-.15-.07a2.63,2.63,0,0,0-.64,1.06,0,0,0,0,1-.09,0,3.21,3.21,0,0,1,.06-.79c0-.14,0-.2-.13-.13l-.36.31s-.08,0-.07-.05a2.46,2.46,0,0,1,.63-1c.08-.08,0-.19-.15-.11a3.74,3.74,0,0,0-.83.9,0,0,0,0,1-.08,0,4.55,4.55,0,0,1,.44-.93s0-.09-.06-.06l-.36.31s-.09,0-.06-.06a6.14,6.14,0,0,1,1-1.32h0c.08-.12,0-.24-.52-.17,0,0-.07-.05,0-.07a1.79,1.79,0,0,1,2.32.17.22.22,0,0,0,.34-.05,2.59,2.59,0,0,1,.81-.67c.25-.11.37,0,.2.18h0a2.48,2.48,0,0,0-.4.82c0,.17.05.25.16.12s.39-.46.58-.69a0,0,0,0,1,.08,0,2.38,2.38,0,0,0,1.42,2c.21.1.33,0,.35-.17a2.22,2.22,0,0,1,.76-1.38c.07-.07,0-.12-.07-.09-.25.07-.4.38-.58.62a0,0,0,0,1-.08,0,1.31,1.31,0,0,1,.06-.27s0-.07-.08,0a2.06,2.06,0,0,0-.45.61,0,0,0,0,1-.08,0,1.3,1.3,0,0,1,.07-.33,0,0,0,0,0-.07,0,2.23,2.23,0,0,0-.21.22s-.1,0-.08,0a1.93,1.93,0,0,1,.58-.72s0-.1,0-.08a2,2,0,0,0-.68.4s-.08,0-.07-.05a4,4,0,0,1,.92-1.17,0,0,0,0,0-.05-.07,5.91,5.91,0,0,0-1.22.75,0,0,0,0,1-.07-.06,2.39,2.39,0,0,1,1.18-1c.05,0,.36-.32.2-.53S22.46,23,22.54,23a1.61,1.61,0,0,0,.07-1.66c-.31-.6-.26-1,.14-.59,0,0,.08,0,.08,0a1.58,1.58,0,0,0-.22-.57s0-.08.06-.06a1.29,1.29,0,0,1,.38.39c.1.14.24,0,.18-.21a5,5,0,0,0-.24-.71,0,0,0,0,1,.08-.05,2.48,2.48,0,0,1,.4.66s.07,0,.08,0a2.38,2.38,0,0,0-.1-1s.05-.07.08,0a4.33,4.33,0,0,1,.5,1.42s0,0,.08,0a2.59,2.59,0,0,0,.25-.39,0,0,0,0,1,.09,0,2.82,2.82,0,0,1-.09.57s.05.07.08,0A7.83,7.83,0,0,0,25,20a.05.05,0,0,1,.09,0,4.75,4.75,0,0,1-.37,1.1s0,.08.08.05a5.49,5.49,0,0,0,.74-1.36s.09,0,.08,0a1.29,1.29,0,0,1,0,.19c0,.05.06.08.08,0,.11-.19.22-.4.32-.61,0,0,.08,0,.08,0a2.82,2.82,0,0,1,0,.58s0,.06.07,0l.18-.1a0,0,0,0,1,.06.07,15.24,15.24,0,0,0-1,1.33c-.1.14,0,.34.14.19h0a7.42,7.42,0,0,1,.93-1s.08,0,.07.05,0,.13-.07.2,0,.08.07.06c.19-.13.38-.3.58-.47a0,0,0,0,1,.07.05,4.63,4.63,0,0,1-.39.56c-.09.12.05.31.23.2h0a3,3,0,0,1,2.38-.88,0,0,0,0,1,0,.09,3.93,3.93,0,0,0-2.62,1.86,0,0,0,0,0,.06.06c1.29-.86,2.33-1.15,3.08-.81,0,0,0,.08,0,.08a1.59,1.59,0,0,0-.33.08s0,.07,0,.08a.92.92,0,0,1,.25.09s0,.08,0,.08a1.54,1.54,0,0,0-.47.12,0,0,0,0,0,0,.09,4,4,0,0,1,2.68,1.15c.1.13,0,.23-.13.16-.85-.73-2.35-.78-2.41-.29a1.22,1.22,0,0,1,0,.41,0,0,0,0,1-.08,0,.67.67,0,0,0-.37-.46,0,0,0,0,0-.06.06,1.13,1.13,0,0,1,.1.44,0,0,0,0,1-.08,0c-.08-.12-.17-.09-.35-.05s-.21,0-.15.14a1,1,0,0,0,.33.33,0,0,0,0,0,.05,0c.49-.25.62,0,.68-.09s.15-.44.35-.6c0,0,0,0,.05,0s0,.08,0,.12.13-.12.35-.19c0,0,.08,0,.06.06a1.38,1.38,0,0,0-.1.22s0,.07.06.06a.92.92,0,0,1,.23-.09s.07.05,0,.08a1,1,0,0,0-.18.18,0,0,0,0,0,0,.07,2.41,2.41,0,0,1,.81,0,0,0,0,0,1,0,.09,2.18,2.18,0,0,0-.64.2,0,0,0,0,0,0,.09,3.14,3.14,0,0,1,.61,0c.05,0,.06.08,0,.09l-.39.12a0,0,0,0,0,0,.09c1-.09,1.73.08,2,.62,0,0,0,.08-.06.06l-.28-.07s-.07.06,0,.08a1.57,1.57,0,0,1,.63,1s0,.07-.08,0a1.65,1.65,0,0,0-.51-.39s-.08,0-.06.06a1,1,0,0,1,.09.21,0,0,0,0,1-.07.05l-.13-.11a0,0,0,0,0-.06.06,2.5,2.5,0,0,1,.42.87,0,0,0,0,1-.08,0,1.56,1.56,0,0,0-.28-.23s-.09,0-.06.05a2.68,2.68,0,0,1,.28.72c0,.05-.06.08-.08,0a2.41,2.41,0,0,0-.64-.71s-.08,0-.06.06a2.24,2.24,0,0,1,.18,1.53,0,0,0,0,1-.08,0,3.57,3.57,0,0,0-.59-1.64,0,0,0,0,0-.08,0,5.08,5.08,0,0,1,.1,2.07s-.07,0-.08,0A3.79,3.79,0,0,0,31,27.61a0,0,0,0,0-.08,0,4,4,0,0,1,0,.49,0,0,0,0,1-.09,0,4.48,4.48,0,0,0-.32-.94,0,0,0,0,0-.09,0,5.57,5.57,0,0,1-.16.85,0,0,0,0,1-.09,0A8.74,8.74,0,0,0,30,26.78a0,0,0,0,0-.09,0,1.92,1.92,0,0,1-.41.94,0,0,0,0,1-.08,0,3.1,3.1,0,0,0-.09-.81,0,0,0,0,0-.09,0,2.42,2.42,0,0,1-.12.56,0,0,0,0,1-.08,0,2.12,2.12,0,0,0-1.11-1c-.07,0-.15,0-.06.09h0a1.42,1.42,0,0,1,.55,1.12s-.07.05-.09,0a1,1,0,0,0-.36-.49s-.08,0-.06.05a1,1,0,0,1,.06.49,0,0,0,0,1-.08,0,1.52,1.52,0,0,0-.3-.32,0,0,0,0,0-.06.06,2.23,2.23,0,0,1,.24.49,0,0,0,0,1-.07.05l-.23-.16s-.06,0-.06,0-.12.44.12.37c2.22-.64,3.56.28,4.3,2.25a0,0,0,0,1-.07,0q-.13-.16-.27-.3a0,0,0,0,0-.07,0,5.81,5.81,0,0,1,.25.88s-.06.08-.08,0a3.64,3.64,0,0,0-.73-1c-.09-.07-.15.06-.07.15h0a2.94,2.94,0,0,1,.41,1,0,0,0,0,1-.07,0,2.45,2.45,0,0,0-.36-.36,0,0,0,0,0-.07,0,2.76,2.76,0,0,1-.07.88c0,.05-.08,0-.09,0a1.62,1.62,0,0,0-.38-1,0,0,0,0,0-.07,0,6.2,6.2,0,0,1,.18,1.64,0,0,0,0,1-.09,0,3.75,3.75,0,0,0-.49-1.25s-.08,0-.08,0a4,4,0,0,1-.18.7,0,0,0,0,1-.09,0,7.49,7.49,0,0,0,0-1.69,0,0,0,0,0-.09,0,4.56,4.56,0,0,1-.26,1.5,0,0,0,0,1-.08,0,3.56,3.56,0,0,0,0-.74s-.07,0-.08,0a3.88,3.88,0,0,0-.25.75,0,0,0,0,1-.09,0,6.09,6.09,0,0,1,0-.95.05.05,0,0,0-.09,0,3.68,3.68,0,0,0-.35.82,0,0,0,0,1-.09,0,2.71,2.71,0,0,1,.33-1.74c.05-.1,0-.12-.08-.06a2.36,2.36,0,0,0-.26.36,0,0,0,0,1-.08,0,3.8,3.8,0,0,0-.43-.88c-.06-.07-.18,0-.13.08a2.59,2.59,0,0,1,0,2.7,0,0,0,0,1-.08,0c0-.55-.12-1-.4-1.18a0,0,0,0,0-.07,0,2.57,2.57,0,0,1-.12,1,0,0,0,0,1-.09,0,3.69,3.69,0,0,0-.5-1.31s-.06,0-.08,0a2.71,2.71,0,0,0-.14.75,0,0,0,0,1-.08,0,1.17,1.17,0,0,1-.09-.24s-.08,0-.09,0a.76.76,0,0,0,0,.21,0,0,0,0,1-.09,0,5.33,5.33,0,0,1-.21-.74,0,0,0,0,0-.08,0,2.35,2.35,0,0,0-.19.81,0,0,0,0,1-.08,0,1.76,1.76,0,0,1-.15-.44,0,0,0,0,0-.08,0,.49.49,0,0,0-.06.17,0,0,0,0,1-.09,0,2.07,2.07,0,0,1-.12-.49,0,0,0,0,0-.08,0l-.09.11a7.34,7.34,0,0,1,.16-.84s0-.08-.07,0a2.71,2.71,0,0,0-.35.53,0,0,0,0,1-.08,0A2.63,2.63,0,0,1,26,28.45s0,0,0,0a1.2,1.2,0,0,0,0-.33,0,0,0,0,0-.05,0,2.16,2.16,0,0,0-1.05.49s-.09,0-.07-.06c.48-.91,1.27-1,1.28-1.27a0,0,0,0,0,0-.05,1.65,1.65,0,0,0-1.16.59Z"/><path class="cls-2" d="M20.26,22.26a3.28,3.28,0,0,0-1.82-5.42s-.05,0,0,.06c1.39,1.26,1.85,3.1.6,4.25a2.6,2.6,0,0,1-4.08-.65s-.07,0-.06,0A3.15,3.15,0,0,0,20.26,22.26Z"/></svg>